<?xml version="1.0" standalone="no"?>
<!DOCTYPE svg PUBLIC "-//W3C//DTD SVG 20010904//EN" "http://www.w3.org/TR/2001/REC-SVG-20010904/DTD/svg10.dtd">
<!-- Created using Krita: https://krita.org -->
<svg xmlns="http://www.w3.org/2000/svg" 
    xmlns:xlink="http://www.w3.org/1999/xlink"
    xmlns:krita="http://krita.org/namespaces/svg/krita"
    xmlns:sodipodi="http://sodipodi.sourceforge.net/DTD/sodipodi-0.dtd"
    width="313.201pt"
    height="560.882pt"
    viewBox="0 0 313.201 560.882">
<defs/>
<path id="shape0" fill="none" stroke="#ffb24a" stroke-width="1" stroke-linecap="square" stroke-linejoin="miter" stroke-miterlimit="2" d="M152.641 0L152.641 0.720003L141.121 0.720003L141.121 1.44001L135.361 1.44001L135.361 2.16001L130.32 2.16001L130.32 2.88001L126.72 2.88001L126.72 3.60001L123.12 3.60001L123.12 4.32002L120.24 4.32002L120.24 5.04002L117.36 5.04002L117.36 5.76002L114.48 5.76002L114.48 6.48002L111.6 6.48002L111.6 7.20003L109.44 7.20003L109.44 7.92003L107.28 7.92003L107.28 8.64003L105.12 8.64003L105.12 9.36003L102.96 9.36003L102.96 10.08L101.52 10.08L101.52 10.8L99.3604 10.8L99.3604 11.52L97.9204 11.52L97.9204 12.24L95.7604 12.24L95.7604 12.96L94.3204 12.96L94.3204 13.6801L92.8803 13.6801L92.8803 14.4001L90.7203 14.4001L90.7203 15.1201L89.2803 15.1201L89.2803 15.8401L87.8403 15.8401L87.8403 16.5601L86.4003 16.5601L86.4003 17.2801L84.9603 17.2801L84.9603 18.0001L83.5203 18.0001L83.5203 18.7201L82.0803 18.7201L82.0803 19.4401L81.3603 19.4401L81.3603 20.1601L79.9203 20.1601L79.9203 20.8801L78.4803 20.8801L78.4803 21.6001L77.0403 21.6001L77.0403 22.3201L76.3203 22.3201L76.3203 23.0401L74.8803 23.0401L74.8803 23.7601L73.4403 23.7601L73.4403 24.4801L72.7203 24.4801L72.7203 25.2001L71.2803 25.2001L71.2803 25.9201L70.5603 25.9201L70.5603 26.6401L69.1203 26.6401L69.1203 27.3601L68.4003 27.3601L68.4003 28.0801L66.9602 28.0801L66.9602 28.8001L66.2402 28.8001L66.2402 29.5201L65.5202 29.5201L65.5202 30.2401L64.0802 30.2401L64.0802 30.9601L63.3602 30.9601L63.3602 31.6801L62.6402 31.6801L62.6402 32.4001L61.2002 32.4001L61.2002 33.1201L60.4802 33.1201L60.4802 33.8401L59.7602 33.8401L59.7602 34.5601L58.3202 34.5601L58.3202 35.2801L57.6002 35.2801L57.6002 36.0001L56.8802 36.0001L56.8802 36.7201L56.1602 36.7201L56.1602 37.4401L55.4402 37.4401L55.4402 38.1601L54.0002 38.1601L54.0002 38.8801L53.2802 38.8801L53.2802 39.6001L52.5602 39.6001L52.5602 40.3202L51.8402 40.3202L51.8402 41.0402L51.1202 41.0402L51.1202 41.7602L50.4002 41.7602L50.4002 42.4802L49.6802 42.4802L49.6802 43.2002L48.9602 43.2002L48.9602 43.9202L48.2402 43.9202L48.2402 44.6402L47.5202 44.6402L47.5202 45.3602L46.8002 45.3602L46.8002 46.0802L46.0802 46.0802L46.0802 46.8002L45.3602 46.8002L45.3602 47.5202L44.6402 47.5202L44.6402 48.2402L43.9202 48.2402L43.9202 48.9602L43.2002 48.9602L43.2002 49.6802L42.4802 49.6802L42.4802 50.4002L41.7602 50.4002L41.7602 51.1202L41.0402 51.1202L41.0402 51.8402L40.3202 51.8402L40.3202 52.5602L39.6001 52.5602L39.6001 53.2802L38.8801 53.2802L38.8801 54.7202L38.1601 54.7202L38.1601 55.4402L37.4401 55.4402L37.4401 56.1602L36.7201 56.1602L36.7201 56.8802L36.0001 56.8802L36.0001 57.6002L35.2801 57.6002L35.2801 59.0402L34.5601 59.0402L34.5601 59.7602L33.8401 59.7602L33.8401 60.4802L33.1201 60.4802L33.1201 61.2002L32.4001 61.2002L32.4001 62.6402L31.6801 62.6402L31.6801 63.3602L30.9601 63.3602L30.9601 64.0802L30.2401 64.0802L30.2401 65.5202L29.5201 65.5202L29.5201 66.2402L28.8001 66.2402L28.8001 67.6803L28.0801 67.6803L28.0801 68.4003L27.3601 68.4003L27.3601 69.8403L26.6401 69.8403L26.6401 70.5603L25.9201 70.5603L25.9201 72.0003L25.2001 72.0003L25.2001 72.7203L24.4801 72.7203L24.4801 74.1603L23.7601 74.1603L23.7601 74.8803L23.0401 74.8803L23.0401 76.3203L22.3201 76.3203L22.3201 77.7603L21.6001 77.7603L21.6001 78.4803L20.8801 78.4803L20.8801 79.9203L20.1601 79.9203L20.1601 81.3603L19.4401 81.3603L19.4401 82.8003L18.7201 82.8003L18.7201 84.2403L18.0001 84.2403L18.0001 85.6803L17.2801 85.6803L17.2801 87.1203L16.5601 87.1203L16.5601 88.5603L15.8401 88.5603L15.8401 90.0003L15.1201 90.0003L15.1201 91.4403L14.4001 91.4403L14.4001 92.8803L13.6801 92.8803L13.6801 95.0404L12.96 95.0404L12.96 96.4804L12.24 96.4804L12.24 97.9204L11.52 97.9204L11.52 100.08L10.8 100.08L10.8 102.24L10.08 102.24L10.08 103.68L9.36003 103.68L9.36003 105.84L8.64003 105.84L8.64003 108L7.92003 108L7.92003 110.16L7.20003 110.16L7.20003 113.04L6.48002 113.04L6.48002 115.2L5.76002 115.2L5.76002 118.08L5.04002 118.08L5.04002 120.96L4.32002 120.96L4.32002 124.56L3.60001 124.56L3.60001 128.16L2.88001 128.16L2.88001 132.48L2.16001 132.48L2.16001 137.521L1.44001 137.521L1.44001 144.721L0.720003 144.721L0.720003 167.761L1.44001 167.761L1.44001 174.961L2.16001 174.961L2.16001 180.001L2.88001 180.001L2.88001 184.321L3.60001 184.321L3.60001 187.921L4.32002 187.921L4.32002 191.521L5.04002 191.521L5.04002 194.401L5.76002 194.401L5.76002 197.281L6.48002 197.281L6.48002 199.441L7.20003 199.441L7.20003 202.321L7.92003 202.321L7.92003 204.481L8.64003 204.481L8.64003 206.641L9.36003 206.641L9.36003 208.801L10.08 208.801L10.08 210.241L10.8 210.241L10.8 212.401L11.52 212.401L11.52 214.561L12.24 214.561L12.24 216.001L12.96 216.001L12.96 217.441L13.6801 217.441L13.6801 219.601L14.4001 219.601L14.4001 221.041L15.1201 221.041L15.1201 222.481L15.8401 222.481L15.8401 223.921L16.5601 223.921L16.5601 225.361L17.2801 225.361L17.2801 226.801L18.0001 226.801L18.0001 228.241L18.7201 228.241L18.7201 228.961L19.4401 228.961L19.4401 230.401L20.1601 230.401L20.1601 232.561L20.8801 232.561L20.8801 234.001L21.6001 234.001L21.6001 235.441L22.3201 235.441L22.3201 236.161L23.0401 236.161L23.0401 237.601L23.7601 237.601L23.7601 239.041L24.4801 239.041L24.4801 240.481L25.2001 240.481L25.2001 241.201L25.9201 241.201L25.9201 242.641L26.6401 242.641L26.6401 243.361L27.3601 243.361L27.3601 244.801L28.0801 244.801L28.0801 245.521L28.8001 245.521L28.8001 246.961L29.5201 246.961L29.5201 248.401L30.2401 248.401L30.2401 249.841L30.9601 249.841L30.9601 252.001L31.6801 252.001L31.6801 254.161L32.4001 254.161L32.4001 254.881L33.1201 254.881L33.1201 255.601L33.8401 255.601L33.8401 257.041L34.5601 257.041L34.5601 257.761L35.2801 257.761L35.2801 259.201L36.0001 259.201L36.0001 259.921L36.7201 259.921L36.7201 261.361L37.4401 261.361L37.4401 263.521L38.1601 263.521L38.1601 264.961L38.8801 264.961L38.8801 265.681L39.6001 265.681L39.6001 267.121L40.3202 267.121L40.3202 268.561L41.0402 268.561L41.0402 269.281L41.7602 269.281L41.7602 270.001L42.4802 270.001L42.4802 270.721L43.2002 270.721L43.2002 271.441L43.9202 271.441L43.9202 272.881L44.6402 272.881L44.6402 273.601L45.3602 273.601L45.3602 275.041L46.0802 275.041L46.0802 275.761L46.8002 275.761L46.8002 277.201L47.5202 277.201L47.5202 279.361L48.2402 279.361L48.2402 280.801L48.9602 280.801L48.9602 281.521L49.6802 281.521L49.6802 282.961L50.4002 282.961L50.4002 284.401L51.1202 284.401L51.1202 285.841L51.8402 285.841L51.8402 287.281L52.5602 287.281L52.5602 288.721L53.2802 288.721L53.2802 290.881L54.0002 290.881L54.0002 292.321L54.7202 292.321L54.7202 295.201L55.4402 295.201L55.4402 297.361L56.1602 297.361L56.1602 300.241L56.8802 300.241L56.8802 302.401L57.6002 302.401L57.6002 304.561L58.3202 304.561L58.3202 307.441L59.0402 307.441L59.0402 309.601L59.7602 309.601L59.7602 311.041L60.4802 311.041L60.4802 312.481L61.2002 312.481L61.2002 314.641L61.9202 314.641L61.9202 316.801L62.6402 316.801L62.6402 322.561L63.3602 322.561L63.3602 324.721L64.0802 324.721L64.0802 326.881L64.8002 326.881L64.8002 329.761L65.5202 329.761L65.5202 332.641L66.2402 332.641L66.2402 335.521L66.9602 335.521L66.9602 338.401L67.6803 338.401L67.6803 346.321L68.4003 346.321L68.4003 348.481L69.1203 348.481L69.1203 351.361L69.8403 351.361L69.8403 353.521L70.5603 353.521L70.5603 358.561L71.2803 358.561L71.2803 360.721L70.5603 360.721L70.5603 361.441L71.2803 361.441L71.2803 364.321L72.0003 364.321L72.0003 389.521L72.7203 389.521L72.7203 392.401L73.4403 392.401L73.4403 403.202L74.1603 403.202L74.1603 406.802L74.8803 406.802L74.8803 408.962L75.6003 408.962L75.6003 411.122L76.3203 411.122L76.3203 412.562L77.0403 412.562L77.0403 414.002L77.7603 414.002L77.7603 414.722L78.4803 414.722L78.4803 416.162L79.2003 416.162L79.2003 416.882L79.9203 416.882L79.9203 418.322L80.6403 418.322L80.6403 419.042L81.3603 419.042L81.3603 419.762L82.0803 419.762L82.0803 420.482L82.8003 420.482L82.8003 421.202L84.2403 421.202L84.2403 421.922L84.9603 421.922L84.9603 422.642L85.6803 422.642L85.6803 423.362L86.4003 423.362L86.4003 424.082L87.1203 424.082L87.1203 424.802L88.5603 424.802L88.5603 425.522L89.2803 425.522L89.2803 426.242L90.7203 426.242L90.7203 426.962L92.1603 426.962L92.1603 427.682L93.6003 427.682L93.6003 428.402L95.0404 428.402L95.0404 429.122L97.2004 429.122L97.2004 429.842L101.52 429.842L101.52 430.562L168.481 430.562L168.481 429.842L176.401 429.842L176.401 429.122L179.281 429.122L179.281 428.402L182.881 428.402L182.881 427.682L186.481 427.682L186.481 426.962L189.361 426.962L189.361 426.242L197.281 426.242L197.281 425.522L200.881 425.522L200.881 424.802L204.481 424.802L204.481 424.082L211.681 424.082L211.681 423.362L215.281 423.362L215.281 422.642L218.161 422.642L218.161 421.922L220.321 421.922L220.321 421.202L226.801 421.202L226.801 420.482L230.401 420.482L230.401 419.762L232.561 419.762L232.561 419.042L234.001 419.042L234.001 418.322L235.441 418.322L235.441 417.602L236.881 417.602L236.881 416.882L238.321 416.882L238.321 416.162L239.041 416.162L239.041 415.442L239.761 415.442L239.761 414.722L240.481 414.722L240.481 414.002L241.921 414.002L241.921 413.282L242.641 413.282L242.641 412.562L243.361 412.562L243.361 411.122L244.081 411.122L244.081 410.402L244.801 410.402L244.801 409.682L245.521 409.682L245.521 408.242L246.241 408.242L246.241 407.522L246.961 407.522L246.961 406.082L247.681 406.082L247.681 404.642L248.401 404.642L248.401 402.482L249.121 402.482L249.121 400.321L249.841 400.321L249.841 396.001L250.561 396.001L250.561 381.601L251.281 381.601L251.281 378.721L252.001 378.721L252.001 375.121L252.721 375.121L252.721 367.201L253.441 367.201L253.441 365.041L254.161 365.041L254.161 361.441L254.881 361.441L254.881 336.241L255.601 336.241L255.601 334.081L256.321 334.081L256.321 329.761L257.041 329.761L257.041 321.841L257.761 321.841L257.761 319.681L258.481 319.681L258.481 316.081L259.201 316.081L259.201 311.761L259.921 311.761L259.921 308.881L260.641 308.881L260.641 305.281L261.361 305.281L261.361 303.841L262.081 303.841L262.081 300.961L262.801 300.961L262.801 296.641L263.521 296.641L263.521 295.201L264.241 295.201L264.241 292.321L264.961 292.321L264.961 288.721L265.681 288.721L265.681 285.841L266.401 285.841L266.401 284.401L267.121 284.401L267.121 282.241L267.841 282.241L267.841 280.081L268.561 280.081L268.561 277.921L269.281 277.921L269.281 276.481L270.001 276.481L270.001 275.761L270.721 275.761L270.721 274.321L271.441 274.321L271.441 272.881L272.161 272.881L272.161 270.721L272.881 270.721L272.881 268.561L273.601 268.561L273.601 265.681L274.321 265.681L274.321 264.961L275.041 264.961L275.041 264.241L275.761 264.241L275.761 262.801L276.481 262.801L276.481 261.361L277.201 261.361L277.201 259.921L277.921 259.921L277.921 257.761L278.641 257.761L278.641 254.881L279.361 254.881L279.361 254.161L280.081 254.161L280.081 252.721L280.801 252.721L280.801 252.001L281.521 252.001L281.521 250.561L282.241 250.561L282.241 249.121L282.961 249.121L282.961 247.681L283.681 247.681L283.681 246.241L284.401 246.241L284.401 245.521L285.121 245.521L285.121 244.081L285.841 244.081L285.841 242.641L286.561 242.641L286.561 241.921L287.281 241.921L287.281 240.481L288.001 240.481L288.001 239.761L288.721 239.761L288.721 238.321L289.441 238.321L289.441 237.601L290.161 237.601L290.161 236.161L290.881 236.161L290.881 234.721L291.601 234.721L291.601 234.001L292.321 234.001L292.321 232.561L293.041 232.561L293.041 231.121L293.761 231.121L293.761 229.681L294.481 229.681L294.481 228.241L295.201 228.241L295.201 226.801L295.921 226.801L295.921 225.361L296.641 225.361L296.641 223.921L297.361 223.921L297.361 222.481L298.081 222.481L298.081 221.041L298.801 221.041L298.801 219.601L299.521 219.601L299.521 217.441L300.241 217.441L300.241 216.001L300.961 216.001L300.961 214.561L301.681 214.561L301.681 212.401L302.401 212.401L302.401 210.961L303.121 210.961L303.121 208.801L303.841 208.801L303.841 206.641L304.561 206.641L304.561 204.481L305.281 204.481L305.281 202.321L306.001 202.321L306.001 199.441L306.721 199.441L306.721 197.281L307.441 197.281L307.441 194.401L308.161 194.401L308.161 191.521L308.881 191.521L308.881 187.921L309.601 187.921L309.601 184.321L310.321 184.321L310.321 180.001L311.041 180.001L311.041 174.961L311.761 174.961L311.761 167.761L312.481 167.761L312.481 144.721L311.761 144.721L311.761 137.521L311.041 137.521L311.041 132.48L310.321 132.48L310.321 128.16L309.601 128.16L309.601 124.56L308.881 124.56L308.881 120.96L308.161 120.96L308.161 118.08L307.441 118.08L307.441 115.2L306.721 115.2L306.721 113.04L306.001 113.04L306.001 110.16L305.281 110.16L305.281 108L304.561 108L304.561 105.84L303.841 105.84L303.841 103.68L303.121 103.68L303.121 102.24L302.401 102.24L302.401 100.08L301.681 100.08L301.681 97.9204L300.961 97.9204L300.961 96.4804L300.241 96.4804L300.241 95.0404L299.521 95.0404L299.521 92.8803L298.801 92.8803L298.801 91.4403L298.081 91.4403L298.081 90.0003L297.361 90.0003L297.361 88.5603L296.641 88.5603L296.641 87.1203L295.921 87.1203L295.921 85.6803L295.201 85.6803L295.201 84.2403L294.481 84.2403L294.481 82.8003L293.761 82.8003L293.761 81.3603L293.041 81.3603L293.041 79.9203L292.321 79.9203L292.321 78.4803L291.601 78.4803L291.601 77.7603L290.881 77.7603L290.881 76.3203L290.161 76.3203L290.161 74.8803L289.441 74.8803L289.441 74.1603L288.721 74.1603L288.721 72.7203L288.001 72.7203L288.001 72.0003L287.281 72.0003L287.281 70.5603L286.561 70.5603L286.561 69.8403L285.841 69.8403L285.841 68.4003L285.121 68.4003L285.121 67.6803L284.401 67.6803L284.401 66.2402L283.681 66.2402L283.681 65.5202L282.961 65.5202L282.961 64.0802L282.241 64.0802L282.241 63.3602L281.521 63.3602L281.521 62.6402L280.801 62.6402L280.801 61.2002L280.081 61.2002L280.081 60.4802L279.361 60.4802L279.361 59.7602L278.641 59.7602L278.641 59.0402L277.921 59.0402L277.921 57.6002L277.201 57.6002L277.201 56.8802L276.481 56.8802L276.481 56.1602L275.761 56.1602L275.761 55.4402L275.041 55.4402L275.041 54.7202L274.321 54.7202L274.321 53.2802L273.601 53.2802L273.601 52.5602L272.881 52.5602L272.881 51.8402L272.161 51.8402L272.161 51.1202L271.441 51.1202L271.441 50.4002L270.721 50.4002L270.721 49.6802L270.001 49.6802L270.001 48.9602L269.281 48.9602L269.281 48.2402L268.561 48.2402L268.561 47.5202L267.841 47.5202L267.841 46.8002L267.121 46.8002L267.121 46.0802L266.401 46.0802L266.401 45.3602L265.681 45.3602L265.681 44.6402L264.961 44.6402L264.961 43.9202L264.241 43.9202L264.241 43.2002L263.521 43.2002L263.521 42.4802L262.801 42.4802L262.801 41.7602L262.081 41.7602L262.081 41.0402L261.361 41.0402L261.361 40.3202L260.641 40.3202L260.641 39.6001L259.921 39.6001L259.921 38.8801L259.201 38.8801L259.201 38.1601L257.761 38.1601L257.761 37.4401L257.041 37.4401L257.041 36.7201L256.321 36.7201L256.321 36.0001L255.601 36.0001L255.601 35.2801L254.881 35.2801L254.881 34.5601L253.441 34.5601L253.441 33.8401L252.721 33.8401L252.721 33.1201L252.001 33.1201L252.001 32.4001L250.561 32.4001L250.561 31.6801L249.841 31.6801L249.841 30.9601L249.121 30.9601L249.121 30.2401L247.681 30.2401L247.681 29.5201L246.961 29.5201L246.961 28.8001L246.241 28.8001L246.241 28.0801L244.801 28.0801L244.801 27.3601L244.081 27.3601L244.081 26.6401L242.641 26.6401L242.641 25.9201L241.921 25.9201L241.921 25.2001L240.481 25.2001L240.481 24.4801L239.761 24.4801L239.761 23.7601L238.321 23.7601L238.321 23.0401L236.881 23.0401L236.881 22.3201L236.161 22.3201L236.161 21.6001L234.721 21.6001L234.721 20.8801L233.281 20.8801L233.281 20.1601L231.841 20.1601L231.841 19.4401L231.121 19.4401L231.121 18.7201L229.681 18.7201L229.681 18.0001L228.241 18.0001L228.241 17.2801L226.801 17.2801L226.801 16.5601L225.361 16.5601L225.361 15.8401L223.921 15.8401L223.921 15.1201L222.481 15.1201L222.481 14.4001L220.321 14.4001L220.321 13.6801L218.881 13.6801L218.881 12.96L217.441 12.96L217.441 12.24L215.281 12.24L215.281 11.52L213.841 11.52L213.841 10.8L211.681 10.8L211.681 10.08L210.241 10.08L210.241 9.36003L208.081 9.36003L208.081 8.64003L205.921 8.64003L205.921 7.92003L203.761 7.92003L203.761 7.20003L201.601 7.20003L201.601 6.48002L198.721 6.48002L198.721 5.76002L195.841 5.76002L195.841 5.04002L192.961 5.04002L192.961 4.32002L190.081 4.32002L190.081 3.60001L186.481 3.60001L186.481 2.88001L182.881 2.88001L182.881 2.16001L177.841 2.16001L177.841 1.44001L172.081 1.44001L172.081 0.720003L160.561 0.720003L160.561 0L152.641 0M108 449.282L108 450.002L102.24 450.002L102.24 450.722L100.08 450.722L100.08 451.442L98.6404 451.442L98.6404 452.162L97.2004 452.162L97.2004 452.882L95.7604 452.882L95.7604 453.602L94.3204 453.602L94.3204 454.322L93.6003 454.322L93.6003 455.042L92.8803 455.042L92.8803 455.762L92.1603 455.762L92.1603 456.482L91.4403 456.482L91.4403 457.202L90.7203 457.202L90.7203 457.922L90.0003 457.922L90.0003 458.642L89.2803 458.642L89.2803 459.362L88.5603 459.362L88.5603 460.802L87.8403 460.802L87.8403 461.522L87.1203 461.522L87.1203 462.962L86.4003 462.962L86.4003 464.402L85.6803 464.402L85.6803 466.562L84.9603 466.562L84.9603 469.442L84.2403 469.442L84.2403 478.082L84.9603 478.082L84.9603 480.962L85.6803 480.962L85.6803 483.122L86.4003 483.122L86.4003 484.562L87.1203 484.562L87.1203 486.002L87.8403 486.002L87.8403 486.722L88.5603 486.722L88.5603 488.162L89.2803 488.162L89.2803 488.882L90.0003 488.882L90.0003 489.602L90.7203 489.602L90.7203 490.322L91.4403 490.322L91.4403 491.042L92.1603 491.042L92.1603 491.762L92.8803 491.762L92.8803 492.482L93.6003 492.482L93.6003 493.202L94.3204 493.202L94.3204 493.922L95.7604 493.922L95.7604 494.642L97.2004 494.642L97.2004 495.362L98.6404 495.362L98.6404 496.082L100.08 496.082L100.08 496.802L102.24 496.802L102.24 497.522L108 497.522L108 498.242L108.72 498.242L108.72 497.522L112.32 497.522L112.32 498.242L113.76 498.242L113.76 497.522L117.36 497.522L117.36 498.242L118.8 498.242L118.8 497.522L122.4 497.522L122.4 498.242L123.12 498.242L123.12 497.522L126.72 497.522L126.72 498.242L128.16 498.242L128.16 497.522L131.76 497.522L131.76 498.242L133.2 498.242L133.2 497.522L136.801 497.522L136.801 498.242L137.521 498.242L137.521 497.522L141.121 497.522L141.121 498.242L142.561 498.242L142.561 497.522L146.161 497.522L146.161 498.242L147.601 498.242L147.601 497.522L151.201 497.522L151.201 498.242L151.921 498.242L151.921 497.522L155.521 497.522L155.521 498.242L156.961 498.242L156.961 497.522L160.561 497.522L160.561 498.242L162.001 498.242L162.001 497.522L165.601 497.522L165.601 498.242L166.321 498.242L166.321 497.522L169.921 497.522L169.921 498.242L171.361 498.242L171.361 497.522L174.961 497.522L174.961 498.242L176.401 498.242L176.401 497.522L179.281 497.522L179.281 498.242L180.721 498.242L180.721 497.522L184.321 497.522L184.321 498.242L185.761 498.242L185.761 497.522L189.361 497.522L189.361 498.242L190.801 498.242L190.801 497.522L193.681 497.522L193.681 498.242L195.121 498.242L195.121 497.522L198.721 497.522L198.721 498.242L200.161 498.242L200.161 497.522L203.761 497.522L203.761 498.242L204.481 498.242L204.481 497.522L208.081 497.522L208.081 498.242L209.521 498.242L209.521 497.522L213.121 497.522L213.121 498.242L214.561 498.242L214.561 497.522L219.601 497.522L219.601 496.802L221.761 496.802L221.761 496.082L223.921 496.082L223.921 495.362L225.361 495.362L225.361 494.642L226.801 494.642L226.801 493.922L227.521 493.922L227.521 493.202L228.241 493.202L228.241 492.482L229.681 492.482L229.681 491.762L230.401 491.762L230.401 491.042L231.121 491.042L231.121 490.322L231.841 490.322L231.841 489.602L232.561 489.602L232.561 488.162L233.281 488.162L233.281 487.442L234.001 487.442L234.001 486.722L234.721 486.722L234.721 485.282L235.441 485.282L235.441 483.842L236.161 483.842L236.161 481.682L236.881 481.682L236.881 479.522L237.601 479.522L237.601 468.002L236.881 468.002L236.881 465.842L236.161 465.842L236.161 463.682L235.441 463.682L235.441 462.242L234.721 462.242L234.721 460.802L234.001 460.802L234.001 460.082L233.281 460.082L233.281 459.362L232.561 459.362L232.561 457.922L231.841 457.922L231.841 457.202L231.121 457.202L231.121 456.482L230.401 456.482L230.401 455.762L229.681 455.762L229.681 455.042L228.241 455.042L228.241 454.322L227.521 454.322L227.521 453.602L226.801 453.602L226.801 452.882L225.361 452.882L225.361 452.162L223.921 452.162L223.921 451.442L221.761 451.442L221.761 450.722L219.601 450.722L219.601 450.002L214.561 450.002L214.561 449.282L213.121 449.282L213.121 450.002L209.521 450.002L209.521 449.282L208.081 449.282L208.081 450.002L204.481 450.002L204.481 449.282L203.761 449.282L203.761 450.002L200.161 450.002L200.161 449.282L198.721 449.282L198.721 450.002L195.121 450.002L195.121 449.282L193.681 449.282L193.681 450.002L190.801 450.002L190.801 449.282L189.361 449.282L189.361 450.002L185.761 450.002L185.761 449.282L184.321 449.282L184.321 450.002L180.721 450.002L180.721 449.282L179.281 449.282L179.281 450.002L176.401 450.002L176.401 449.282L174.961 449.282L174.961 450.002L171.361 450.002L171.361 449.282L169.921 449.282L169.921 450.002L166.321 450.002L166.321 449.282L165.601 449.282L165.601 450.002L162.001 450.002L162.001 449.282L160.561 449.282L160.561 450.002L156.961 450.002L156.961 449.282L155.521 449.282L155.521 450.002L151.921 450.002L151.921 449.282L151.201 449.282L151.201 450.002L147.601 450.002L147.601 449.282L146.161 449.282L146.161 450.002L142.561 450.002L142.561 449.282L141.121 449.282L141.121 450.002L137.521 450.002L137.521 449.282L136.801 449.282L136.801 450.002L133.2 450.002L133.2 449.282L131.76 449.282L131.76 450.002L128.16 450.002L128.16 449.282L126.72 449.282L126.72 450.002L123.12 450.002L123.12 449.282L122.4 449.282L122.4 450.002L118.8 450.002L118.8 449.282L117.36 449.282L117.36 450.002L113.76 450.002L113.76 449.282L112.32 449.282L112.32 450.002L108.72 450.002L108.72 449.282L108 449.282M125.28 511.922L125.28 512.642L119.52 512.642L119.52 513.362L117.36 513.362L117.36 514.082L115.92 514.082L115.92 514.802L114.48 514.802L114.48 515.522L113.04 515.522L113.04 516.242L111.6 516.242L111.6 516.962L110.88 516.962L110.88 517.682L110.16 517.682L110.16 518.402L109.44 518.402L109.44 519.122L108.72 519.122L108.72 519.842L108 519.842L108 520.562L107.28 520.562L107.28 521.282L106.56 521.282L106.56 522.002L105.84 522.002L105.84 523.442L105.12 523.442L105.12 524.162L104.4 524.162L104.4 525.602L103.68 525.602L103.68 527.042L102.96 527.042L102.96 529.202L102.24 529.202L102.24 532.082L101.52 532.082L101.52 540.722L102.24 540.722L102.24 543.602L102.96 543.602L102.96 545.762L103.68 545.762L103.68 547.202L104.4 547.202L104.4 548.642L105.12 548.642L105.12 549.362L105.84 549.362L105.84 550.802L106.56 550.802L106.56 551.522L107.28 551.522L107.28 552.242L108 552.242L108 552.962L108.72 552.962L108.72 553.682L109.44 553.682L109.44 554.402L110.16 554.402L110.16 555.122L110.88 555.122L110.88 555.842L111.6 555.842L111.6 556.562L113.04 556.562L113.04 557.282L114.48 557.282L114.48 558.002L115.92 558.002L115.92 558.722L117.36 558.722L117.36 559.442L119.52 559.442L119.52 560.162L125.28 560.162L125.28 560.882L126 560.882L126 560.162L129.6 560.162L129.6 560.882L131.04 560.882L131.04 560.162L134.641 560.162L134.641 560.882L136.081 560.882L136.081 560.162L139.681 560.162L139.681 560.882L140.401 560.882L140.401 560.162L144.001 560.162L144.001 560.882L145.441 560.882L145.441 560.162L149.041 560.162L149.041 560.882L150.481 560.882L150.481 560.162L154.081 560.162L154.081 560.882L154.801 560.882L154.801 560.162L158.401 560.162L158.401 560.882L159.841 560.882L159.841 560.162L163.441 560.162L163.441 560.882L164.881 560.882L164.881 560.162L168.481 560.162L168.481 560.882L169.201 560.882L169.201 560.162L172.801 560.162L172.801 560.882L174.241 560.882L174.241 560.162L177.841 560.162L177.841 560.882L179.281 560.882L179.281 560.162L182.881 560.162L182.881 560.882L183.601 560.882L183.601 560.162L189.361 560.162L189.361 559.442L191.521 559.442L191.521 558.722L192.961 558.722L192.961 558.002L194.401 558.002L194.401 557.282L195.841 557.282L195.841 556.562L197.281 556.562L197.281 555.842L198.001 555.842L198.001 555.122L198.721 555.122L198.721 554.402L199.441 554.402L199.441 553.682L200.161 553.682L200.161 552.962L200.881 552.962L200.881 552.242L201.601 552.242L201.601 551.522L202.321 551.522L202.321 550.802L203.041 550.802L203.041 549.362L203.761 549.362L203.761 548.642L204.481 548.642L204.481 547.202L205.201 547.202L205.201 545.042L205.921 545.042L205.921 543.602L206.641 543.602L206.641 540.002L207.361 540.002L207.361 532.802L206.641 532.802L206.641 529.202L205.921 529.202L205.921 527.762L205.201 527.762L205.201 525.602L204.481 525.602L204.481 524.162L203.761 524.162L203.761 523.442L203.041 523.442L203.041 522.002L202.321 522.002L202.321 521.282L201.601 521.282L201.601 520.562L200.881 520.562L200.881 519.842L200.161 519.842L200.161 519.122L199.441 519.122L199.441 518.402L198.721 518.402L198.721 517.682L198.001 517.682L198.001 516.962L197.281 516.962L197.281 516.242L195.841 516.242L195.841 515.522L194.401 515.522L194.401 514.802L192.961 514.802L192.961 514.082L191.521 514.082L191.521 513.362L189.361 513.362L189.361 512.642L183.601 512.642L183.601 511.922L182.881 511.922L182.881 512.642L179.281 512.642L179.281 511.922L177.841 511.922L177.841 512.642L174.241 512.642L174.241 511.922L172.801 511.922L172.801 512.642L169.201 512.642L169.201 511.922L168.481 511.922L168.481 512.642L164.881 512.642L164.881 511.922L163.441 511.922L163.441 512.642L159.841 512.642L159.841 511.922L158.401 511.922L158.401 512.642L154.801 512.642L154.801 511.922L154.081 511.922L154.081 512.642L150.481 512.642L150.481 511.922L149.041 511.922L149.041 512.642L145.441 512.642L145.441 511.922L144.001 511.922L144.001 512.642L140.401 512.642L140.401 511.922L139.681 511.922L139.681 512.642L136.081 512.642L136.081 511.922L134.641 511.922L134.641 512.642L131.04 512.642L131.04 511.922L129.6 511.922L129.6 512.642L126 512.642L126 511.922L125.28 511.922"/><path id="shape1" transform="translate(0.720002686571311, 0)" fill="none" stroke="#000000" stroke-width="1.44000537314262" stroke-linecap="square" stroke-linejoin="miter" stroke-miterlimit="2" d="M151.921 0L151.921 0.720003L140.401 0.720003L140.401 1.44001L134.641 1.44001L134.641 2.16001L129.6 2.16001L129.6 2.88001L126 2.88001L126 3.60001L122.4 3.60001L122.4 4.32002L119.52 4.32002L119.52 5.04002L116.64 5.04002L116.64 5.76002L113.76 5.76002L113.76 6.48002L110.88 6.48002L110.88 7.20003L108.72 7.20003L108.72 7.92003L106.56 7.92003L106.56 8.64003L104.4 8.64003L104.4 9.36003L102.24 9.36003L102.24 10.08L100.8 10.08L100.8 10.8L98.6404 10.8L98.6404 11.52L97.2004 11.52L97.2004 12.24L95.0404 12.24L95.0404 12.96L93.6003 12.96L93.6003 13.6801L92.1603 13.6801L92.1603 14.4001L90.0003 14.4001L90.0003 15.1201L88.5603 15.1201L88.5603 15.8401L87.1203 15.8401L87.1203 16.5601L85.6803 16.5601L85.6803 17.2801L84.2403 17.2801L84.2403 18.0001L82.8003 18.0001L82.8003 18.7201L81.3603 18.7201L81.3603 19.4401L80.6403 19.4401L80.6403 20.1601L79.2003 20.1601L79.2003 20.8801L77.7603 20.8801L77.7603 21.6001L76.3203 21.6001L76.3203 22.3201L75.6003 22.3201L75.6003 23.0401L74.1603 23.0401L74.1603 23.7601L72.7203 23.7601L72.7203 24.4801L72.0003 24.4801L72.0003 25.2001L70.5603 25.2001L70.5603 25.9201L69.8403 25.9201L69.8403 26.6401L68.4003 26.6401L68.4003 27.3601L67.6803 27.3601L67.6803 28.0801L66.2402 28.0801L66.2402 28.8001L65.5202 28.8001L65.5202 29.5201L64.8002 29.5201L64.8002 30.2401L63.3602 30.2401L63.3602 30.9601L62.6402 30.9601L62.6402 31.6801L61.9202 31.6801L61.9202 32.4001L60.4802 32.4001L60.4802 33.1201L59.7602 33.1201L59.7602 33.8401L59.0402 33.8401L59.0402 34.5601L57.6002 34.5601L57.6002 35.2801L56.8802 35.2801L56.8802 36.0001L56.1602 36.0001L56.1602 36.7201L55.4402 36.7201L55.4402 37.4401L54.7202 37.4401L54.7202 38.1601L53.2802 38.1601L53.2802 38.8801L52.5602 38.8801L52.5602 39.6001L51.8402 39.6001L51.8402 40.3202L51.1202 40.3202L51.1202 41.0402L50.4002 41.0402L50.4002 41.7602L49.6802 41.7602L49.6802 42.4802L48.9602 42.4802L48.9602 43.2002L48.2402 43.2002L48.2402 43.9202L47.5202 43.9202L47.5202 44.6402L46.8002 44.6402L46.8002 45.3602L46.0802 45.3602L46.0802 46.0802L45.3602 46.0802L45.3602 46.8002L44.6402 46.8002L44.6402 47.5202L43.9202 47.5202L43.9202 48.2402L43.2002 48.2402L43.2002 48.9602L42.4802 48.9602L42.4802 49.6802L41.7602 49.6802L41.7602 50.4002L41.0402 50.4002L41.0402 51.1202L40.3202 51.1202L40.3202 51.8402L39.6001 51.8402L39.6001 52.5602L38.8801 52.5602L38.8801 53.2802L38.1601 53.2802L38.1601 54.7202L37.4401 54.7202L37.4401 55.4402L36.7201 55.4402L36.7201 56.1602L36.0001 56.1602L36.0001 56.8802L35.2801 56.8802L35.2801 57.6002L34.5601 57.6002L34.5601 59.0402L33.8401 59.0402L33.8401 59.7602L33.1201 59.7602L33.1201 60.4802L32.4001 60.4802L32.4001 61.2002L31.6801 61.2002L31.6801 62.6402L30.9601 62.6402L30.9601 63.3602L30.2401 63.3602L30.2401 64.0802L29.5201 64.0802L29.5201 65.5202L28.8001 65.5202L28.8001 66.2402L28.0801 66.2402L28.0801 67.6803L27.3601 67.6803L27.3601 68.4003L26.6401 68.4003L26.6401 69.8403L25.9201 69.8403L25.9201 70.5603L25.2001 70.5603L25.2001 72.0003L24.4801 72.0003L24.4801 72.7203L23.7601 72.7203L23.7601 74.1603L23.0401 74.1603L23.0401 74.8803L22.3201 74.8803L22.3201 76.3203L21.6001 76.3203L21.6001 77.7603L20.8801 77.7603L20.8801 78.4803L20.1601 78.4803L20.1601 79.9203L19.4401 79.9203L19.4401 81.3603L18.7201 81.3603L18.7201 82.8003L18.0001 82.8003L18.0001 84.2403L17.2801 84.2403L17.2801 85.6803L16.5601 85.6803L16.5601 87.1203L15.8401 87.1203L15.8401 88.5603L15.1201 88.5603L15.1201 90.0003L14.4001 90.0003L14.4001 91.4403L13.6801 91.4403L13.6801 92.8803L12.96 92.8803L12.96 95.0404L12.24 95.0404L12.24 96.4804L11.52 96.4804L11.52 97.9204L10.8 97.9204L10.8 100.08L10.08 100.08L10.08 102.24L9.36003 102.24L9.36003 103.68L8.64003 103.68L8.64003 105.84L7.92003 105.84L7.92003 108L7.20003 108L7.20003 110.16L6.48002 110.16L6.48002 113.04L5.76002 113.04L5.76002 115.2L5.04002 115.2L5.04002 118.08L4.32002 118.08L4.32002 120.96L3.60001 120.96L3.60001 124.56L2.88001 124.56L2.88001 128.16L2.16001 128.16L2.16001 132.48L1.44001 132.48L1.44001 137.521L0.720003 137.521L0.720003 144.721L0 144.721L0 167.761L0.720003 167.761L0.720003 174.961L1.44001 174.961L1.44001 180.001L2.16001 180.001L2.16001 184.321L2.88001 184.321L2.88001 187.921L3.60001 187.921L3.60001 191.521L4.32002 191.521L4.32002 194.401L5.04002 194.401L5.04002 197.281L5.76002 197.281L5.76002 199.441L6.48002 199.441L6.48002 202.321L7.20003 202.321L7.20003 204.481L7.92003 204.481L7.92003 206.641L8.64003 206.641L8.64003 208.801L9.36003 208.801L9.36003 210.241L10.08 210.241L10.08 212.401L10.8 212.401L10.8 214.561L11.52 214.561L11.52 216.001L12.24 216.001L12.24 217.441L12.96 217.441L12.96 219.601L13.6801 219.601L13.6801 221.041L14.4001 221.041L14.4001 222.481L15.1201 222.481L15.1201 223.921L15.8401 223.921L15.8401 225.361L16.5601 225.361L16.5601 226.801L17.2801 226.801L17.2801 228.241L18.0001 228.241L18.0001 228.961L18.7201 228.961L18.7201 230.401L19.4401 230.401L19.4401 232.561L20.1601 232.561L20.1601 234.001L20.8801 234.001L20.8801 235.441L21.6001 235.441L21.6001 236.161L22.3201 236.161L22.3201 237.601L23.0401 237.601L23.0401 239.041L23.7601 239.041L23.7601 240.481L24.4801 240.481L24.4801 241.201L25.2001 241.201L25.2001 242.641L25.9201 242.641L25.9201 243.361L26.6401 243.361L26.6401 244.801L27.3601 244.801L27.3601 245.521L28.0801 245.521L28.0801 246.961L28.8001 246.961L28.8001 248.401L29.5201 248.401L29.5201 249.841L30.2401 249.841L30.2401 252.001L30.9601 252.001L30.9601 254.161L31.6801 254.161L31.6801 254.881L32.4001 254.881L32.4001 255.601L33.1201 255.601L33.1201 257.041L33.8401 257.041L33.8401 257.761L34.5601 257.761L34.5601 259.201L35.2801 259.201L35.2801 259.921L36.0001 259.921L36.0001 261.361L36.7201 261.361L36.7201 263.521L37.4401 263.521L37.4401 264.961L38.1601 264.961L38.1601 265.681L38.8801 265.681L38.8801 267.121L39.6001 267.121L39.6001 268.561L40.3202 268.561L40.3202 269.281L41.0402 269.281L41.0402 270.001L41.7602 270.001L41.7602 270.721L42.4802 270.721L42.4802 271.441L43.2002 271.441L43.2002 272.881L43.9202 272.881L43.9202 273.601L44.6402 273.601L44.6402 275.041L45.3602 275.041L45.3602 275.761L46.0802 275.761L46.0802 277.201L46.8002 277.201L46.8002 279.361L47.5202 279.361L47.5202 280.801L48.2402 280.801L48.2402 281.521L48.9602 281.521L48.9602 282.961L49.6802 282.961L49.6802 284.401L50.4002 284.401L50.4002 285.841L51.1202 285.841L51.1202 287.281L51.8402 287.281L51.8402 288.721L52.5602 288.721L52.5602 290.881L53.2802 290.881L53.2802 292.321L54.0002 292.321L54.0002 295.201L54.7202 295.201L54.7202 297.361L55.4402 297.361L55.4402 300.241L56.1602 300.241L56.1602 302.401L56.8802 302.401L56.8802 304.561L57.6002 304.561L57.6002 307.441L58.3202 307.441L58.3202 309.601L59.0402 309.601L59.0402 311.041L59.7602 311.041L59.7602 312.481L60.4802 312.481L60.4802 314.641L61.2002 314.641L61.2002 316.801L61.9202 316.801L61.9202 322.561L62.6402 322.561L62.6402 324.721L63.3602 324.721L63.3602 326.881L64.0802 326.881L64.0802 329.761L64.8002 329.761L64.8002 332.641L65.5202 332.641L65.5202 335.521L66.2402 335.521L66.2402 338.401L66.9602 338.401L66.9602 346.321L67.6803 346.321L67.6803 348.481L68.4003 348.481L68.4003 351.361L69.1203 351.361L69.1203 353.521L69.8403 353.521L69.8403 358.561L70.5603 358.561L70.5603 360.721L69.8403 360.721L69.8403 361.441L70.5603 361.441L70.5603 364.321L71.2803 364.321L71.2803 389.521L72.0003 389.521L72.0003 392.401L72.7203 392.401L72.7203 403.202L73.4403 403.202L73.4403 406.802L74.1603 406.802L74.1603 408.962L74.8803 408.962L74.8803 411.122L75.6003 411.122L75.6003 412.562L76.3203 412.562L76.3203 414.002L77.0403 414.002L77.0403 414.722L77.7603 414.722L77.7603 416.162L78.4803 416.162L78.4803 416.882L79.2003 416.882L79.2003 418.322L79.9203 418.322L79.9203 419.042L80.6403 419.042L80.6403 419.762L81.3603 419.762L81.3603 420.482L82.0803 420.482L82.0803 421.202L83.5203 421.202L83.5203 421.922L84.2403 421.922L84.2403 422.642L84.9603 422.642L84.9603 423.362L85.6803 423.362L85.6803 424.082L86.4003 424.082L86.4003 424.802L87.8403 424.802L87.8403 425.522L88.5603 425.522L88.5603 426.242L90.0003 426.242L90.0003 426.962L91.4403 426.962L91.4403 427.682L92.8803 427.682L92.8803 428.402L94.3204 428.402L94.3204 429.122L96.4804 429.122L96.4804 429.842L100.8 429.842L100.8 430.562L167.761 430.562L167.761 429.842C170.401 429.842 173.041 429.842 175.681 429.842L175.681 429.122L178.561 429.122L178.561 428.402L182.161 428.402L182.161 427.682L185.761 427.682L185.761 426.962L188.641 426.962L188.641 426.242L196.561 426.242L196.561 425.522L200.161 425.522L200.161 424.802L203.761 424.802L203.761 424.082L210.961 424.082L210.961 423.362L214.561 423.362L214.561 422.642L217.441 422.642L217.441 421.922L219.601 421.922L219.601 421.202L226.081 421.202L226.081 420.482L229.681 420.482L229.681 419.762L231.841 419.762L231.841 419.042L233.281 419.042L233.281 418.322L234.721 418.322L234.721 417.602L236.161 417.602L236.161 416.882L237.601 416.882L237.601 416.162L238.321 416.162L238.321 415.442L239.041 415.442L239.041 414.722L239.761 414.722L239.761 414.002L241.201 414.002L241.201 413.282L241.921 413.282L241.921 412.562L242.641 412.562L242.641 411.122L243.361 411.122L243.361 410.402L244.081 410.402L244.081 409.682L244.801 409.682L244.801 408.242L245.521 408.242L245.521 407.522L246.241 407.522L246.241 406.082L246.961 406.082L246.961 404.642L247.681 404.642L247.681 402.482L248.401 402.482L248.401 400.321L249.121 400.321L249.121 396.001L249.841 396.001L249.841 381.601L250.561 381.601L250.561 378.721L251.281 378.721L251.281 375.121L252.001 375.121L252.001 367.201L252.721 367.201L252.721 365.041L253.441 365.041L253.441 361.441L254.161 361.441L254.161 336.241L254.881 336.241L254.881 334.081L255.601 334.081L255.601 329.761L256.321 329.761L256.321 321.841L257.041 321.841L257.041 319.681L257.761 319.681L257.761 316.081L258.481 316.081L258.481 311.761L259.201 311.761L259.201 308.881L259.921 308.881L259.921 305.281L260.641 305.281L260.641 303.841L261.361 303.841L261.361 300.961L262.081 300.961L262.081 296.641L262.801 296.641L262.801 295.201L263.521 295.201L263.521 292.321L264.241 292.321L264.241 288.721L264.961 288.721L264.961 285.841L265.681 285.841L265.681 284.401L266.401 284.401L266.401 282.241L267.121 282.241L267.121 280.081L267.841 280.081L267.841 277.921L268.561 277.921L268.561 276.481L269.281 276.481L269.281 275.761L270.001 275.761L270.001 274.321L270.721 274.321L270.721 272.881L271.441 272.881L271.441 270.721L272.161 270.721L272.161 268.561L272.881 268.561L272.881 265.681L273.601 265.681L273.601 264.961L274.321 264.961L274.321 264.241L275.041 264.241L275.041 262.801L275.761 262.801L275.761 261.361L276.481 261.361L276.481 259.921L277.201 259.921L277.201 257.761L277.921 257.761L277.921 254.881L278.641 254.881L278.641 254.161L279.361 254.161L279.361 252.721L280.081 252.721L280.081 252.001L280.801 252.001L280.801 250.561L281.521 250.561L281.521 249.121L282.241 249.121L282.241 247.681L282.961 247.681L282.961 246.241L283.681 246.241L283.681 245.521L284.401 245.521L284.401 244.081L285.121 244.081L285.121 242.641L285.841 242.641L285.841 241.921L286.561 241.921L286.561 240.481L287.281 240.481L287.281 239.761L288.001 239.761L288.001 238.321L288.721 238.321L288.721 237.601L289.441 237.601L289.441 236.161L290.161 236.161L290.161 234.721L290.881 234.721L290.881 234.001L291.601 234.001L291.601 232.561L292.321 232.561L292.321 231.121L293.041 231.121L293.041 229.681L293.761 229.681L293.761 228.241L294.481 228.241L294.481 226.801L295.201 226.801L295.201 225.361L295.921 225.361L295.921 223.921L296.641 223.921L296.641 222.481L297.361 222.481L297.361 221.041L298.081 221.041L298.081 219.601L298.801 219.601L298.801 217.441L299.521 217.441L299.521 216.001L300.241 216.001L300.241 214.561L300.961 214.561L300.961 212.401L301.681 212.401L301.681 210.961L302.401 210.961L302.401 208.801L303.121 208.801L303.121 206.641L303.841 206.641L303.841 204.481L304.561 204.481L304.561 202.321L305.281 202.321L305.281 199.441L306.001 199.441L306.001 197.281L306.721 197.281L306.721 194.401L307.441 194.401L307.441 191.521L308.161 191.521L308.161 187.921L308.881 187.921L308.881 184.321L309.601 184.321L309.601 180.001L310.321 180.001L310.321 174.961L311.041 174.961L311.041 167.761L311.761 167.761L311.761 144.721L311.041 144.721L311.041 137.521L310.321 137.521L310.321 132.48L309.601 132.48L309.601 128.16L308.881 128.16L308.881 124.56L308.161 124.56L308.161 120.96L307.441 120.96L307.441 118.08L306.721 118.08L306.721 115.2L306.001 115.2L306.001 113.04L305.281 113.04L305.281 110.16L304.561 110.16L304.561 108L303.841 108L303.841 105.84L303.121 105.84L303.121 103.68L302.401 103.68L302.401 102.24L301.681 102.24L301.681 100.08L300.961 100.08L300.961 97.9204L300.241 97.9204L300.241 96.4804L299.521 96.4804L299.521 95.0404L298.801 95.0404L298.801 92.8803L298.081 92.8803L298.081 91.4403L297.361 91.4403L297.361 90.0003L296.641 90.0003L296.641 88.5603L295.921 88.5603L295.921 87.1203L295.201 87.1203L295.201 85.6803L294.481 85.6803L294.481 84.2403L293.761 84.2403L293.761 82.8003L293.041 82.8003L293.041 81.3603L292.321 81.3603L292.321 79.9203L291.601 79.9203L291.601 78.4803L290.881 78.4803L290.881 77.7603L290.161 77.7603L290.161 76.3203L289.441 76.3203L289.441 74.8803L288.721 74.8803L288.721 74.1603L288.001 74.1603L288.001 72.7203L287.281 72.7203L287.281 72.0003L286.561 72.0003L286.561 70.5603L285.841 70.5603L285.841 69.8403L285.121 69.8403L285.121 68.4003L284.401 68.4003L284.401 67.6803L283.681 67.6803L283.681 66.2402L282.961 66.2402L282.961 65.5202L282.241 65.5202L282.241 64.0802L281.521 64.0802L281.521 63.3602L280.801 63.3602L280.801 62.6402L280.081 62.6402L280.081 61.2002L279.361 61.2002L279.361 60.4802L278.641 60.4802L278.641 59.7602L277.921 59.7602L277.921 59.0402L277.201 59.0402L277.201 57.6002L276.481 57.6002L276.481 56.8802L275.761 56.8802L275.761 56.1602L275.041 56.1602L275.041 55.4402L274.321 55.4402L274.321 54.7202L273.601 54.7202L273.601 53.2802L272.881 53.2802L272.881 52.5602L272.161 52.5602L272.161 51.8402L271.441 51.8402L271.441 51.1202L270.721 51.1202L270.721 50.4002L270.001 50.4002L270.001 49.6802L269.281 49.6802L269.281 48.9602L268.561 48.9602L268.561 48.2402L267.841 48.2402L267.841 47.5202L267.121 47.5202L267.121 46.8002L266.401 46.8002L266.401 46.0802L265.681 46.0802L265.681 45.3602L264.961 45.3602L264.961 44.6402L264.241 44.6402L264.241 43.9202L263.521 43.9202L263.521 43.2002L262.801 43.2002L262.801 42.4802L262.081 42.4802L262.081 41.7602L261.361 41.7602L261.361 41.0402L260.641 41.0402L260.641 40.3202L259.921 40.3202L259.921 39.6001L259.201 39.6001L259.201 38.8801L258.481 38.8801L258.481 38.1601L257.041 38.1601L257.041 37.4401L256.321 37.4401L256.321 36.7201L255.601 36.7201L255.601 36.0001L254.881 36.0001L254.881 35.2801L254.161 35.2801L254.161 34.5601L252.721 34.5601L252.721 33.8401L252.001 33.8401L252.001 33.1201L251.281 33.1201L251.281 32.4001L249.841 32.4001L249.841 31.6801L249.121 31.6801L249.121 30.9601L248.401 30.9601L248.401 30.2401L246.961 30.2401L246.961 29.5201L246.241 29.5201L246.241 28.8001L245.521 28.8001L245.521 28.0801L244.081 28.0801L244.081 27.3601L243.361 27.3601L243.361 26.6401L241.921 26.6401L241.921 25.9201L241.201 25.9201L241.201 25.2001L239.761 25.2001L239.761 24.4801L239.041 24.4801L239.041 23.7601L237.601 23.7601L237.601 23.0401L236.161 23.0401L236.161 22.3201L235.441 22.3201L235.441 21.6001L234.001 21.6001L234.001 20.8801L232.561 20.8801L232.561 20.1601L231.121 20.1601L231.121 19.4401L230.401 19.4401L230.401 18.7201L228.961 18.7201L228.961 18.0001L227.521 18.0001L227.521 17.2801L226.081 17.2801L226.081 16.5601L224.641 16.5601L224.641 15.8401L223.201 15.8401L223.201 15.1201L221.761 15.1201L221.761 14.4001L219.601 14.4001L219.601 13.6801L218.161 13.6801L218.161 12.96L216.721 12.96L216.721 12.24L214.561 12.24L214.561 11.52L213.121 11.52L213.121 10.8L210.961 10.8L210.961 10.08L209.521 10.08L209.521 9.36003L207.361 9.36003L207.361 8.64003L205.201 8.64003L205.201 7.92003L203.041 7.92003L203.041 7.20003L200.881 7.20003L200.881 6.48002L198.001 6.48002L198.001 5.76002L195.121 5.76002L195.121 5.04002L192.241 5.04002L192.241 4.32002L189.361 4.32002L189.361 3.60001L185.761 3.60001L185.761 2.88001L182.161 2.88001L182.161 2.16001L177.121 2.16001L177.121 1.44001L171.361 1.44001L171.361 0.720003L159.841 0.720003L159.841 0L151.921 0M107.28 449.282L107.28 450.002L101.52 450.002L101.52 450.722L99.3604 450.722L99.3604 451.442L97.9204 451.442L97.9204 452.162L96.4804 452.162L96.4804 452.882L95.0404 452.882L95.0404 453.602L93.6003 453.602L93.6003 454.322L92.8803 454.322L92.8803 455.042L92.1603 455.042L92.1603 455.762L91.4403 455.762L91.4403 456.482L90.7203 456.482L90.7203 457.202L90.0003 457.202L90.0003 457.922L89.2803 457.922L89.2803 458.642L88.5603 458.642L88.5603 459.362L87.8403 459.362L87.8403 460.802L87.1203 460.802L87.1203 461.522L86.4003 461.522L86.4003 462.962L85.6803 462.962L85.6803 464.402L84.9603 464.402L84.9603 466.562L84.2403 466.562L84.2403 469.442L83.5203 469.442L83.5203 478.082L84.2403 478.082L84.2403 480.962L84.9603 480.962L84.9603 483.122L85.6803 483.122L85.6803 484.562L86.4003 484.562L86.4003 486.002L87.1203 486.002L87.1203 486.722L87.8403 486.722L87.8403 488.162L88.5603 488.162L88.5603 488.882L89.2803 488.882L89.2803 489.602L90.0003 489.602L90.0003 490.322L90.7203 490.322L90.7203 491.042L91.4403 491.042L91.4403 491.762L92.1603 491.762L92.1603 492.482L92.8803 492.482L92.8803 493.202L93.6003 493.202L93.6003 493.922L95.0404 493.922L95.0404 494.642L96.4804 494.642L96.4804 495.362L97.9204 495.362L97.9204 496.082L99.3604 496.082L99.3604 496.802L101.52 496.802L101.52 497.522L107.28 497.522L107.28 498.242L108 498.242L108 497.522L111.6 497.522L111.6 498.242L113.04 498.242L113.04 497.522L116.64 497.522L116.64 498.242L118.08 498.242L118.08 497.522L121.68 497.522L121.68 498.242L122.4 498.242L122.4 497.522L126 497.522L126 498.242L127.44 498.242L127.44 497.522L131.04 497.522L131.04 498.242L132.48 498.242L132.48 497.522L136.081 497.522L136.081 498.242L136.801 498.242L136.801 497.522L140.401 497.522L140.401 498.242L141.841 498.242L141.841 497.522L145.441 497.522L145.441 498.242L146.881 498.242L146.881 497.522L150.481 497.522L150.481 498.242L151.201 498.242L151.201 497.522L154.801 497.522L154.801 498.242L156.241 498.242L156.241 497.522L159.841 497.522L159.841 498.242L161.281 498.242L161.281 497.522L164.881 497.522L164.881 498.242L165.601 498.242L165.601 497.522L169.201 497.522L169.201 498.242L170.641 498.242L170.641 497.522L174.241 497.522L174.241 498.242L175.681 498.242L175.681 497.522L178.561 497.522L178.561 498.242L180.001 498.242L180.001 497.522L183.601 497.522L183.601 498.242L185.041 498.242L185.041 497.522L188.641 497.522L188.641 498.242L190.081 498.242L190.081 497.522L192.961 497.522L192.961 498.242L194.401 498.242L194.401 497.522L198.001 497.522L198.001 498.242L199.441 498.242L199.441 497.522L203.041 497.522L203.041 498.242L203.761 498.242L203.761 497.522L207.361 497.522L207.361 498.242L208.801 498.242L208.801 497.522L212.401 497.522L212.401 498.242L213.841 498.242L213.841 497.522L218.881 497.522L218.881 496.802L221.041 496.802L221.041 496.082L223.201 496.082L223.201 495.362L224.641 495.362L224.641 494.642L226.081 494.642L226.081 493.922L226.801 493.922L226.801 493.202L227.521 493.202L227.521 492.482L228.961 492.482L228.961 491.762L229.681 491.762L229.681 491.042L230.401 491.042L230.401 490.322L231.121 490.322L231.121 489.602L231.841 489.602L231.841 488.162L232.561 488.162L232.561 487.442L233.281 487.442L233.281 486.722L234.001 486.722L234.001 485.282L234.721 485.282L234.721 483.842L235.441 483.842L235.441 481.682L236.161 481.682L236.161 479.522L236.881 479.522L236.881 468.002L236.161 468.002L236.161 465.842L235.441 465.842L235.441 463.682L234.721 463.682L234.721 462.242L234.001 462.242L234.001 460.802L233.281 460.802L233.281 460.082L232.561 460.082L232.561 459.362L231.841 459.362L231.841 457.922L231.121 457.922L231.121 457.202L230.401 457.202L230.401 456.482L229.681 456.482L229.681 455.762L228.961 455.762L228.961 455.042L227.521 455.042L227.521 454.322L226.801 454.322L226.801 453.602L226.081 453.602L226.081 452.882L224.641 452.882L224.641 452.162L223.201 452.162L223.201 451.442L221.041 451.442L221.041 450.722L218.881 450.722L218.881 450.002L213.841 450.002L213.841 449.282L212.401 449.282L212.401 450.002L208.801 450.002L208.801 449.282L207.361 449.282L207.361 450.002L203.761 450.002L203.761 449.282L203.041 449.282L203.041 450.002L199.441 450.002L199.441 449.282L198.001 449.282L198.001 450.002L194.401 450.002L194.401 449.282L192.961 449.282L192.961 450.002L190.081 450.002L190.081 449.282L188.641 449.282L188.641 450.002L185.041 450.002L185.041 449.282L183.601 449.282L183.601 450.002L180.001 450.002L180.001 449.282L178.561 449.282L178.561 450.002L175.681 450.002L175.681 449.282L174.241 449.282L174.241 450.002L170.641 450.002L170.641 449.282L169.201 449.282L169.201 450.002L165.601 450.002L165.601 449.282L164.881 449.282L164.881 450.002L161.281 450.002L161.281 449.282L159.841 449.282L159.841 450.002L156.241 450.002L156.241 449.282L154.801 449.282L154.801 450.002L151.201 450.002L151.201 449.282L150.481 449.282L150.481 450.002L146.881 450.002L146.881 449.282L145.441 449.282L145.441 450.002L141.841 450.002L141.841 449.282L140.401 449.282L140.401 450.002L136.801 450.002L136.801 449.282L136.081 449.282L136.081 450.002L132.48 450.002L132.48 449.282L131.04 449.282L131.04 450.002L127.44 450.002L127.44 449.282L126 449.282L126 450.002L122.4 450.002L122.4 449.282L121.68 449.282L121.68 450.002L118.08 450.002L118.08 449.282L116.64 449.282L116.64 450.002L113.04 450.002L113.04 449.282L111.6 449.282L111.6 450.002L108 450.002L108 449.282L107.28 449.282M124.56 511.922L124.56 512.642L118.8 512.642L118.8 513.362L116.64 513.362L116.64 514.082L115.2 514.082L115.2 514.802L113.76 514.802L113.76 515.522L112.32 515.522L112.32 516.242L110.88 516.242L110.88 516.962L110.16 516.962L110.16 517.682L109.44 517.682L109.44 518.402L108.72 518.402L108.72 519.122L108 519.122L108 519.842L107.28 519.842L107.28 520.562L106.56 520.562L106.56 521.282L105.84 521.282L105.84 522.002L105.12 522.002L105.12 523.442L104.4 523.442L104.4 524.162L103.68 524.162L103.68 525.602L102.96 525.602L102.96 527.042L102.24 527.042L102.24 529.202L101.52 529.202L101.52 532.082L100.8 532.082L100.8 540.722L101.52 540.722L101.52 543.602L102.24 543.602L102.24 545.762L102.96 545.762L102.96 547.202L103.68 547.202L103.68 548.642L104.4 548.642L104.4 549.362L105.12 549.362L105.12 550.802L105.84 550.802L105.84 551.522L106.56 551.522L106.56 552.242L107.28 552.242L107.28 552.962L108 552.962L108 553.682L108.72 553.682L108.72 554.402L109.44 554.402L109.44 555.122L110.16 555.122L110.16 555.842L110.88 555.842L110.88 556.562L112.32 556.562L112.32 557.282L113.76 557.282L113.76 558.002L115.2 558.002L115.2 558.722L116.64 558.722L116.64 559.442L118.8 559.442L118.8 560.162L124.56 560.162L124.56 560.882L125.28 560.882L125.28 560.162L128.88 560.162L128.88 560.882L130.32 560.882L130.32 560.162L133.92 560.162L133.92 560.882L135.361 560.882L135.361 560.162L138.961 560.162L138.961 560.882L139.681 560.882L139.681 560.162L143.281 560.162L143.281 560.882L144.721 560.882L144.721 560.162L148.321 560.162L148.321 560.882L149.761 560.882L149.761 560.162L153.361 560.162L153.361 560.882L154.081 560.882L154.081 560.162L157.681 560.162L157.681 560.882L159.121 560.882L159.121 560.162L162.721 560.162L162.721 560.882L164.161 560.882L164.161 560.162L167.761 560.162L167.761 560.882L168.481 560.882L168.481 560.162L172.081 560.162L172.081 560.882L173.521 560.882L173.521 560.162L177.121 560.162L177.121 560.882L178.561 560.882L178.561 560.162L182.161 560.162L182.161 560.882L182.881 560.882L182.881 560.162L188.641 560.162L188.641 559.442L190.801 559.442L190.801 558.722L192.241 558.722L192.241 558.002L193.681 558.002L193.681 557.282L195.121 557.282L195.121 556.562L196.561 556.562L196.561 555.842L197.281 555.842L197.281 555.122L198.001 555.122L198.001 554.402L198.721 554.402L198.721 553.682L199.441 553.682L199.441 552.962L200.161 552.962L200.161 552.242L200.881 552.242L200.881 551.522L201.601 551.522L201.601 550.802L202.321 550.802L202.321 549.362L203.041 549.362L203.041 548.642L203.761 548.642L203.761 547.202L204.481 547.202L204.481 545.042L205.201 545.042L205.201 543.602L205.921 543.602L205.921 540.002L206.641 540.002L206.641 532.802L205.921 532.802L205.921 529.202L205.201 529.202L205.201 527.762L204.481 527.762L204.481 525.602L203.761 525.602L203.761 524.162L203.041 524.162L203.041 523.442L202.321 523.442L202.321 522.002L201.601 522.002L201.601 521.282L200.881 521.282L200.881 520.562L200.161 520.562L200.161 519.842L199.441 519.842L199.441 519.122L198.721 519.122L198.721 518.402L198.001 518.402L198.001 517.682L197.281 517.682L197.281 516.962L196.561 516.962L196.561 516.242L195.121 516.242L195.121 515.522L193.681 515.522L193.681 514.802L192.241 514.802L192.241 514.082L190.801 514.082L190.801 513.362L188.641 513.362L188.641 512.642L182.881 512.642L182.881 511.922L182.161 511.922L182.161 512.642L178.561 512.642L178.561 511.922L177.121 511.922L177.121 512.642L173.521 512.642L173.521 511.922L172.081 511.922L172.081 512.642L168.481 512.642L168.481 511.922L167.761 511.922L167.761 512.642L164.161 512.642L164.161 511.922L162.721 511.922L162.721 512.642L159.121 512.642L159.121 511.922L157.681 511.922L157.681 512.642L154.081 512.642L154.081 511.922L153.361 511.922L153.361 512.642L149.761 512.642L149.761 511.922L148.321 511.922L148.321 512.642L144.721 512.642L144.721 511.922L143.281 511.922L143.281 512.642L139.681 512.642L139.681 511.922L138.961 511.922L138.961 512.642L135.361 512.642L135.361 511.922L133.92 511.922L133.92 512.642L130.32 512.642L130.32 511.922L128.88 511.922L128.88 512.642L125.28 512.642L125.28 511.922L124.56 511.922"/>
</svg>
