<?xml version="1.0" standalone="no"?>
<!DOCTYPE svg PUBLIC "-//W3C//DTD SVG 20010904//EN" "http://www.w3.org/TR/2001/REC-SVG-20010904/DTD/svg10.dtd">
<!-- Created using Krita: https://krita.org -->
<svg xmlns="http://www.w3.org/2000/svg" 
    xmlns:xlink="http://www.w3.org/1999/xlink"
    xmlns:krita="http://krita.org/namespaces/svg/krita"
    xmlns:sodipodi="http://sodipodi.sourceforge.net/DTD/sodipodi-0.dtd"
    width="737.28pt"
    height="737.28pt"
    viewBox="0 0 737.28 737.28">
<defs/>
<path id="shape0" fill="none" stroke="#000000" stroke-width="1.44" stroke-linecap="square" stroke-linejoin="miter" stroke-miterlimit="2" d="M349.92 77.04L349.92 77.76L343.44 77.76L343.44 78.48L338.4 78.48L338.4 79.2L334.8 79.2L334.8 79.92L331.2 79.92L331.2 80.64L327.6 80.64L327.6 81.36L324.72 81.36L324.72 82.08L322.56 82.08L322.56 82.8L319.68 82.8L319.68 83.52L317.52 83.52L317.52 84.24L315.36 84.24L315.36 84.96L313.2 84.96L313.2 85.68L311.04 85.68L311.04 86.4L308.88 86.4L308.88 87.12L307.44 87.12L307.44 87.84L305.28 87.84L305.28 88.56L303.84 88.56L303.84 89.28L301.68 89.28L301.68 90L300.24 90L300.24 90.72L298.8 90.72L298.8 91.44L297.36 91.44L297.36 92.16L295.92 92.16L295.92 92.88L293.76 92.88L293.76 93.6L293.04 93.6L293.04 94.32L291.6 94.32L291.6 95.04L290.16 95.04L290.16 95.76L288.72 95.76L288.72 96.48L287.28 96.48L287.28 97.2L285.84 97.2L285.84 97.92L285.12 97.92L285.12 98.64L283.68 98.64L283.68 99.36L282.24 99.36L282.24 100.08L281.52 100.08L281.52 100.8L280.08 100.8L280.08 101.52L278.64 101.52L278.64 102.24L277.92 102.24L277.92 102.96L276.48 102.96L276.48 103.68L275.76 103.68L275.76 104.4L274.32 104.4L274.32 105.12L273.6 105.12L273.6 105.84L272.88 105.84L272.88 106.56L271.44 106.56L271.44 107.28L270.72 107.28L270.72 108L270 108L270 108.72L268.56 108.72L268.56 109.44L267.84 109.44L267.84 110.16L267.12 110.16L267.12 110.88L265.68 110.88L265.68 111.6L264.96 111.6L264.96 112.32L264.24 112.32L264.24 113.04L263.52 113.04L263.52 113.76L262.8 113.76L262.8 114.48L261.36 114.48L261.36 115.2L260.64 115.2L260.64 115.92L259.92 115.92L259.92 116.64L259.2 116.64L259.2 117.36L258.48 117.36L258.48 118.08L257.76 118.08L257.76 118.8L257.04 118.8L257.04 119.52L256.32 119.52L256.32 120.24L255.6 120.24L255.6 120.96L254.88 120.96L254.88 121.68L254.16 121.68L254.16 122.4L253.44 122.4L253.44 123.12L252.72 123.12L252.72 123.84L252 123.84L252 124.56L251.28 124.56L251.28 125.28L250.56 125.28L250.56 126L249.84 126L249.84 126.72L249.12 126.72L249.12 127.44L248.4 127.44L248.4 128.16L247.68 128.16L247.68 128.88L246.96 128.88L246.96 129.6L246.24 129.6L246.24 130.32L245.52 130.32L245.52 131.76L244.8 131.76L244.8 132.48L244.08 132.48L244.08 133.2L243.36 133.2L243.36 133.92L242.64 133.92L242.64 134.64L241.92 134.64L241.92 136.08L241.2 136.08L241.2 136.8L240.48 136.8L240.48 137.52L239.76 137.52L239.76 138.24L239.04 138.24L239.04 139.68L238.32 139.68L238.32 140.4L237.6 140.4L237.6 141.12L236.88 141.12L236.88 142.56L236.16 142.56L236.16 143.28L235.44 143.28L235.44 144.72L234.72 144.72L234.72 145.44L234 145.44L234 146.88L233.28 146.88L233.28 147.6L232.56 147.6L232.56 149.04L231.84 149.04L231.84 149.76L231.12 149.76L231.12 151.2L230.4 151.2L230.4 152.64L229.68 152.64L229.68 153.36L228.96 153.36L228.96 154.8L228.24 154.8L228.24 156.24L227.52 156.24L227.52 156.96L226.8 156.96L226.8 158.4L226.08 158.4L226.08 159.84L225.36 159.84L225.36 161.28L224.64 161.28L224.64 162.72L223.92 162.72L223.92 164.16L223.2 164.16L223.2 165.6L222.48 165.6L222.48 167.04L221.76 167.04L221.76 168.48L221.04 168.48L221.04 170.64L220.32 170.64L220.32 172.08L219.6 172.08L219.6 173.52L218.88 173.52L218.88 175.68L218.16 175.68L218.16 177.12L217.44 177.12L217.44 179.28L216.72 179.28L216.72 181.44L216 181.44L216 183.6L215.28 183.6L215.28 185.76L214.56 185.76L214.56 187.92L213.84 187.92L213.84 190.08L213.12 190.08L213.12 192.96L212.4 192.96L212.4 195.84L211.68 195.84L211.68 198.72L210.96 198.72L210.96 202.32L210.24 202.32L210.24 205.92L209.52 205.92L209.52 210.24L208.8 210.24L208.8 216L208.08 216L208.08 224.64L207.36 224.64L207.36 241.92L208.08 241.92L208.08 250.56L208.8 250.56L208.8 256.32L209.52 256.32L209.52 260.64L210.24 260.64L210.24 264.24L210.96 264.24L210.96 267.84L211.68 267.84L211.68 270.72L212.4 270.72L212.4 273.6L213.12 273.6L213.12 276.48L213.84 276.48L213.84 278.64L214.56 278.64L214.56 280.8L215.28 280.8L215.28 282.96L216 282.96L216 285.12L216.72 285.12L216.72 287.28L217.44 287.28L217.44 289.44L218.16 289.44L218.16 290.88L218.88 290.88L218.88 293.04L219.6 293.04L219.6 294.48L220.32 294.48L220.32 295.92L221.04 295.92L221.04 298.08L221.76 298.08L221.76 299.52L222.48 299.52L222.48 300.96L223.2 300.96L223.2 302.4L223.92 302.4L223.92 303.84L224.64 303.84L224.64 305.28L225.36 305.28L225.36 306L226.08 306L226.08 307.44L226.8 307.44L226.8 308.88L227.52 308.88L227.52 311.04L228.24 311.04L228.24 311.76L228.96 311.76L228.96 313.2L229.68 313.2L229.68 314.64L230.4 314.64L230.4 316.08L231.12 316.08L231.12 317.52L231.84 317.52L231.84 318.24L232.56 318.24L232.56 318.96L233.28 318.96L233.28 320.4L234 320.4L234 321.12L234.72 321.12L234.72 322.56L235.44 322.56L235.44 324L236.16 324L236.16 324.72L236.88 324.72L236.88 326.88L237.6 326.88L237.6 329.04L238.32 329.04L238.32 331.2L239.04 331.2L239.04 331.92L239.76 331.92L239.76 332.64L240.48 332.64L240.48 334.08L241.2 334.08L241.2 334.8L241.92 334.8L241.92 336.24L242.64 336.24L242.64 336.96L243.36 336.96L243.36 338.4L244.08 338.4L244.08 339.84L244.8 339.84L244.8 342L245.52 342L245.52 342.72L246.24 342.72L246.24 344.16L246.96 344.16L246.96 345.6L247.68 345.6L247.68 346.32L248.4 346.32L248.4 347.04L249.12 347.04L249.12 347.76L249.84 347.76L249.84 348.48L250.56 348.48L250.56 349.92L251.28 349.92L251.28 350.64L252 350.64L252 351.36L252.72 351.36L252.72 352.8L253.44 352.8L253.44 354.24L254.16 354.24L254.16 355.68L254.88 355.68L254.88 357.84L255.6 357.84L255.6 358.56L256.32 358.56L256.32 360L257.04 360L257.04 361.44L257.76 361.44L257.76 362.88L258.48 362.88L258.48 364.32L259.2 364.32L259.2 365.76L259.92 365.76L259.92 367.92L260.64 367.92L260.64 369.36L261.36 369.36L261.36 371.52L262.08 371.52L262.08 373.68L262.8 373.68L262.8 376.56L263.52 376.56L263.52 378.72L264.24 378.72L264.24 381.6L264.96 381.6L264.96 383.76L265.68 383.76L265.68 385.92L266.4 385.92L266.4 388.08L267.12 388.08L267.12 389.52L267.84 389.52L267.84 390.96L268.56 390.96L268.56 393.12L269.28 393.12L269.28 397.44L270 397.44L270 401.04L270.72 401.04L270.72 403.92L271.44 403.92L271.44 406.08L272.16 406.08L272.16 408.96L272.88 408.96L272.88 412.56L273.6 412.56L273.6 414.72L274.32 414.72L274.32 421.92L275.04 421.92L275.04 425.52L275.76 425.52L275.76 427.68L276.48 427.68L276.48 429.84L277.2 429.84L277.2 433.44L277.92 433.44L277.92 440.64L278.64 440.64L278.64 465.84L279.36 465.84L279.36 468.72L280.08 468.72L280.08 470.88L280.8 470.88L280.8 483.12L281.52 483.12L281.52 486L282.24 486L282.24 487.44L282.96 487.44L282.96 489.6L283.68 489.6L283.68 491.04L284.4 491.04L284.4 491.76L285.12 491.76L285.12 493.2L285.84 493.2L285.84 493.92L286.56 493.92L286.56 494.64L287.28 494.64L287.28 496.08L288 496.08L288 496.8L288.72 496.8L288.72 497.52L289.44 497.52L289.44 498.24L290.16 498.24L290.16 498.96L291.6 498.96L291.6 499.68L292.32 499.68L292.32 500.4L293.04 500.4L293.04 501.12L293.76 501.12L293.76 501.84L294.48 501.84L294.48 502.56L295.92 502.56L295.92 503.28L296.64 503.28L296.64 504L298.08 504L298.08 504.72L299.52 504.72L299.52 505.44L300.96 505.44L300.96 506.16L303.12 506.16L303.12 506.88L305.28 506.88L305.28 507.6L383.04 507.6L383.04 506.88L385.92 506.88L385.92 506.16L388.08 506.16L388.08 505.44L393.84 505.44L393.84 504.72L396 504.72L396 504L398.16 504L398.16 503.28L408.24 503.28L408.24 502.56L411.12 502.56L411.12 501.84L414 501.84L414 501.12L422.64 501.12L422.64 500.4L424.8 500.4L424.8 499.68L426.96 499.68L426.96 498.96L433.44 498.96L433.44 498.24L437.04 498.24L437.04 497.52L439.2 497.52L439.2 496.8L441.36 496.8L441.36 496.08L442.8 496.08L442.8 495.36L444.24 495.36L444.24 494.64L444.96 494.64L444.96 493.92L446.4 493.92L446.4 493.2L447.12 493.2L447.12 492.48L447.84 492.48L447.84 491.76L449.28 491.76L449.28 491.04L450 491.04L450 490.32L450.72 490.32L450.72 489.6L451.44 489.6L451.44 488.16L452.16 488.16L452.16 487.44L452.88 487.44L452.88 486.72L453.6 486.72L453.6 485.28L454.32 485.28L454.32 484.56L455.04 484.56L455.04 483.12L455.76 483.12L455.76 480.96L456.48 480.96L456.48 479.52L457.2 479.52L457.2 476.64L457.92 476.64L457.92 460.08L458.64 460.08L458.64 457.92L459.36 457.92L459.36 455.76L460.08 455.76L460.08 445.68L460.8 445.68L460.8 443.52L461.52 443.52L461.52 441.36L462.24 441.36L462.24 437.04L462.96 437.04L462.96 432.72L462.24 432.72L462.24 414.72L462.96 414.72L462.96 412.56L463.68 412.56L463.68 410.4L464.4 410.4L464.4 405.36L465.12 405.36L465.12 402.48L464.4 402.48L464.4 400.32L465.12 400.32L465.12 398.16L465.84 398.16L465.84 396L466.56 396L466.56 390.96L467.28 390.96L467.28 388.08L468 388.08L468 385.2L468.72 385.2L468.72 382.32L469.44 382.32L469.44 380.16L470.16 380.16L470.16 377.28L470.88 377.28L470.88 373.68L471.6 373.68L471.6 371.52L472.32 371.52L472.32 369.36L473.04 369.36L473.04 365.04L473.76 365.04L473.76 362.88L474.48 362.88L474.48 360.72L475.2 360.72L475.2 358.56L475.92 358.56L475.92 356.4L476.64 356.4L476.64 354.96L477.36 354.96L477.36 353.52L478.08 353.52L478.08 352.8L478.8 352.8L478.8 351.36L479.52 351.36L479.52 349.92L480.24 349.92L480.24 347.76L480.96 347.76L480.96 345.6L481.68 345.6L481.68 342.72L482.4 342.72L482.4 342L483.12 342L483.12 340.56L483.84 340.56L483.84 339.84L484.56 339.84L484.56 338.4L485.28 338.4L485.28 336.24L486 336.24L486 334.08L486.72 334.08L486.72 331.92L487.44 331.92L487.44 331.2L488.16 331.2L488.16 329.76L488.88 329.76L488.88 329.04L489.6 329.04L489.6 327.6L490.32 327.6L490.32 325.44L491.04 325.44L491.04 324L491.76 324L491.76 323.28L492.48 323.28L492.48 321.84L493.2 321.84L493.2 321.12L493.92 321.12L493.92 319.68L494.64 319.68L494.64 318.96L495.36 318.96L495.36 317.52L496.08 317.52L496.08 316.8L496.8 316.8L496.8 315.36L497.52 315.36L497.52 313.92L498.24 313.92L498.24 313.2L498.96 313.2L498.96 311.76L499.68 311.76L499.68 310.32L500.4 310.32L500.4 309.6L501.12 309.6L501.12 308.16L501.84 308.16L501.84 306.72L502.56 306.72L502.56 305.28L503.28 305.28L503.28 303.84L504 303.84L504 302.4L504.72 302.4L504.72 300.96L505.44 300.96L505.44 299.52L506.16 299.52L506.16 298.08L506.88 298.08L506.88 295.92L507.6 295.92L507.6 294.48L508.32 294.48L508.32 293.04L509.04 293.04L509.04 290.88L509.76 290.88L509.76 289.44L510.48 289.44L510.48 287.28L511.2 287.28L511.2 285.12L511.92 285.12L511.92 282.96L512.64 282.96L512.64 280.8L513.36 280.8L513.36 278.64L514.08 278.64L514.08 276.48L514.8 276.48L514.8 273.6L515.52 273.6L515.52 270.72L516.24 270.72L516.24 267.84L516.96 267.84L516.96 264.24L517.68 264.24L517.68 260.64L518.4 260.64L518.4 256.32L519.12 256.32L519.12 250.56L519.84 250.56L519.84 241.92L520.56 241.92L520.56 224.64L519.84 224.64L519.84 216L519.12 216L519.12 210.24L518.4 210.24L518.4 205.92L517.68 205.92L517.68 202.32L516.96 202.32L516.96 198.72L516.24 198.72L516.24 195.84L515.52 195.84L515.52 192.96L514.8 192.96L514.8 190.08L514.08 190.08L514.08 187.92L513.36 187.92L513.36 185.76L512.64 185.76L512.64 183.6L511.92 183.6L511.92 181.44L511.2 181.44L511.2 179.28L510.48 179.28L510.48 177.12L509.76 177.12L509.76 175.68L509.04 175.68L509.04 173.52L508.32 173.52L508.32 172.08L507.6 172.08L507.6 170.64L506.88 170.64L506.88 168.48L506.16 168.48L506.16 167.04L505.44 167.04L505.44 165.6L504.72 165.6L504.72 164.16L504 164.16L504 162.72L503.28 162.72L503.28 161.28L502.56 161.28L502.56 159.84L501.84 159.84L501.84 158.4L501.12 158.4L501.12 156.96L500.4 156.96L500.4 156.24L499.68 156.24L499.68 154.8L498.96 154.8L498.96 153.36L498.24 153.36L498.24 152.64L497.52 152.64L497.52 151.2L496.8 151.2L496.8 149.76L496.08 149.76L496.08 149.04L495.36 149.04L495.36 147.6L494.64 147.6L494.64 146.88L493.92 146.88L493.92 145.44L493.2 145.44L493.2 144.72L492.48 144.72L492.48 143.28L491.76 143.28L491.76 142.56L491.04 142.56L491.04 141.12L490.32 141.12L490.32 140.4L489.6 140.4L489.6 139.68L488.88 139.68L488.88 138.24L488.16 138.24L488.16 137.52L487.44 137.52L487.44 136.8L486.72 136.8L486.72 136.08L486 136.08L486 134.64L485.28 134.64L485.28 133.92L484.56 133.92L484.56 133.2L483.84 133.2L483.84 132.48L483.12 132.48L483.12 131.76L482.4 131.76L482.4 130.32L481.68 130.32L481.68 129.6L480.96 129.6L480.96 128.88L480.24 128.88L480.24 128.16L479.52 128.16L479.52 127.44L478.8 127.44L478.8 126.72L478.08 126.72L478.08 126L477.36 126L477.36 125.28L476.64 125.28L476.64 124.56L475.92 124.56L475.92 123.84L475.2 123.84L475.2 123.12L474.48 123.12L474.48 122.4L473.76 122.4L473.76 121.68L473.04 121.68L473.04 120.96L472.32 120.96L472.32 120.24L471.6 120.24L471.6 119.52L470.88 119.52L470.88 118.8L470.16 118.8L470.16 118.08L469.44 118.08L469.44 117.36L468.72 117.36L468.72 116.64L468 116.64L468 115.92L467.28 115.92L467.28 115.2L466.56 115.2L466.56 114.48L465.12 114.48L465.12 113.76L464.4 113.76L464.4 113.04L463.68 113.04L463.68 112.32L462.96 112.32L462.96 111.6L462.24 111.6L462.24 110.88L460.8 110.88L460.8 110.16L460.08 110.16L460.08 109.44L459.36 109.44L459.36 108.72L457.92 108.72L457.92 108L457.2 108L457.2 107.28L456.48 107.28L456.48 106.56L455.04 106.56L455.04 105.84L454.32 105.84L454.32 105.12L453.6 105.12L453.6 104.4L452.16 104.4L452.16 103.68L451.44 103.68L451.44 102.96L450 102.96L450 102.24L449.28 102.24L449.28 101.52L447.84 101.52L447.84 100.8L446.4 100.8L446.4 100.08L445.68 100.08L445.68 99.36L444.24 99.36L444.24 98.64L442.8 98.64L442.8 97.92L442.08 97.92L442.08 97.2L440.64 97.2L440.64 96.48L439.2 96.48L439.2 95.76L437.76 95.76L437.76 95.04L436.32 95.04L436.32 94.32L434.88 94.32L434.88 93.6L434.16 93.6L434.16 92.88L432 92.88L432 92.16L430.56 92.16L430.56 91.44L429.12 91.44L429.12 90.72L427.68 90.72L427.68 90L426.24 90L426.24 89.28L424.08 89.28L424.08 88.56L422.64 88.56L422.64 87.84L420.48 87.84L420.48 87.12L419.04 87.12L419.04 86.4L416.88 86.4L416.88 85.68L414.72 85.68L414.72 84.96L412.56 84.96L412.56 84.24L410.4 84.24L410.4 83.52L408.24 83.52L408.24 82.8L405.36 82.8L405.36 82.08L403.2 82.08L403.2 81.36L400.32 81.36L400.32 80.64L396.72 80.64L396.72 79.92L393.12 79.92L393.12 79.2L389.52 79.2L389.52 78.48L384.48 78.48L384.48 77.76L378 77.76L378 77.04L349.92 77.04M133.92 83.52L133.92 84.24L131.04 84.24L131.04 84.96L128.88 84.96L128.88 85.68L128.16 85.68L128.16 86.4L126.72 86.4L126.72 87.12L126 87.12L126 87.84L125.28 87.84L125.28 88.56L124.56 88.56L124.56 89.28L123.84 89.28L123.84 90.72L123.12 90.72L123.12 91.44L122.4 91.44L122.4 92.88L121.68 92.88L121.68 95.04L120.96 95.04L120.96 102.24L121.68 102.24L121.68 104.4L122.4 104.4L122.4 105.84L123.12 105.84L123.12 107.28L123.84 107.28L123.84 108L124.56 108L124.56 108.72L125.28 108.72L125.28 109.44L126 109.44L126 110.16L126.72 110.16L126.72 110.88L127.44 110.88L127.44 111.6L128.88 111.6L128.88 112.32L129.6 112.32L129.6 113.04L131.04 113.04L131.04 113.76L132.48 113.76L132.48 114.48L133.92 114.48L133.92 115.2L134.64 115.2L134.64 115.92L136.08 115.92L136.08 116.64L137.52 116.64L137.52 117.36L138.24 117.36L138.24 118.08L139.68 118.08L139.68 118.8L141.12 118.8L141.12 119.52L142.56 119.52L142.56 120.24L143.28 120.24L143.28 120.96L144.72 120.96L144.72 121.68L146.16 121.68L146.16 122.4L147.6 122.4L147.6 123.12L148.32 123.12L148.32 123.84L149.76 123.84L149.76 124.56L151.2 124.56L151.2 125.28L152.64 125.28L152.64 126L153.36 126L153.36 126.72L154.8 126.72L154.8 127.44L156.24 127.44L156.24 128.16L157.68 128.16L157.68 128.88L158.4 128.88L158.4 129.6L159.84 129.6L159.84 130.32L161.28 130.32L161.28 131.04L162 131.04L162 131.76L163.44 131.76L163.44 132.48L164.88 132.48L164.88 133.2L166.32 133.2L166.32 133.92L167.04 133.92L167.04 134.64L168.48 134.64L168.48 135.36L169.92 135.36L169.92 136.08L170.64 136.08L170.64 136.8L172.08 136.8L172.08 137.52L173.52 137.52L173.52 138.24L174.96 138.24L174.96 138.96L175.68 138.96L175.68 139.68L177.12 139.68L177.12 140.4L178.56 140.4L178.56 141.12L180 141.12L180 141.84L180.72 141.84L180.72 142.56L182.16 142.56L182.16 143.28L183.6 143.28L183.6 144L185.04 144L185.04 144.72L185.76 144.72L185.76 145.44L187.2 145.44L187.2 146.16L188.64 146.16L188.64 146.88L190.08 146.88L190.08 147.6L190.8 147.6L190.8 148.32L192.24 148.32L192.24 149.04L194.4 149.04L194.4 149.76L202.32 149.76L202.32 149.04L204.48 149.04L204.48 148.32L205.92 148.32L205.92 147.6L207.36 147.6L207.36 146.88L208.08 146.88L208.08 146.16L208.8 146.16L208.8 145.44L209.52 145.44L209.52 144.72L210.24 144.72L210.24 144L210.96 144L210.96 142.56L211.68 142.56L211.68 141.12L212.4 141.12L212.4 139.68L213.12 139.68L213.12 136.08L213.84 136.08L213.84 133.92L213.12 133.92L213.12 130.32L212.4 130.32L212.4 128.16L211.68 128.16L211.68 126.72L210.96 126.72L210.96 126L210.24 126L210.24 125.28L209.52 125.28L209.52 123.84L208.08 123.84L208.08 123.12L207.36 123.12L207.36 122.4L206.64 122.4L206.64 121.68L205.2 121.68L205.2 120.96L203.76 120.96L203.76 120.24L203.04 120.24L203.04 119.52L201.6 119.52L201.6 118.8L200.16 118.8L200.16 118.08L198.72 118.08L198.72 117.36L198 117.36L198 116.64L196.56 116.64L196.56 115.92L195.12 115.92L195.12 115.2L193.68 115.2L193.68 114.48L192.96 114.48L192.96 113.76L191.52 113.76L191.52 113.04L190.08 113.04L190.08 112.32L189.36 112.32L189.36 111.6L187.92 111.6L187.92 110.88L186.48 110.88L186.48 110.16L185.04 110.16L185.04 109.44L184.32 109.44L184.32 108.72L182.88 108.72L182.88 108L181.44 108L181.44 107.28L180 107.28L180 106.56L179.28 106.56L179.28 105.84L177.84 105.84L177.84 105.12L176.4 105.12L176.4 104.4L174.96 104.4L174.96 103.68L174.24 103.68L174.24 102.96L172.8 102.96L172.8 102.24L171.36 102.24L171.36 101.52L170.64 101.52L170.64 100.8L169.2 100.8L169.2 100.08L167.76 100.08L167.76 99.36L166.32 99.36L166.32 98.64L165.6 98.64L165.6 97.92L164.16 97.92L164.16 97.2L162.72 97.2L162.72 96.48L161.28 96.48L161.28 95.76L160.56 95.76L160.56 95.04L159.12 95.04L159.12 94.32L157.68 94.32L157.68 93.6L156.96 93.6L156.96 92.88L155.52 92.88L155.52 92.16L154.08 92.16L154.08 91.44L152.64 91.44L152.64 90.72L151.92 90.72L151.92 90L150.48 90L150.48 89.28L149.04 89.28L149.04 88.56L147.6 88.56L147.6 87.84L146.88 87.84L146.88 87.12L145.44 87.12L145.44 86.4L144 86.4L144 85.68L142.56 85.68L142.56 84.96L141.12 84.96L141.12 84.24L138.24 84.24L138.24 83.52L133.92 83.52M568.08 90.72L568.08 91.44L565.92 91.44L565.92 92.16L563.76 92.16L563.76 92.88L562.32 92.88L562.32 93.6L561.6 93.6L561.6 94.32L560.16 94.32L560.16 95.04L558.72 95.04L558.72 95.76L558 95.76L558 96.48L556.56 96.48L556.56 97.2L555.12 97.2L555.12 97.92L553.68 97.92L553.68 98.64L552.96 98.64L552.96 99.36L551.52 99.36L551.52 100.08L550.08 100.08L550.08 100.8L548.64 100.8L548.64 101.52L547.92 101.52L547.92 102.24L546.48 102.24L546.48 102.96L545.04 102.96L545.04 103.68L544.32 103.68L544.32 104.4L542.88 104.4L542.88 105.12L541.44 105.12L541.44 105.84L540 105.84L540 106.56L539.28 106.56L539.28 107.28L537.84 107.28L537.84 108L536.4 108L536.4 108.72L534.96 108.72L534.96 109.44L534.24 109.44L534.24 110.16L532.8 110.16L532.8 110.88L531.36 110.88L531.36 111.6L529.92 111.6L529.92 112.32L529.2 112.32L529.2 113.04L527.76 113.04L527.76 113.76L526.32 113.76L526.32 114.48L525.6 114.48L525.6 115.2L524.16 115.2L524.16 115.92L522.72 115.92L522.72 116.64L521.28 116.64L521.28 117.36L520.56 117.36L520.56 118.08L519.12 118.08L519.12 118.8L517.68 118.8L517.68 119.52L516.24 119.52L516.24 120.24L515.52 120.24L515.52 120.96L514.08 120.96L514.08 121.68L512.64 121.68L512.64 122.4L511.92 122.4L511.92 123.12L511.2 123.12L511.2 123.84L509.76 123.84L509.76 125.28L509.04 125.28L509.04 126L508.32 126L508.32 126.72L507.6 126.72L507.6 128.16L506.88 128.16L506.88 130.32L506.16 130.32L506.16 133.92L505.44 133.92L505.44 136.08L506.16 136.08L506.16 139.68L506.88 139.68L506.88 141.12L507.6 141.12L507.6 142.56L508.32 142.56L508.32 144L509.04 144L509.04 144.72L509.76 144.72L509.76 145.44L510.48 145.44L510.48 146.16L511.2 146.16L511.2 146.88L511.92 146.88L511.92 147.6L513.36 147.6L513.36 148.32L514.8 148.32L514.8 149.04L516.96 149.04L516.96 149.76L524.88 149.76L524.88 149.04L527.04 149.04L527.04 148.32L528.48 148.32L528.48 147.6L529.2 147.6L529.2 146.88L530.64 146.88L530.64 146.16L532.08 146.16L532.08 145.44L533.52 145.44L533.52 144.72L534.24 144.72L534.24 144L535.68 144L535.68 143.28L537.12 143.28L537.12 142.56L538.56 142.56L538.56 141.84L539.28 141.84L539.28 141.12L540.72 141.12L540.72 140.4L542.16 140.4L542.16 139.68L543.6 139.68L543.6 138.96L544.32 138.96L544.32 138.24L545.76 138.24L545.76 137.52L547.2 137.52L547.2 136.8L548.64 136.8L548.64 136.08L549.36 136.08L549.36 135.36L550.8 135.36L550.8 134.64L552.24 134.64L552.24 133.92L552.96 133.92L552.96 133.2L554.4 133.2L554.4 132.48L555.84 132.48L555.84 131.76L557.28 131.76L557.28 131.04L558 131.04L558 130.32L559.44 130.32L559.44 129.6L560.88 129.6L560.88 128.88L561.6 128.88L561.6 128.16L563.04 128.16L563.04 127.44L564.48 127.44L564.48 126.72L565.92 126.72L565.92 126L566.64 126L566.64 125.28L568.08 125.28L568.08 124.56L569.52 124.56L569.52 123.84L570.96 123.84L570.96 123.12L571.68 123.12L571.68 122.4L573.12 122.4L573.12 121.68L574.56 121.68L574.56 120.96L576 120.96L576 120.24L576.72 120.24L576.72 119.52L578.16 119.52L578.16 118.8L579.6 118.8L579.6 118.08L580.32 118.08L580.32 117.36L581.04 117.36L581.04 116.64L581.76 116.64L581.76 115.92L582.48 115.92L582.48 115.2L583.2 115.2L583.2 113.76L583.92 113.76L583.92 113.04L584.64 113.04L584.64 110.88L585.36 110.88L585.36 108L586.08 108L586.08 103.68L585.36 103.68L585.36 100.8L584.64 100.8L584.64 99.36L583.92 99.36L583.92 97.92L583.2 97.92L583.2 97.2L582.48 97.2L582.48 95.76L581.76 95.76L581.76 95.04L581.04 95.04L581.04 94.32L579.6 94.32L579.6 93.6L578.88 93.6L578.88 92.88L577.44 92.88L577.44 92.16L576 92.16L576 91.44L573.12 91.44L573.12 90.72L568.08 90.72M348.48 107.28L372.96 107.28L372.96 108L378.72 108L378.72 108.72L383.04 108.72L383.04 109.44L386.64 109.44L386.64 110.16L389.52 110.16L389.52 110.88L392.4 110.88L392.4 111.6L394.56 111.6L394.56 112.32L397.44 112.32L397.44 113.04L399.6 113.04L399.6 113.76L401.04 113.76L401.04 114.48L403.2 114.48L403.2 115.2L405.36 115.2L405.36 115.92L406.8 115.92L406.8 116.64L408.24 116.64L408.24 117.36L410.4 117.36L410.4 118.08L411.84 118.08L411.84 118.8L413.28 118.8L413.28 119.52L414.72 119.52L414.72 120.24L416.16 120.24L416.16 120.96L417.6 120.96L417.6 121.68L419.04 121.68L419.04 122.4L419.76 122.4L419.76 123.12L421.2 123.12L421.2 123.84L422.64 123.84L422.64 124.56L423.36 124.56L423.36 125.28L424.8 125.28L424.8 126L426.24 126L426.24 126.72L426.96 126.72L426.96 127.44L428.4 127.44L428.4 128.16L429.12 128.16L429.12 128.88L430.56 128.88L430.56 129.6L431.28 129.6L431.28 130.32L432 130.32L432 131.04L433.44 131.04L433.44 131.76L434.16 131.76L434.16 132.48L434.88 132.48L434.88 133.2L435.6 133.2L435.6 133.92L437.04 133.92L437.04 134.64L437.76 134.64L437.76 135.36L438.48 135.36L438.48 136.08L439.2 136.08L439.2 136.8L439.92 136.8L439.92 137.52L440.64 137.52L440.64 138.24L442.08 138.24L442.08 138.96L442.8 138.96L442.8 139.68L443.52 139.68L443.52 140.4L444.24 140.4L444.24 141.12L444.96 141.12L444.96 141.84L445.68 141.84L445.68 142.56L446.4 142.56L446.4 143.28L447.12 143.28L447.12 144L447.84 144L447.84 144.72L448.56 144.72L448.56 145.44L449.28 145.44L449.28 146.88L450 146.88L450 147.6L450.72 147.6L450.72 148.32L451.44 148.32L451.44 149.04L452.16 149.04L452.16 149.76L452.88 149.76L452.88 150.48L453.6 150.48L453.6 151.92L454.32 151.92L454.32 152.64L455.04 152.64L455.04 153.36L455.76 153.36L455.76 154.08L456.48 154.08L456.48 155.52L457.2 155.52L457.2 156.24L457.92 156.24L457.92 156.96L458.64 156.96L458.64 158.4L459.36 158.4L459.36 159.12L460.08 159.12L460.08 160.56L460.8 160.56L460.8 161.28L461.52 161.28L461.52 162.72L462.24 162.72L462.24 163.44L462.96 163.44L462.96 164.16L463.68 164.16L463.68 164.88L464.4 164.88L464.4 166.32L465.12 166.32L465.12 167.04L465.84 167.04L465.84 167.76L466.56 167.76L466.56 169.2L467.28 169.2L467.28 170.64L468 170.64L468 171.36L468.72 171.36L468.72 172.08L469.44 172.08L469.44 173.52L470.16 173.52L470.16 174.24L470.88 174.24L470.88 174.96L471.6 174.96L471.6 176.4L472.32 176.4L472.32 177.12L473.04 177.12L473.04 178.56L473.76 178.56L473.76 180L474.48 180L474.48 181.44L475.2 181.44L475.2 182.88L475.92 182.88L475.92 185.04L476.64 185.04L476.64 186.48L477.36 186.48L477.36 188.64L478.08 188.64L478.08 190.08L478.8 190.08L478.8 191.52L479.52 191.52L479.52 192.96L480.24 192.96L480.24 194.4L480.96 194.4L480.96 195.84L481.68 195.84L481.68 198.72L482.4 198.72L482.4 200.88L483.12 200.88L483.12 202.32L483.84 202.32L483.84 204.48L484.56 204.48L484.56 207.36L485.28 207.36L485.28 209.52L486 209.52L486 213.84L486.72 213.84L486.72 216L487.44 216L487.44 218.16L488.16 218.16L488.16 222.48L488.88 222.48L488.88 231.12L489.6 231.12L489.6 231.84L488.88 231.84L488.88 234L489.6 234L489.6 234.72L488.88 234.72L488.88 236.88L489.6 236.88L489.6 237.6L488.88 237.6L488.88 239.76L489.6 239.76L489.6 240.48L488.88 240.48L488.88 245.52L488.16 245.52L488.16 247.68L487.44 247.68L487.44 251.28L486.72 251.28L486.72 254.16L486 254.16L486 258.48L485.28 258.48L485.28 262.08L484.56 262.08L484.56 264.24L483.84 264.24L483.84 265.68L483.12 265.68L483.12 268.56L482.4 268.56L482.4 270.72L481.68 270.72L481.68 272.16L480.96 272.16L480.96 274.32L480.24 274.32L480.24 276.48L479.52 276.48L479.52 277.92L478.8 277.92L478.8 279.36L478.08 279.36L478.08 280.8L477.36 280.8L477.36 282.24L476.64 282.24L476.64 283.68L475.92 283.68L475.92 285.12L475.2 285.12L475.2 286.56L474.48 286.56L474.48 287.28L473.76 287.28L473.76 288.72L473.04 288.72L473.04 291.6L472.32 291.6L472.32 293.04L471.6 293.04L471.6 295.2L470.88 295.2L470.88 296.64L470.16 296.64L470.16 298.8L469.44 298.8L469.44 300.24L468.72 300.24L468.72 302.4L468 302.4L468 303.12L467.28 303.12L467.28 304.56L466.56 304.56L466.56 305.28L465.84 305.28L465.84 306L465.12 306L465.12 307.44L464.4 307.44L464.4 308.88L463.68 308.88L463.68 310.32L462.96 310.32L462.96 311.04L462.24 311.04L462.24 311.76L461.52 311.76L461.52 312.48L460.8 312.48L460.8 313.2L460.08 313.2L460.08 314.64L459.36 314.64L459.36 316.08L458.64 316.08L458.64 317.52L457.92 317.52L457.92 318.24L457.2 318.24L457.2 319.68L456.48 319.68L456.48 320.4L455.76 320.4L455.76 321.84L455.04 321.84L455.04 322.56L454.32 322.56L454.32 324L453.6 324L453.6 324.72L452.88 324.72L452.88 326.16L452.16 326.16L452.16 328.32L451.44 328.32L451.44 329.04L450.72 329.04L450.72 331.2L450 331.2L450 332.64L449.28 332.64L449.28 334.08L448.56 334.08L448.56 336.24L447.84 336.24L447.84 339.12L447.12 339.12L447.12 342L446.4 342L446.4 344.88L445.68 344.88L445.68 346.32L444.96 346.32L444.96 347.04L444.24 347.04L444.24 349.2L443.52 349.2L443.52 350.64L442.8 350.64L442.8 352.08L442.08 352.08L442.08 354.96L441.36 354.96L441.36 357.84L440.64 357.84L440.64 359.28L439.92 359.28L439.92 360.72L439.2 360.72L439.2 363.6L438.48 363.6L438.48 367.2L437.76 367.2L437.76 368.64L437.04 368.64L437.04 370.08L436.32 370.08L436.32 375.84L435.6 375.84L435.6 382.32L434.88 382.32L434.88 388.8L434.16 388.8L434.16 409.68L433.44 409.68L433.44 419.04L432.72 419.04L432.72 430.56L432 430.56L432 431.28L432.72 431.28L432.72 433.44L432 433.44L432 434.16L432.72 434.16L432.72 436.32L432 436.32L432 445.68L431.28 445.68L431.28 452.16L430.56 452.16L430.56 454.32L429.84 454.32L429.84 456.48L429.12 456.48L429.12 457.92L428.4 457.92L428.4 459.36L427.68 459.36L427.68 460.8L426.96 460.8L426.96 461.52L426.24 461.52L426.24 462.24L425.52 462.24L425.52 462.96L424.8 462.96L424.8 463.68L424.08 463.68L424.08 464.4L423.36 464.4L423.36 465.12L422.64 465.12L422.64 465.84L421.2 465.84L421.2 466.56L420.48 466.56L420.48 467.28L419.76 467.28L419.76 468L418.32 468L418.32 468.72L416.88 468.72L416.88 469.44L414 469.44L414 470.16L407.52 470.16L407.52 470.88L405.36 470.88L405.36 470.16L404.64 470.16L404.64 470.88L402.48 470.88L402.48 470.16L401.76 470.16L401.76 470.88L393.12 470.88L393.12 471.6L386.64 471.6L386.64 472.32L334.8 472.32L334.8 471.6L331.2 471.6L331.2 470.88L327.6 470.88L327.6 470.16L325.44 470.16L325.44 469.44L324 469.44L324 468.72L323.28 468.72L323.28 468L322.56 468L322.56 467.28L321.84 467.28L321.84 466.56L321.12 466.56L321.12 465.84L320.4 465.84L320.4 465.12L319.68 465.12L319.68 463.68L318.96 463.68L318.96 462.24L318.24 462.24L318.24 460.08L317.52 460.08L317.52 456.48L316.8 456.48L316.8 444.24L316.08 444.24L316.08 440.64L315.36 440.64L315.36 434.88L314.64 434.88L314.64 429.12L313.92 429.12L313.92 424.8L313.2 424.8L313.2 421.2L312.48 421.2L312.48 418.32L311.76 418.32L311.76 414.72L311.04 414.72L311.04 411.12L310.32 411.12L310.32 408.24L309.6 408.24L309.6 404.64L308.88 404.64L308.88 401.04L308.16 401.04L308.16 397.44L307.44 397.44L307.44 394.56L306.72 394.56L306.72 392.4L306 392.4L306 390.24L305.28 390.24L305.28 387.36L304.56 387.36L304.56 385.2L303.84 385.2L303.84 382.32L303.12 382.32L303.12 379.44L302.4 379.44L302.4 375.84L301.68 375.84L301.68 374.4L300.96 374.4L300.96 372.96L300.24 372.96L300.24 370.08L299.52 370.08L299.52 367.2L298.8 367.2L298.8 365.76L298.08 365.76L298.08 364.32L297.36 364.32L297.36 362.16L296.64 362.16L296.64 360L295.92 360L295.92 358.56L295.2 358.56L295.2 357.12L294.48 357.12L294.48 355.68L293.76 355.68L293.76 354.24L293.04 354.24L293.04 352.8L292.32 352.8L292.32 350.64L291.6 350.64L291.6 349.2L290.88 349.2L290.88 347.76L290.16 347.76L290.16 345.6L289.44 345.6L289.44 343.44L288.72 343.44L288.72 342L288 342L288 339.84L287.28 339.84L287.28 337.68L286.56 337.68L286.56 335.52L285.84 335.52L285.84 334.08L285.12 334.08L285.12 332.64L284.4 332.64L284.4 331.2L283.68 331.2L283.68 329.76L282.96 329.76L282.96 329.04L282.24 329.04L282.24 327.6L281.52 327.6L281.52 326.16L280.8 326.16L280.8 324.72L280.08 324.72L280.08 324L279.36 324L279.36 323.28L278.64 323.28L278.64 321.84L277.92 321.84L277.92 320.4L277.2 320.4L277.2 319.68L276.48 319.68L276.48 318.24L275.76 318.24L275.76 317.52L275.04 317.52L275.04 316.08L274.32 316.08L274.32 314.64L273.6 314.64L273.6 313.2L272.88 313.2L272.88 311.76L272.16 311.76L272.16 310.32L271.44 310.32L271.44 309.6L270.72 309.6L270.72 308.88L270 308.88L270 307.44L269.28 307.44L269.28 305.28L268.56 305.28L268.56 304.56L267.84 304.56L267.84 303.12L267.12 303.12L267.12 302.4L266.4 302.4L266.4 300.24L265.68 300.24L265.68 299.52L264.96 299.52L264.96 298.08L264.24 298.08L264.24 297.36L263.52 297.36L263.52 296.64L262.8 296.64L262.8 295.2L262.08 295.2L262.08 294.48L261.36 294.48L261.36 293.04L260.64 293.04L260.64 292.32L259.92 292.32L259.92 290.88L259.2 290.88L259.2 289.44L258.48 289.44L258.48 288.72L257.76 288.72L257.76 287.28L257.04 287.28L257.04 285.84L256.32 285.84L256.32 285.12L255.6 285.12L255.6 283.68L254.88 283.68L254.88 282.24L254.16 282.24L254.16 280.8L253.44 280.8L253.44 279.36L252.72 279.36L252.72 277.92L252 277.92L252 276.48L251.28 276.48L251.28 274.32L250.56 274.32L250.56 272.88L249.84 272.88L249.84 271.44L249.12 271.44L249.12 269.28L248.4 269.28L248.4 267.12L247.68 267.12L247.68 265.68L246.96 265.68L246.96 263.52L246.24 263.52L246.24 260.64L245.52 260.64L245.52 258.48L244.8 258.48L244.8 255.6L244.08 255.6L244.08 252.72L243.36 252.72L243.36 249.12L242.64 249.12L242.64 244.8L241.92 244.8L241.92 239.04L241.2 239.04L241.2 214.56L241.92 214.56L241.92 208.8L242.64 208.8L242.64 204.48L243.36 204.48L243.36 200.88L244.08 200.88L244.08 198L244.8 198L244.8 195.12L245.52 195.12L245.52 192.96L246.24 192.96L246.24 190.08L246.96 190.08L246.96 187.92L247.68 187.92L247.68 186.48L248.4 186.48L248.4 184.32L249.12 184.32L249.12 182.16L249.84 182.16L249.84 180.72L250.56 180.72L250.56 179.28L251.28 179.28L251.28 177.12L252 177.12L252 175.68L252.72 175.68L252.72 174.24L253.44 174.24L253.44 172.8L254.16 172.8L254.16 171.36L254.88 171.36L254.88 169.92L255.6 169.92L255.6 168.48L256.32 168.48L256.32 167.76L257.04 167.76L257.04 166.32L257.76 166.32L257.76 164.88L258.48 164.88L258.48 164.16L259.2 164.16L259.2 162.72L259.92 162.72L259.92 161.28L260.64 161.28L260.64 160.56L261.36 160.56L261.36 159.12L262.08 159.12L262.08 158.4L262.8 158.4L262.8 156.96L263.52 156.96L263.52 156.24L264.24 156.24L264.24 155.52L264.96 155.52L264.96 154.08L265.68 154.08L265.68 153.36L266.4 153.36L266.4 152.64L267.12 152.64L267.12 151.92L267.84 151.92L267.84 150.48L268.56 150.48L268.56 149.76L269.28 149.76L269.28 149.04L270 149.04L270 148.32L270.72 148.32L270.72 147.6L271.44 147.6L271.44 146.88L272.16 146.88L272.16 145.44L272.88 145.44L272.88 144.72L273.6 144.72L273.6 144L274.32 144L274.32 143.28L275.04 143.28L275.04 142.56L275.76 142.56L275.76 141.84L276.48 141.84L276.48 141.12L277.2 141.12L277.2 140.4L277.92 140.4L277.92 139.68L278.64 139.68L278.64 138.96L279.36 138.96L279.36 138.24L280.8 138.24L280.8 137.52L281.52 137.52L281.52 136.8L282.24 136.8L282.24 136.08L282.96 136.08L282.96 135.36L283.68 135.36L283.68 134.64L284.4 134.64L284.4 133.92L285.84 133.92L285.84 133.2L286.56 133.2L286.56 132.48L287.28 132.48L287.28 131.76L288 131.76L288 131.04L289.44 131.04L289.44 130.32L290.16 130.32L290.16 129.6L290.88 129.6L290.88 128.88L292.32 128.88L292.32 128.16L293.04 128.16L293.04 127.44L294.48 127.44L294.48 126.72L295.2 126.72L295.2 126L296.64 126L296.64 125.28L298.08 125.28L298.08 124.56L298.8 124.56L298.8 123.84L300.24 123.84L300.24 123.12L301.68 123.12L301.68 122.4L302.4 122.4L302.4 121.68L303.84 121.68L303.84 120.96L305.28 120.96L305.28 120.24L306.72 120.24L306.72 119.52L308.16 119.52L308.16 118.8L309.6 118.8L309.6 118.08L311.04 118.08L311.04 117.36L313.2 117.36L313.2 116.64L314.64 116.64L314.64 115.92L316.08 115.92L316.08 115.2L318.24 115.2L318.24 114.48L320.4 114.48L320.4 113.76L321.84 113.76L321.84 113.04L324 113.04L324 112.32L326.88 112.32L326.88 111.6L329.04 111.6L329.04 110.88L331.92 110.88L331.92 110.16L334.8 110.16L334.8 109.44L338.4 109.44L338.4 108.72L342.72 108.72L342.72 108L348.48 108L348.48 107.28M108 209.52L108 210.24L105.84 210.24L105.84 210.96L104.4 210.96L104.4 211.68L102.96 211.68L102.96 212.4L102.24 212.4L102.24 213.12L101.52 213.12L101.52 213.84L100.8 213.84L100.8 214.56L100.08 214.56L100.08 215.28L99.36 215.28L99.36 216L98.64 216L98.64 217.44L97.92 217.44L97.92 218.88L97.2 218.88L97.2 221.04L96.48 221.04L96.48 228.24L97.2 228.24L97.2 230.4L97.92 230.4L97.92 231.84L98.64 231.84L98.64 233.28L99.36 233.28L99.36 234L100.08 234L100.08 234.72L100.8 234.72L100.8 235.44L101.52 235.44L101.52 236.16L102.24 236.16L102.24 236.88L102.96 236.88L102.96 237.6L104.4 237.6L104.4 238.32L105.84 238.32L105.84 239.04L108 239.04L108 239.76L181.44 239.76L181.44 239.04L183.6 239.04L183.6 238.32L185.04 238.32L185.04 237.6L186.48 237.6L186.48 236.88L187.2 236.88L187.2 236.16L187.92 236.16L187.92 235.44L188.64 235.44L188.64 234.72L189.36 234.72L189.36 234L190.08 234L190.08 233.28L190.8 233.28L190.8 231.84L191.52 231.84L191.52 230.4L192.24 230.4L192.24 228.24L192.96 228.24L192.96 221.04L192.24 221.04L192.24 218.88L191.52 218.88L191.52 217.44L190.8 217.44L190.8 216L190.08 216L190.08 215.28L189.36 215.28L189.36 214.56L188.64 214.56L188.64 213.84L187.92 213.84L187.92 213.12L187.2 213.12L187.2 212.4L186.48 212.4L186.48 211.68L185.04 211.68L185.04 210.96L183.6 210.96L183.6 210.24L181.44 210.24L181.44 209.52L108 209.52M539.28 216L539.28 216.72L537.12 216.72L537.12 217.44L535.68 217.44L535.68 218.16L534.24 218.16L534.24 218.88L533.52 218.88L533.52 219.6L532.08 219.6L532.08 220.32L531.36 220.32L531.36 221.04L530.64 221.04L530.64 222.48L529.92 222.48L529.92 223.2L529.2 223.2L529.2 224.64L528.48 224.64L528.48 226.8L527.76 226.8L527.76 235.44L528.48 235.44L528.48 237.6L529.2 237.6L529.2 239.04L529.92 239.04L529.92 239.76L530.64 239.76L530.64 241.2L531.36 241.2L531.36 241.92L532.08 241.92L532.08 242.64L533.52 242.64L533.52 243.36L534.24 243.36L534.24 244.08L535.68 244.08L535.68 244.8L537.12 244.8L537.12 245.52L539.28 245.52L539.28 246.24L606.24 246.24L606.24 245.52L608.4 245.52L608.4 244.8L609.84 244.8L609.84 244.08L611.28 244.08L611.28 243.36L612.72 243.36L612.72 242.64L613.44 242.64L613.44 241.92L614.16 241.92L614.16 241.2L614.88 241.2L614.88 239.76L615.6 239.76L615.6 239.04L616.32 239.04L616.32 237.6L617.04 237.6L617.04 235.44L617.76 235.44L617.76 231.84L618.48 231.84L618.48 230.4L617.76 230.4L617.76 226.8L617.04 226.8L617.04 224.64L616.32 224.64L616.32 223.2L615.6 223.2L615.6 222.48L614.88 222.48L614.88 221.04L614.16 221.04L614.16 220.32L613.44 220.32L613.44 219.6L612.72 219.6L612.72 218.88L611.28 218.88L611.28 218.16L609.84 218.16L609.84 217.44L608.4 217.44L608.4 216.72L606.24 216.72L606.24 216L539.28 216M523.44 310.32L523.44 311.04L521.28 311.04L521.28 311.76L519.84 311.76L519.84 312.48L518.4 312.48L518.4 313.2L517.68 313.2L517.68 313.92L516.96 313.92L516.96 314.64L516.24 314.64L516.24 315.36L515.52 315.36L515.52 316.08L514.8 316.08L514.8 317.52L514.08 317.52L514.08 318.96L513.36 318.96L513.36 320.4L512.64 320.4L512.64 324L511.92 324L511.92 326.16L512.64 326.16L512.64 329.76L513.36 329.76L513.36 331.92L514.08 331.92L514.08 333.36L514.8 333.36L514.8 334.08L515.52 334.08L515.52 334.8L516.24 334.8L516.24 336.24L517.68 336.24L517.68 336.96L518.4 336.96L518.4 337.68L519.12 337.68L519.12 338.4L520.56 338.4L520.56 339.12L522 339.12L522 339.84L522.72 339.84L522.72 340.56L524.16 340.56L524.16 341.28L525.6 341.28L525.6 342L527.04 342L527.04 342.72L527.76 342.72L527.76 343.44L529.2 343.44L529.2 344.16L530.64 344.16L530.64 344.88L532.08 344.88L532.08 345.6L532.8 345.6L532.8 346.32L534.24 346.32L534.24 347.04L535.68 347.04L535.68 347.76L536.4 347.76L536.4 348.48L537.84 348.48L537.84 349.2L539.28 349.2L539.28 349.92L540.72 349.92L540.72 350.64L541.44 350.64L541.44 351.36L542.88 351.36L542.88 352.08L544.32 352.08L544.32 352.8L545.76 352.8L545.76 353.52L546.48 353.52L546.48 354.24L547.92 354.24L547.92 354.96L549.36 354.96L549.36 355.68L550.8 355.68L550.8 356.4L551.52 356.4L551.52 357.12L552.96 357.12L552.96 357.84L554.4 357.84L554.4 358.56L555.12 358.56L555.12 359.28L556.56 359.28L556.56 360L558 360L558 360.72L559.44 360.72L559.44 361.44L560.16 361.44L560.16 362.16L561.6 362.16L561.6 362.88L563.04 362.88L563.04 363.6L564.48 363.6L564.48 364.32L565.2 364.32L565.2 365.04L566.64 365.04L566.64 365.76L568.08 365.76L568.08 366.48L568.8 366.48L568.8 367.2L570.24 367.2L570.24 367.92L571.68 367.92L571.68 368.64L573.12 368.64L573.12 369.36L574.56 369.36L574.56 370.08L577.44 370.08L577.44 370.8L581.76 370.8L581.76 370.08L584.64 370.08L584.64 369.36L586.8 369.36L586.8 368.64L587.52 368.64L587.52 367.92L588.96 367.92L588.96 367.2L589.68 367.2L589.68 366.48L590.4 366.48L590.4 365.76L591.12 365.76L591.12 365.04L591.84 365.04L591.84 364.32L592.56 364.32L592.56 362.88L593.28 362.88L593.28 361.44L594 361.44L594 359.28L594.72 359.28L594.72 351.36L594 351.36L594 349.2L593.28 349.2L593.28 347.76L592.56 347.76L592.56 347.04L591.84 347.04L591.84 346.32L591.12 346.32L591.12 344.88L590.4 344.88L590.4 344.16L588.96 344.16L588.96 343.44L588.24 343.44L588.24 342.72L587.52 342.72L587.52 342L586.08 342L586.08 341.28L584.64 341.28L584.64 340.56L583.2 340.56L583.2 339.84L582.48 339.84L582.48 339.12L581.04 339.12L581.04 338.4L579.6 338.4L579.6 337.68L578.16 337.68L578.16 336.96L577.44 336.96L577.44 336.24L576 336.24L576 335.52L574.56 335.52L574.56 334.8L573.12 334.8L573.12 334.08L572.4 334.08L572.4 333.36L570.96 333.36L570.96 332.64L569.52 332.64L569.52 331.92L568.08 331.92L568.08 331.2L567.36 331.2L567.36 330.48L565.92 330.48L565.92 329.76L564.48 329.76L564.48 329.04L563.76 329.04L563.76 328.32L562.32 328.32L562.32 327.6L560.88 327.6L560.88 326.88L559.44 326.88L559.44 326.16L558.72 326.16L558.72 325.44L557.28 325.44L557.28 324.72L555.84 324.72L555.84 324L555.12 324L555.12 323.28L553.68 323.28L553.68 322.56L552.24 322.56L552.24 321.84L550.8 321.84L550.8 321.12L550.08 321.12L550.08 320.4L548.64 320.4L548.64 319.68L547.2 319.68L547.2 318.96L545.76 318.96L545.76 318.24L545.04 318.24L545.04 317.52L543.6 317.52L543.6 316.8L542.16 316.8L542.16 316.08L540.72 316.08L540.72 315.36L540 315.36L540 314.64L538.56 314.64L538.56 313.92L537.12 313.92L537.12 313.2L535.68 313.2L535.68 312.48L534.96 312.48L534.96 311.76L533.52 311.76L533.52 311.04L531.36 311.04L531.36 310.32L523.44 310.32M195.12 318.96L195.12 319.68L192.24 319.68L192.24 320.4L190.8 320.4L190.8 321.12L189.36 321.12L189.36 321.84L188.64 321.84L188.64 322.56L187.2 322.56L187.2 323.28L185.76 323.28L185.76 324L184.32 324L184.32 324.72L183.6 324.72L183.6 325.44L182.16 325.44L182.16 326.16L180.72 326.16L180.72 326.88L179.28 326.88L179.28 327.6L178.56 327.6L178.56 328.32L177.12 328.32L177.12 329.04L175.68 329.04L175.68 329.76L174.96 329.76L174.96 330.48L173.52 330.48L173.52 331.2L172.08 331.2L172.08 331.92L170.64 331.92L170.64 332.64L169.92 332.64L169.92 333.36L168.48 333.36L168.48 334.08L167.04 334.08L167.04 334.8L165.6 334.8L165.6 335.52L164.88 335.52L164.88 336.24L163.44 336.24L163.44 336.96L162 336.96L162 337.68L161.28 337.68L161.28 338.4L159.84 338.4L159.84 339.12L158.4 339.12L158.4 339.84L156.96 339.84L156.96 340.56L156.24 340.56L156.24 341.28L154.8 341.28L154.8 342L153.36 342L153.36 342.72L151.92 342.72L151.92 343.44L151.2 343.44L151.2 344.16L149.76 344.16L149.76 344.88L148.32 344.88L148.32 345.6L146.88 345.6L146.88 346.32L146.16 346.32L146.16 347.04L144.72 347.04L144.72 347.76L143.28 347.76L143.28 348.48L142.56 348.48L142.56 349.2L141.12 349.2L141.12 349.92L139.68 349.92L139.68 350.64L138.24 350.64L138.24 351.36L137.52 351.36L137.52 352.08L136.08 352.08L136.08 352.8L134.64 352.8L134.64 353.52L133.2 353.52L133.2 354.24L132.48 354.24L132.48 354.96L131.04 354.96L131.04 355.68L129.6 355.68L129.6 356.4L128.88 356.4L128.88 357.12L127.44 357.12L127.44 357.84L126 357.84L126 358.56L124.56 358.56L124.56 359.28L123.84 359.28L123.84 360L122.4 360L122.4 360.72L120.96 360.72L120.96 361.44L119.52 361.44L119.52 362.16L118.8 362.16L118.8 362.88L118.08 362.88L118.08 363.6L117.36 363.6L117.36 364.32L116.64 364.32L116.64 365.04L115.92 365.04L115.92 365.76L115.2 365.76L115.2 367.2L114.48 367.2L114.48 367.92L113.76 367.92L113.76 370.08L113.04 370.08L113.04 378.72L113.76 378.72L113.76 380.88L114.48 380.88L114.48 382.32L115.2 382.32L115.2 383.76L115.92 383.76L115.92 384.48L116.64 384.48L116.64 385.2L117.36 385.2L117.36 385.92L118.08 385.92L118.08 386.64L119.52 386.64L119.52 387.36L120.24 387.36L120.24 388.08L121.68 388.08L121.68 388.8L123.84 388.8L123.84 389.52L131.76 389.52L131.76 388.8L133.92 388.8L133.92 388.08L135.36 388.08L135.36 387.36L136.8 387.36L136.8 386.64L137.52 386.64L137.52 385.92L138.96 385.92L138.96 385.2L140.4 385.2L140.4 384.48L141.12 384.48L141.12 383.76L142.56 383.76L142.56 383.04L144 383.04L144 382.32L145.44 382.32L145.44 381.6L146.16 381.6L146.16 380.88L147.6 380.88L147.6 380.16L149.04 380.16L149.04 379.44L150.48 379.44L150.48 378.72L151.2 378.72L151.2 378L152.64 378L152.64 377.28L154.08 377.28L154.08 376.56L155.52 376.56L155.52 375.84L156.24 375.84L156.24 375.12L157.68 375.12L157.68 374.4L159.12 374.4L159.12 373.68L160.56 373.68L160.56 372.96L161.28 372.96L161.28 372.24L162.72 372.24L162.72 371.52L164.16 371.52L164.16 370.8L165.6 370.8L165.6 370.08L166.32 370.08L166.32 369.36L167.76 369.36L167.76 368.64L169.2 368.64L169.2 367.92L169.92 367.92L169.92 367.2L171.36 367.2L171.36 366.48L172.8 366.48L172.8 365.76L174.24 365.76L174.24 365.04L174.96 365.04L174.96 364.32L176.4 364.32L176.4 363.6L177.84 363.6L177.84 362.88L178.56 362.88L178.56 362.16L180 362.16L180 361.44L181.44 361.44L181.44 360.72L182.88 360.72L182.88 360L183.6 360L183.6 359.28L185.04 359.28L185.04 358.56L186.48 358.56L186.48 357.84L187.92 357.84L187.92 357.12L188.64 357.12L188.64 356.4L190.08 356.4L190.08 355.68L191.52 355.68L191.52 354.96L192.96 354.96L192.96 354.24L193.68 354.24L193.68 353.52L195.12 353.52L195.12 352.8L196.56 352.8L196.56 352.08L198 352.08L198 351.36L198.72 351.36L198.72 350.64L200.16 350.64L200.16 349.92L201.6 349.92L201.6 349.2L202.32 349.2L202.32 348.48L203.76 348.48L203.76 347.76L205.2 347.76L205.2 347.04L206.64 347.04L206.64 346.32L207.36 346.32L207.36 345.6L208.08 345.6L208.08 344.88L208.8 344.88L208.8 344.16L209.52 344.16L209.52 343.44L210.24 343.44L210.24 342L210.96 342L210.96 340.56L211.68 340.56L211.68 339.12L212.4 339.12L212.4 335.52L213.12 335.52L213.12 333.36L212.4 333.36L212.4 329.76L211.68 329.76L211.68 327.6L210.96 327.6L210.96 326.16L210.24 326.16L210.24 325.44L209.52 325.44L209.52 324.72L208.8 324.72L208.8 323.28L207.36 323.28L207.36 322.56L206.64 322.56L206.64 321.84L205.92 321.84L205.92 321.12L204.48 321.12L204.48 320.4L203.04 320.4L203.04 319.68L200.16 319.68L200.16 318.96L195.12 318.96M310.32 526.32L310.32 527.04L308.16 527.04L308.16 527.76L306 527.76L306 528.48L304.56 528.48L304.56 529.2L303.12 529.2L303.12 529.92L301.68 529.92L301.68 530.64L300.96 530.64L300.96 531.36L300.24 531.36L300.24 532.08L299.52 532.08L299.52 532.8L298.8 532.8L298.8 533.52L298.08 533.52L298.08 534.24L297.36 534.24L297.36 534.96L296.64 534.96L296.64 535.68L295.92 535.68L295.92 536.4L295.2 536.4L295.2 537.84L294.48 537.84L294.48 538.56L293.76 538.56L293.76 540L293.04 540L293.04 542.16L292.32 542.16L292.32 544.32L291.6 544.32L291.6 547.92L290.88 547.92L290.88 553.68L291.6 553.68L291.6 557.28L292.32 557.28L292.32 559.44L293.04 559.44L293.04 561.6L293.76 561.6L293.76 563.04L294.48 563.04L294.48 563.76L295.2 563.76L295.2 565.2L295.92 565.2L295.92 565.92L296.64 565.92L296.64 566.64L297.36 566.64L297.36 567.36L298.08 567.36L298.08 568.08L298.8 568.08L298.8 568.8L299.52 568.8L299.52 569.52L300.24 569.52L300.24 570.24L300.96 570.24L300.96 570.96L301.68 570.96L301.68 571.68L303.12 571.68L303.12 572.4L304.56 572.4L304.56 573.12L306 573.12L306 573.84L308.16 573.84L308.16 574.56L310.32 574.56L310.32 575.28L426.24 575.28L426.24 574.56L429.12 574.56L429.12 573.84L430.56 573.84L430.56 573.12L432.72 573.12L432.72 572.4L433.44 572.4L433.44 571.68L434.88 571.68L434.88 570.96L435.6 570.96L435.6 570.24L437.04 570.24L437.04 569.52L437.76 569.52L437.76 568.8L438.48 568.8L438.48 568.08L439.2 568.08L439.2 567.36L439.92 567.36L439.92 566.64L440.64 566.64L440.64 565.2L441.36 565.2L441.36 564.48L442.08 564.48L442.08 563.04L442.8 563.04L442.8 562.32L443.52 562.32L443.52 560.16L444.24 560.16L444.24 558.72L444.96 558.72L444.96 555.84L445.68 555.84L445.68 545.76L444.96 545.76L444.96 542.88L444.24 542.88L444.24 541.44L443.52 541.44L443.52 539.28L442.8 539.28L442.8 538.56L442.08 538.56L442.08 537.12L441.36 537.12L441.36 536.4L440.64 536.4L440.64 534.96L439.92 534.96L439.92 534.24L439.2 534.24L439.2 533.52L438.48 533.52L438.48 532.8L437.76 532.8L437.76 532.08L437.04 532.08L437.04 531.36L435.6 531.36L435.6 530.64L434.88 530.64L434.88 529.92L433.44 529.92L433.44 529.2L432.72 529.2L432.72 528.48L430.56 528.48L430.56 527.76L429.12 527.76L429.12 527.04L426.24 527.04L426.24 526.32L310.32 526.32M327.6 588.96L327.6 589.68L325.44 589.68L325.44 590.4L323.28 590.4L323.28 591.12L321.84 591.12L321.84 591.84L320.4 591.84L320.4 592.56L318.96 592.56L318.96 593.28L318.24 593.28L318.24 594L317.52 594L317.52 594.72L316.8 594.72L316.8 595.44L316.08 595.44L316.08 596.16L315.36 596.16L315.36 596.88L314.64 596.88L314.64 597.6L313.92 597.6L313.92 598.32L313.2 598.32L313.2 599.04L312.48 599.04L312.48 600.48L311.76 600.48L311.76 601.2L311.04 601.2L311.04 602.64L310.32 602.64L310.32 604.8L309.6 604.8L309.6 606.96L308.88 606.96L308.88 610.56L308.16 610.56L308.16 616.32L308.88 616.32L308.88 619.92L309.6 619.92L309.6 622.08L310.32 622.08L310.32 624.24L311.04 624.24L311.04 625.68L311.76 625.68L311.76 626.4L312.48 626.4L312.48 627.84L313.2 627.84L313.2 628.56L313.92 628.56L313.92 629.28L314.64 629.28L314.64 630L315.36 630L315.36 630.72L316.08 630.72L316.08 631.44L316.8 631.44L316.8 632.16L317.52 632.16L317.52 632.88L318.24 632.88L318.24 633.6L318.96 633.6L318.96 634.32L320.4 634.32L320.4 635.04L321.84 635.04L321.84 635.76L323.28 635.76L323.28 636.48L325.44 636.48L325.44 637.2L327.6 637.2L327.6 637.92L396 637.92L396 637.2L398.16 637.2L398.16 636.48L400.32 636.48L400.32 635.76L401.76 635.76L401.76 635.04L403.2 635.04L403.2 634.32L403.92 634.32L403.92 633.6L405.36 633.6L405.36 632.88L406.08 632.88L406.08 632.16L406.8 632.16L406.8 631.44L407.52 631.44L407.52 630.72L408.24 630.72L408.24 630L408.96 630L408.96 629.28L409.68 629.28L409.68 628.56L410.4 628.56L410.4 627.84L411.12 627.84L411.12 626.4L411.84 626.4L411.84 624.96L412.56 624.96L412.56 623.52L413.28 623.52L413.28 622.08L414 622.08L414 619.92L414.72 619.92L414.72 615.6L415.44 615.6L415.44 611.28L414.72 611.28L414.72 606.96L414 606.96L414 604.8L413.28 604.8L413.28 603.36L412.56 603.36L412.56 601.92L411.84 601.92L411.84 600.48L411.12 600.48L411.12 599.04L410.4 599.04L410.4 598.32L409.68 598.32L409.68 597.6L408.96 597.6L408.96 596.88L408.24 596.88L408.24 596.16L407.52 596.16L407.52 595.44L406.8 595.44L406.8 594.72L406.08 594.72L406.08 594L405.36 594L405.36 593.28L403.92 593.28L403.92 592.56L403.2 592.56L403.2 591.84L401.76 591.84L401.76 591.12L400.32 591.12L400.32 590.4L398.16 590.4L398.16 589.68L396 589.68L396 588.96L327.6 588.96"/>
</svg>
