<?xml version="1.0" standalone="no"?>
<!DOCTYPE svg PUBLIC "-//W3C//DTD SVG 20010904//EN" "http://www.w3.org/TR/2001/REC-SVG-20010904/DTD/svg10.dtd">
<!-- Created using Krita: https://krita.org -->
<svg xmlns="http://www.w3.org/2000/svg" 
    xmlns:xlink="http://www.w3.org/1999/xlink"
    xmlns:krita="http://krita.org/namespaces/svg/krita"
    xmlns:sodipodi="http://sodipodi.sourceforge.net/DTD/sodipodi-0.dtd"
    width="580.32pt"
    height="594pt"
    viewBox="0 0 580.32 594">
<defs/>
<path id="shape0" fill="none" stroke="#000000" stroke-width="1.44" stroke-linecap="square" stroke-linejoin="miter" stroke-miterlimit="2" d="M439.2 0L439.2 0.72L437.04 0.72L437.04 1.44L435.6 1.44L435.6 2.16L434.16 2.16L434.16 2.88L433.44 2.88L433.44 3.6L432 3.6L432 4.32L431.28 4.32L431.28 5.04L429.84 5.04L429.84 5.76L429.12 5.76L429.12 6.48L428.4 6.48L428.4 7.2L427.68 7.2L427.68 7.92L426.96 7.92L426.96 8.64L426.24 8.64L426.24 10.08L425.52 10.08L425.52 10.8L424.8 10.8L424.8 11.52L424.08 11.52L424.08 12.24L423.36 12.24L423.36 13.68L422.64 13.68L422.64 14.4L421.92 14.4L421.92 18L421.2 18L421.2 21.6L420.48 21.6L420.48 20.88L419.76 20.88L419.76 20.16L419.04 20.16L419.04 19.44L418.32 19.44L418.32 18.72L417.6 18.72L417.6 18L416.16 18L416.16 17.28L415.44 17.28L415.44 16.56L414 16.56L414 15.84L413.28 15.84L413.28 15.12L411.84 15.12L411.84 14.4L410.4 14.4L410.4 13.68L408.96 13.68L408.96 12.96L407.52 12.96L407.52 12.24L406.08 12.24L406.08 11.52L404.64 11.52L404.64 10.8L403.2 10.8L403.2 10.08L401.04 10.08L401.04 9.36L398.16 9.36L398.16 8.64L396 8.64L396 7.92L393.12 7.92L393.12 7.2L383.04 7.2L383.04 6.48L382.32 6.48L382.32 7.2L375.84 7.2L375.84 7.92L374.4 7.92L374.4 8.64L372.96 8.64L372.96 9.36L371.52 9.36L371.52 10.08L370.08 10.08L370.08 10.8L368.64 10.8L368.64 11.52L367.2 11.52L367.2 12.24L365.76 12.24L365.76 12.96L365.04 12.96L365.04 13.68L363.6 13.68L363.6 14.4L362.88 14.4L362.88 15.12L362.16 15.12L362.16 15.84L361.44 15.84L361.44 16.56L360.72 16.56L360.72 17.28L360 17.28L360 18L359.28 18L359.28 18.72L358.56 18.72L358.56 19.44L357.84 19.44L357.84 20.16L357.12 20.16L357.12 21.6L356.4 21.6L356.4 22.32L355.68 22.32L355.68 23.04L354.96 23.04L354.96 23.76L354.24 23.76L354.24 24.48L353.52 24.48L353.52 25.92L352.8 25.92L352.8 27.36L352.08 27.36L352.08 28.8L351.36 28.8L351.36 30.96L350.64 30.96L350.64 33.84L349.92 33.84L349.92 37.44L349.2 37.44L349.2 39.6L348.48 39.6L348.48 43.2L349.2 43.2L349.2 43.92L348.48 43.92L348.48 49.68L349.2 49.68L349.2 50.4L348.48 50.4L348.48 51.12L349.2 51.12L349.2 56.16L349.92 56.16L349.92 60.48L350.64 60.48L350.64 64.08L351.36 64.08L351.36 67.68L352.08 67.68L352.08 72.72L352.8 72.72L352.8 76.32L353.52 76.32L353.52 79.2L354.24 79.2L354.24 82.08L354.96 82.08L354.96 85.68L355.68 85.68L355.68 87.84L356.4 87.84L356.4 90.72L357.12 90.72L357.12 92.88L357.84 92.88L357.84 95.04L358.56 95.04L358.56 97.2L359.28 97.2L359.28 99.36L360 99.36L360 101.52L360.72 101.52L360.72 104.4L361.44 104.4L361.44 107.28L362.16 107.28L362.16 110.16L362.88 110.16L362.88 113.04L363.6 113.04L363.6 114.48L364.32 114.48L364.32 116.64L365.04 116.64L365.04 118.8L365.76 118.8L365.76 120.96L366.48 120.96L366.48 123.84L367.2 123.84L367.2 126.72L367.92 126.72L367.92 128.88L368.64 128.88L368.64 131.04L369.36 131.04L369.36 132.48L370.08 132.48L370.08 135.36L370.8 135.36L370.8 136.08L371.52 136.08L371.52 137.52L372.24 137.52L372.24 139.68L372.96 139.68L372.96 141.12L373.68 141.12L373.68 143.28L374.4 143.28L374.4 144.72L375.12 144.72L375.12 146.16L375.84 146.16L375.84 147.6L376.56 147.6L376.56 149.04L377.28 149.04L377.28 150.48L378 150.48L378 152.64L378.72 152.64L378.72 154.08L379.44 154.08L379.44 155.52L380.16 155.52L380.16 156.96L380.88 156.96L380.88 158.4L381.6 158.4L381.6 159.84L382.32 159.84L382.32 161.28L383.04 161.28L383.04 162L383.76 162L383.76 163.44L384.48 163.44L384.48 164.88L385.2 164.88L385.2 166.32L385.92 166.32L385.92 167.04L386.64 167.04L386.64 167.76L387.36 167.76L387.36 169.2L388.08 169.2L388.08 169.92L388.8 169.92L388.8 171.36L389.52 171.36L389.52 172.08L390.24 172.08L390.24 172.8L390.96 172.8L390.96 174.24L391.68 174.24L391.68 174.96L392.4 174.96L392.4 175.68L393.12 175.68L393.12 177.12L393.84 177.12L393.84 177.84L394.56 177.84L394.56 178.56L395.28 178.56L395.28 179.28L396 179.28L396 180.72L396.72 180.72L396.72 181.44L397.44 181.44L397.44 182.16L398.16 182.16L398.16 182.88L398.88 182.88L398.88 183.6L399.6 183.6L399.6 184.32L400.32 184.32L400.32 185.76L401.04 185.76L401.04 186.48L401.76 186.48L401.76 187.2L402.48 187.2L402.48 187.92L403.2 187.92L403.2 188.64L403.92 188.64L403.92 189.36L404.64 189.36L404.64 190.08L405.36 190.08L405.36 190.8L406.08 190.8L406.08 191.52L406.8 191.52L406.8 192.24L408.24 192.24L408.24 192.96L408.96 192.96L408.96 193.68L409.68 193.68L409.68 194.4L410.4 194.4L410.4 195.12L411.12 195.12L411.12 195.84L411.84 195.84L411.84 196.56L413.28 196.56L413.28 197.28L414.72 197.28L414.72 198L416.16 198L416.16 198.72L416.88 198.72L416.88 199.44L418.32 199.44L418.32 200.16L419.04 200.16L419.04 200.88L421.2 200.88L421.2 201.6L422.64 201.6L422.64 202.32L424.08 202.32L424.08 203.04L424.8 203.04L424.8 203.76L426.24 203.76L426.24 204.48L427.68 204.48L427.68 205.2L429.12 205.2L429.12 205.92L430.56 205.92L430.56 206.64L432 206.64L432 207.36L433.44 207.36L433.44 208.08L434.88 208.08L434.88 208.8L436.32 208.8L436.32 209.52L437.76 209.52L437.76 210.24L439.2 210.24L439.2 211.68L438.48 211.68L438.48 213.12L437.76 213.12L437.76 215.28L437.04 215.28L437.04 216.72L436.32 216.72L436.32 218.88L435.6 218.88L435.6 221.04L434.88 221.04L434.88 223.2L434.16 223.2L434.16 226.08L433.44 226.08L433.44 229.68L432.72 229.68L432.72 234L432 234L432 248.4L359.28 248.4L359.28 249.12L322.56 249.12L322.56 248.4L315.36 248.4L315.36 247.68L313.2 247.68L313.2 246.96L304.56 246.96L304.56 246.24L233.28 246.24L233.28 246.96L209.52 246.96L209.52 247.68L208.08 247.68L208.08 248.4L172.08 248.4L172.08 249.12L108 249.12L108 249.84L106.56 249.84L106.56 250.56L96.48 250.56L96.48 251.28L92.88 251.28L92.88 252L91.44 252L91.44 252.72L86.4 252.72L86.4 253.44L84.96 253.44L84.96 254.16L82.8 254.16L82.8 254.88L81.36 254.88L81.36 255.6L78.48 255.6L78.48 256.32L77.04 256.32L77.04 257.04L76.32 257.04L76.32 257.76L74.88 257.76L74.88 258.48L73.44 258.48L73.44 259.2L72.72 259.2L72.72 259.92L72 259.92L72 260.64L71.28 260.64L71.28 261.36L70.56 261.36L70.56 262.08L69.84 262.08L69.84 262.8L69.12 262.8L69.12 263.52L68.4 263.52L68.4 264.24L67.68 264.24L67.68 264.96L66.96 264.96L66.96 265.68L66.24 265.68L66.24 266.4L65.52 266.4L65.52 267.12L64.8 267.12L64.8 267.84L64.08 267.84L64.08 268.56L63.36 268.56L63.36 269.28L62.64 269.28L62.64 270.72L61.92 270.72L61.92 271.44L61.2 271.44L61.2 272.88L60.48 272.88L60.48 273.6L59.76 273.6L59.76 274.32L59.04 274.32L59.04 275.76L58.32 275.76L58.32 277.2L57.6 277.2L57.6 277.92L56.88 277.92L56.88 279.36L56.16 279.36L56.16 280.8L55.44 280.8L55.44 282.24L54.72 282.24L54.72 283.68L54 283.68L54 285.12L53.28 285.12L53.28 285.84L52.56 285.84L52.56 288L51.84 288L51.84 290.16L51.12 290.16L51.12 293.76L50.4 293.76L50.4 295.92L49.68 295.92L49.68 301.68L48.96 301.68L48.96 318.24L49.68 318.24L49.68 321.12L50.4 321.12L50.4 322.56L51.12 322.56L51.12 324L51.84 324L51.84 325.44L52.56 325.44L52.56 326.88L53.28 326.88L53.28 328.32L54 328.32L54 329.04L54.72 329.04L54.72 329.76L55.44 329.76L55.44 331.92L56.16 331.92L56.16 332.64L56.88 332.64L56.88 334.08L57.6 334.08L57.6 336.24L58.32 336.24L58.32 337.68L59.04 337.68L59.04 338.4L59.76 338.4L59.76 339.84L60.48 339.84L60.48 346.32L61.2 346.32L61.2 347.76L61.92 347.76L61.92 349.92L62.64 349.92L62.64 351.36L63.36 351.36L63.36 352.8L64.08 352.8L64.08 354.96L64.8 354.96L64.8 357.84L65.52 357.84L65.52 360L66.24 360L66.24 362.88L66.96 362.88L66.96 364.32L67.68 364.32L67.68 365.04L68.4 365.04L68.4 367.2L69.12 367.2L69.12 368.64L69.84 368.64L69.84 369.36L70.56 369.36L70.56 370.08L71.28 370.08L71.28 370.8L72 370.8L72 371.52L72.72 371.52L72.72 372.24L73.44 372.24L73.44 372.96L74.16 372.96L74.16 373.68L74.88 373.68L74.88 374.4L75.6 374.4L75.6 375.84L76.32 375.84L76.32 377.28L77.04 377.28L77.04 378.72L77.76 378.72L77.76 379.44L78.48 379.44L78.48 380.16L79.2 380.16L79.2 380.88L79.92 380.88L79.92 381.6L80.64 381.6L80.64 382.32L81.36 382.32L81.36 383.04L82.08 383.04L82.08 383.76L82.8 383.76L82.8 384.48L83.52 384.48L83.52 385.2L84.24 385.2L84.24 385.92L84.96 385.92L84.96 386.64L85.68 386.64L85.68 388.08L86.4 388.08L86.4 388.8L87.12 388.8L87.12 389.52L87.84 389.52L87.84 390.24L88.56 390.24L88.56 390.96L89.28 390.96L89.28 391.68L90 391.68L90 392.4L90.72 392.4L90.72 393.12L92.16 393.12L92.16 393.84L92.88 393.84L92.88 394.56L91.44 394.56L91.44 395.28L90.72 395.28L90.72 396L89.28 396L89.28 396.72L88.56 396.72L88.56 397.44L86.4 397.44L86.4 398.16L84.96 398.16L84.96 398.88L84.24 398.88L84.24 399.6L83.52 399.6L83.52 400.32L82.8 400.32L82.8 401.04L81.36 401.04L81.36 401.76L79.92 401.76L79.92 402.48L78.48 402.48L78.48 403.2L77.76 403.2L77.76 403.92L77.04 403.92L77.04 404.64L76.32 404.64L76.32 405.36L74.88 405.36L74.88 406.08L74.16 406.08L74.16 406.8L73.44 406.8L73.44 407.52L72.72 407.52L72.72 408.24L72 408.24L72 408.96L70.56 408.96L70.56 409.68L69.84 409.68L69.84 410.4L68.4 410.4L68.4 411.12L66.96 411.12L66.96 411.84L66.24 411.84L66.24 412.56L65.52 412.56L65.52 413.28L64.8 413.28L64.8 414L63.36 414L63.36 414.72L61.92 414.72L61.92 415.44L60.48 415.44L60.48 416.16L59.76 416.16L59.76 416.88L59.04 416.88L59.04 417.6L58.32 417.6L58.32 418.32L56.88 418.32L56.88 419.04L56.16 419.04L56.16 419.76L54.72 419.76L54.72 420.48L54 420.48L54 421.2L52.56 421.2L52.56 421.92L51.84 421.92L51.84 422.64L51.12 422.64L51.12 423.36L49.68 423.36L49.68 424.08L48.96 424.08L48.96 424.8L48.24 424.8L48.24 425.52L46.8 425.52L46.8 426.24L46.08 426.24L46.08 426.96L45.36 426.96L45.36 427.68L44.64 427.68L44.64 428.4L43.92 428.4L43.92 429.12L43.2 429.12L43.2 429.84L42.48 429.84L42.48 430.56L41.76 430.56L41.76 431.28L41.04 431.28L41.04 432L40.32 432L40.32 432.72L39.6 432.72L39.6 434.16L38.88 434.16L38.88 435.6L38.16 435.6L38.16 436.32L37.44 436.32L37.44 437.76L36.72 437.76L36.72 439.2L36 439.2L36 440.64L35.28 440.64L35.28 441.36L34.56 441.36L34.56 442.08L33.84 442.08L33.84 442.8L33.12 442.8L33.12 443.52L32.4 443.52L32.4 444.96L31.68 444.96L31.68 445.68L30.96 445.68L30.96 446.4L30.24 446.4L30.24 447.12L29.52 447.12L29.52 447.84L28.8 447.84L28.8 448.56L28.08 448.56L28.08 450L27.36 450L27.36 451.44L26.64 451.44L26.64 452.16L25.92 452.16L25.92 452.88L25.2 452.88L25.2 453.6L24.48 453.6L24.48 454.32L23.76 454.32L23.76 455.04L23.04 455.04L23.04 455.76L22.32 455.76L22.32 457.2L21.6 457.2L21.6 457.92L20.88 457.92L20.88 458.64L20.16 458.64L20.16 459.36L19.44 459.36L19.44 460.08L18.72 460.08L18.72 460.8L18 460.8L18 461.52L17.28 461.52L17.28 462.24L16.56 462.24L16.56 462.96L15.84 462.96L15.84 463.68L15.12 463.68L15.12 464.4L14.4 464.4L14.4 465.12L13.68 465.12L13.68 466.56L12.96 466.56L12.96 468L12.24 468L12.24 468.72L11.52 468.72L11.52 469.44L10.8 469.44L10.8 470.88L10.08 470.88L10.08 471.6L9.36 471.6L9.36 472.32L8.64 472.32L8.64 473.76L7.92 473.76L7.92 474.48L7.2 474.48L7.2 475.92L6.48 475.92L6.48 476.64L5.76 476.64L5.76 478.08L5.04 478.08L5.04 478.8L4.32 478.8L4.32 480.24L3.6 480.24L3.6 481.68L2.88 481.68L2.88 482.4L2.16 482.4L2.16 483.84L1.44 483.84L1.44 486L0.72 486L0.72 487.44L0 487.44L0 503.28L0.72 503.28L0.72 504.72L1.44 504.72L1.44 506.88L2.16 506.88L2.16 509.76L2.88 509.76L2.88 511.92L3.6 511.92L3.6 514.8L4.32 514.8L4.32 516.24L5.04 516.24L5.04 518.4L5.76 518.4L5.76 519.12L6.48 519.12L6.48 519.84L7.2 519.84L7.2 520.56L7.92 520.56L7.92 521.28L9.36 521.28L9.36 522L10.8 522L10.8 522.72L12.24 522.72L12.24 523.44L23.76 523.44L23.76 522.72L29.52 522.72L29.52 522L31.68 522L31.68 521.28L36 521.28L36 520.56L38.16 520.56L38.16 519.84L39.6 519.84L39.6 519.12L41.76 519.12L41.76 518.4L42.48 518.4L42.48 517.68L43.92 517.68L43.92 516.96L46.08 516.96L46.08 516.24L46.8 516.24L46.8 515.52L48.24 515.52L48.24 514.8L49.68 514.8L49.68 514.08L51.12 514.08L51.12 513.36L51.84 513.36L51.84 512.64L52.56 512.64L52.56 511.92L53.28 511.92L53.28 511.2L54.72 511.2L54.72 510.48L55.44 510.48L55.44 509.76L56.16 509.76L56.16 508.32L56.88 508.32L56.88 507.6L57.6 507.6L57.6 506.88L59.04 506.88L59.04 505.44L59.76 505.44L59.76 504.72L60.48 504.72L60.48 504L61.92 504L61.92 503.28L62.64 503.28L62.64 501.84L63.36 501.84L63.36 500.4L64.08 500.4L64.08 499.68L64.8 499.68L64.8 498.96L65.52 498.96L65.52 498.24L66.24 498.24L66.24 497.52L66.96 497.52L66.96 496.8L67.68 496.8L67.68 494.64L68.4 494.64L68.4 493.92L69.12 493.92L69.12 493.2L69.84 493.2L69.84 491.76L70.56 491.76L70.56 491.04L71.28 491.04L71.28 490.32L72 490.32L72 488.88L72.72 488.88L72.72 488.16L73.44 488.16L73.44 486.72L74.16 486.72L74.16 486L74.88 486L74.88 485.28L75.6 485.28L75.6 484.56L76.32 484.56L76.32 483.84L77.04 483.84L77.04 483.12L77.76 483.12L77.76 481.68L78.48 481.68L78.48 480.96L79.2 480.96L79.2 479.52L79.92 479.52L79.92 478.8L80.64 478.8L80.64 477.36L81.36 477.36L81.36 476.64L82.08 476.64L82.08 475.92L82.8 475.92L82.8 475.2L83.52 475.2L83.52 474.48L84.24 474.48L84.24 473.76L84.96 473.76L84.96 473.04L85.68 473.04L85.68 472.32L86.4 472.32L86.4 471.6L87.12 471.6L87.12 470.88L87.84 470.88L87.84 470.16L88.56 470.16L88.56 469.44L90 469.44L90 468.72L90.72 468.72L90.72 467.28L91.44 467.28L91.44 466.56L92.16 466.56L92.16 465.84L93.6 465.84L93.6 465.12L94.32 465.12L94.32 464.4L96.48 464.4L96.48 463.68L97.92 463.68L97.92 462.96L111.6 462.96L111.6 462.24L116.64 462.24L116.64 461.52L118.08 461.52L118.08 460.8L121.68 460.8L121.68 460.08L123.84 460.08L123.84 459.36L125.28 459.36L125.28 458.64L127.44 458.64L127.44 457.92L132.48 457.92L132.48 457.2L133.92 457.2L133.92 456.48L134.64 456.48L134.64 455.76L136.8 455.76L136.8 455.04L138.24 455.04L138.24 454.32L139.68 454.32L139.68 453.6L141.12 453.6L141.12 452.88L142.56 452.88L142.56 452.16L143.28 452.16L143.28 451.44L145.44 451.44L145.44 450.72L146.88 450.72L146.88 450L147.6 450L147.6 449.28L148.32 449.28L148.32 448.56L149.76 448.56L149.76 447.84L151.2 447.84L151.2 447.12L152.64 447.12L152.64 446.4L153.36 446.4L153.36 445.68L154.8 445.68L154.8 444.96L156.24 444.96L156.24 444.24L157.68 444.24L157.68 443.52L159.12 443.52L159.12 442.8L159.84 442.8L159.84 442.08L160.56 442.08L160.56 441.36L162 441.36L162 440.64L162.72 440.64L162.72 439.92L163.44 439.92L163.44 439.2L164.16 439.2L164.16 438.48L165.6 438.48L165.6 437.76L166.32 437.76L166.32 437.04L167.04 437.04L167.04 436.32L167.76 436.32L167.76 435.6L168.48 435.6L168.48 434.88L169.2 434.88L169.2 434.16L170.64 434.16L170.64 433.44L171.36 433.44L171.36 432.72L172.8 432.72L172.8 432L173.52 432L173.52 431.28L174.24 431.28L174.24 430.56L175.68 430.56L175.68 429.84L176.4 429.84L176.4 429.12L177.12 429.12L177.12 428.4L177.84 428.4L177.84 427.68L178.56 427.68L178.56 426.96L179.28 426.96L179.28 426.24L180 426.24L180 425.52L180.72 425.52L180.72 424.8L181.44 424.8L181.44 424.08L182.16 424.08L182.16 423.36L184.32 423.36L184.32 424.08L186.48 424.08L186.48 424.8L187.92 424.8L187.92 425.52L191.52 425.52L191.52 426.24L193.68 426.24L193.68 426.96L195.12 426.96L195.12 427.68L199.44 427.68L199.44 428.4L204.48 428.4L204.48 429.12L205.92 429.12L205.92 429.84L262.8 429.84L262.8 429.12L264.96 429.12L264.96 428.4L282.24 428.4L282.24 427.68L289.44 427.68L289.44 426.96L291.6 426.96L291.6 426.24L297.36 426.24L297.36 425.52L301.68 425.52L301.68 424.8L303.12 424.8L303.12 424.08L306 424.08L306 423.36L309.6 423.36L309.6 422.64L311.76 422.64L311.76 421.92L315.36 421.92L315.36 421.2L316.8 421.2L316.8 420.48L318.24 420.48L318.24 419.76L322.56 419.76L322.56 419.04L324 419.04L324 418.32L325.44 418.32L325.44 417.6L329.04 417.6L329.04 416.88L332.64 416.88L332.64 416.16L334.8 416.16L334.8 415.44L337.68 415.44L337.68 414.72L339.84 414.72L339.84 414L341.28 414L341.28 413.28L343.44 413.28L343.44 412.56L347.76 412.56L347.76 411.84L349.2 411.84L349.2 411.12L352.08 411.12L352.08 410.4L354.24 410.4L354.24 409.68L355.68 409.68L355.68 408.96L358.56 408.96L358.56 408.24L361.44 408.24L361.44 407.52L362.88 407.52L362.88 406.8L364.32 406.8L364.32 406.08L366.48 406.08L366.48 405.36L367.92 405.36L367.92 404.64L370.8 404.64L370.8 403.92L372.24 403.92L372.24 403.2L374.4 403.2L374.4 402.48L375.84 402.48L375.84 401.76L377.28 401.76L377.28 401.04L378.72 401.04L378.72 400.32L380.88 400.32L380.88 399.6L383.76 399.6L383.76 403.2L384.48 403.2L384.48 403.92L385.2 403.92L385.2 404.64L385.92 404.64L385.92 406.08L386.64 406.08L386.64 407.52L387.36 407.52L387.36 408.24L388.08 408.24L388.08 410.4L388.8 410.4L388.8 411.84L389.52 411.84L389.52 412.56L390.24 412.56L390.24 414.72L390.96 414.72L390.96 416.16L391.68 416.16L391.68 416.88L392.4 416.88L392.4 418.32L393.12 418.32L393.12 420.48L393.84 420.48L393.84 421.92L394.56 421.92L394.56 422.64L395.28 422.64L395.28 423.36L396 423.36L396 424.8L396.72 424.8L396.72 425.52L397.44 425.52L397.44 426.96L398.16 426.96L398.16 428.4L398.88 428.4L398.88 429.84L399.6 429.84L399.6 430.56L400.32 430.56L400.32 431.28L401.04 431.28L401.04 432.72L401.76 432.72L401.76 433.44L402.48 433.44L402.48 434.88L403.2 434.88L403.2 435.6L403.92 435.6L403.92 436.32L404.64 436.32L404.64 438.48L405.36 438.48L405.36 439.2L406.08 439.2L406.08 439.92L406.8 439.92L406.8 440.64L407.52 440.64L407.52 441.36L408.24 441.36L408.24 442.08L408.96 442.08L408.96 442.8L409.68 442.8L409.68 443.52L410.4 443.52L410.4 444.96L411.12 444.96L411.12 445.68L411.84 445.68L411.84 446.4L412.56 446.4L412.56 447.12L413.28 447.12L413.28 447.84L414 447.84L414 448.56L414.72 448.56L414.72 449.28L415.44 449.28L415.44 450L416.16 450L416.16 451.44L416.88 451.44L416.88 452.88L417.6 452.88L417.6 453.6L418.32 453.6L418.32 454.32L419.04 454.32L419.04 455.04L419.76 455.04L419.76 455.76L420.48 455.76L420.48 456.48L421.2 456.48L421.2 457.2L421.92 457.2L421.92 457.92L422.64 457.92L422.64 458.64L423.36 458.64L423.36 459.36L424.08 459.36L424.08 460.08L424.8 460.08L424.8 460.8L425.52 460.8L425.52 461.52L426.24 461.52L426.24 462.24L426.96 462.24L426.96 462.96L427.68 462.96L427.68 463.68L428.4 463.68L428.4 464.4L429.12 464.4L429.12 465.12L429.84 465.12L429.84 465.84L430.56 465.84L430.56 466.56L431.28 466.56L431.28 467.28L432.72 467.28L432.72 468L433.44 468L433.44 468.72L434.16 468.72L434.16 469.44L434.88 469.44L434.88 470.16L436.32 470.16L436.32 470.88L437.04 470.88L437.04 471.6L437.76 471.6L437.76 472.32L438.48 472.32L438.48 473.04L439.2 473.04L439.2 473.76L440.64 473.76L440.64 474.48L441.36 474.48L441.36 475.2L442.08 475.2L442.08 475.92L442.8 475.92L442.8 476.64L443.52 476.64L443.52 477.36L444.24 477.36L444.24 478.08L444.96 478.08L444.96 478.8L446.4 478.8L446.4 479.52L447.12 479.52L447.12 480.24L447.84 480.24L447.84 480.96L449.28 480.96L449.28 481.68L450 481.68L450 482.4L450.72 482.4L450.72 483.12L451.44 483.12L451.44 483.84L452.16 483.84L452.16 484.56L453.6 484.56L453.6 485.28L454.32 485.28L454.32 486L455.04 486L455.04 486.72L456.48 486.72L456.48 487.44L457.92 487.44L457.92 488.16L458.64 488.16L458.64 488.88L460.08 488.88L460.08 489.6L460.8 489.6L460.8 490.32L462.24 490.32L462.24 491.04L462.96 491.04L462.96 491.76L464.4 491.76L464.4 492.48L465.12 492.48L465.12 493.2L466.56 493.2L466.56 493.92L467.28 493.92L467.28 494.64L468.72 494.64L468.72 495.36L470.16 495.36L470.16 496.08L471.6 496.08L471.6 496.8L473.04 496.8L473.04 497.52L474.48 497.52L474.48 498.24L476.64 498.24L476.64 498.96L477.36 498.96L477.36 499.68L480.24 499.68L480.24 500.4L481.68 500.4L481.68 501.12L482.4 501.12L482.4 501.84L486 501.84L486 502.56L487.44 502.56L487.44 503.28L501.12 503.28L501.12 502.56L502.56 502.56L502.56 501.84L507.6 501.84L507.6 501.12L509.04 501.12L509.04 500.4L509.76 500.4L509.76 499.68L510.48 499.68L510.48 498.96L511.2 498.96L511.2 498.24L511.92 498.24L511.92 497.52L512.64 497.52L512.64 496.8L513.36 496.8L513.36 496.08L514.8 496.08L514.8 495.36L515.52 495.36L515.52 493.92L516.24 493.92L516.24 493.2L516.96 493.2L516.96 492.48L517.68 492.48L517.68 491.04L518.4 491.04L518.4 489.6L519.12 489.6L519.12 488.16L519.84 488.16L519.84 486.72L520.56 486.72L520.56 465.84L519.84 465.84L519.84 463.68L519.12 463.68L519.12 462.24L518.4 462.24L518.4 460.8L517.68 460.8L517.68 460.08L516.96 460.08L516.96 458.64L516.24 458.64L516.24 457.2L515.52 457.2L515.52 455.76L514.8 455.76L514.8 454.32L514.08 454.32L514.08 453.6L513.36 453.6L513.36 451.44L512.64 451.44L512.64 450L511.92 450L511.92 449.28L511.2 449.28L511.2 447.12L510.48 447.12L510.48 445.68L509.76 445.68L509.76 443.52L509.04 443.52L509.04 442.08L508.32 442.08L508.32 441.36L507.6 441.36L507.6 440.64L506.88 440.64L506.88 439.2L506.16 439.2L506.16 437.04L505.44 437.04L505.44 436.32L504.72 436.32L504.72 435.6L504 435.6L504 434.88L503.28 434.88L503.28 432.72L502.56 432.72L502.56 431.28L501.84 431.28L501.84 430.56L501.12 430.56L501.12 429.84L500.4 429.84L500.4 428.4L499.68 428.4L499.68 427.68L498.96 427.68L498.96 426.96L498.24 426.96L498.24 426.24L497.52 426.24L497.52 425.52L496.8 425.52L496.8 424.8L496.08 424.8L496.08 424.08L495.36 424.08L495.36 422.64L494.64 422.64L494.64 421.92L493.92 421.92L493.92 420.48L493.2 420.48L493.2 419.04L492.48 419.04L492.48 418.32L491.76 418.32L491.76 417.6L491.04 417.6L491.04 416.16L490.32 416.16L490.32 415.44L489.6 415.44L489.6 414L488.88 414L488.88 413.28L488.16 413.28L488.16 412.56L487.44 412.56L487.44 411.84L486.72 411.84L486.72 411.12L486 411.12L486 408.96L485.28 408.96L485.28 407.52L484.56 407.52L484.56 406.8L483.84 406.8L483.84 406.08L483.12 406.08L483.12 405.36L482.4 405.36L482.4 403.92L481.68 403.92L481.68 403.2L480.96 403.2L480.96 401.76L480.24 401.76L480.24 400.32L479.52 400.32L479.52 399.6L478.8 399.6L478.8 398.88L478.08 398.88L478.08 398.16L477.36 398.16L477.36 397.44L476.64 397.44L476.64 396.72L475.92 396.72L475.92 395.28L475.2 395.28L475.2 394.56L474.48 394.56L474.48 393.84L473.76 393.84L473.76 393.12L473.04 393.12L473.04 392.4L472.32 392.4L472.32 391.68L471.6 391.68L471.6 390.96L470.88 390.96L470.88 389.52L470.16 389.52L470.16 388.8L469.44 388.8L469.44 387.36L468.72 387.36L468.72 386.64L468 386.64L468 385.92L467.28 385.92L467.28 385.2L466.56 385.2L466.56 384.48L465.84 384.48L465.84 383.04L465.12 383.04L465.12 382.32L464.4 382.32L464.4 380.88L463.68 380.88L463.68 380.16L462.96 380.16L462.96 379.44L462.24 379.44L462.24 378.72L461.52 378.72L461.52 378L460.8 378L460.8 375.84L460.08 375.84L460.08 375.12L459.36 375.12L459.36 373.68L458.64 373.68L458.64 372.24L457.92 372.24L457.92 370.8L457.2 370.8L457.2 370.08L456.48 370.08L456.48 368.64L455.04 368.64L455.04 367.92L454.32 367.92L454.32 366.48L453.6 366.48L453.6 365.76L452.88 365.76L452.88 364.32L452.16 364.32L452.16 363.6L451.44 363.6L451.44 362.16L450.72 362.16L450.72 361.44L450 361.44L450 360L449.28 360L449.28 358.56L448.56 358.56L448.56 356.4L447.84 356.4L447.84 354.96L447.12 354.96L447.12 350.64L447.84 350.64L447.84 348.48L448.56 348.48L448.56 346.32L449.28 346.32L449.28 345.6L450 345.6L450 344.88L450.72 344.88L450.72 344.16L451.44 344.16L451.44 343.44L452.16 343.44L452.16 342.72L452.88 342.72L452.88 342L453.6 342L453.6 341.28L454.32 341.28L454.32 340.56L455.76 340.56L455.76 339.84L457.2 339.84L457.2 339.12L457.92 339.12L457.92 338.4L458.64 338.4L458.64 337.68L460.08 337.68L460.08 336.96L460.8 336.96L460.8 336.24L462.24 336.24L462.24 335.52L462.96 335.52L462.96 334.8L464.4 334.8L464.4 334.08L465.84 334.08L465.84 333.36L466.56 333.36L466.56 332.64L468.72 332.64L468.72 331.92L470.16 331.92L470.16 331.2L470.88 331.2L470.88 330.48L471.6 330.48L471.6 329.76L473.04 329.76L473.04 329.04L475.92 329.04L475.92 328.32L476.64 328.32L476.64 327.6L478.08 327.6L478.08 326.88L480.96 326.88L480.96 326.16L482.4 326.16L482.4 325.44L483.84 325.44L483.84 324.72L486 324.72L486 324L487.44 324L487.44 323.28L488.88 323.28L488.88 322.56L491.76 322.56L491.76 321.84L495.36 321.84L495.36 321.12L496.8 321.12L496.8 320.4L500.4 320.4L500.4 319.68L502.56 319.68L502.56 318.96L504 318.96L504 318.24L505.44 318.24L505.44 317.52L515.52 317.52L515.52 316.8L519.84 316.8L519.84 316.08L523.44 316.08L523.44 315.36L526.32 315.36L526.32 314.64L528.48 314.64L528.48 313.92L530.64 313.92L530.64 313.2L532.8 313.2L532.8 312.48L534.24 312.48L534.24 311.76L536.4 311.76L536.4 311.04L537.84 311.04L537.84 310.32L539.28 310.32L539.28 309.6L540.72 309.6L540.72 308.88L542.16 308.88L542.16 308.16L543.6 308.16L543.6 307.44L544.32 307.44L544.32 306.72L545.76 306.72L545.76 306L547.2 306L547.2 305.28L547.92 305.28L547.92 304.56L548.64 304.56L548.64 303.84L550.08 303.84L550.08 303.12L550.8 303.12L550.8 302.4L552.24 302.4L552.24 301.68L552.96 301.68L552.96 300.96L553.68 300.96L553.68 300.24L554.4 300.24L554.4 299.52L555.12 299.52L555.12 298.8L555.84 298.8L555.84 298.08L557.28 298.08L557.28 297.36L558 297.36L558 296.64L558.72 296.64L558.72 295.92L559.44 295.92L559.44 295.2L560.16 295.2L560.16 294.48L560.88 294.48L560.88 293.04L561.6 293.04L561.6 292.32L562.32 292.32L562.32 291.6L563.04 291.6L563.04 290.88L563.76 290.88L563.76 290.16L564.48 290.16L564.48 289.44L565.2 289.44L565.2 288L565.92 288L565.92 287.28L566.64 287.28L566.64 285.84L567.36 285.84L567.36 285.12L568.08 285.12L568.08 284.4L568.8 284.4L568.8 282.96L569.52 282.96L569.52 281.52L570.24 281.52L570.24 280.8L570.96 280.8L570.96 279.36L571.68 279.36L571.68 277.92L572.4 277.92L572.4 276.48L573.12 276.48L573.12 275.04L573.84 275.04L573.84 273.6L574.56 273.6L574.56 271.44L575.28 271.44L575.28 270L576 270L576 267.84L576.72 267.84L576.72 265.68L577.44 265.68L577.44 263.52L578.16 263.52L578.16 260.64L578.88 260.64L578.88 257.04L579.6 257.04L579.6 252.72L580.32 252.72L580.32 234L579.6 234L579.6 229.68L578.88 229.68L578.88 226.08L578.16 226.08L578.16 223.2L577.44 223.2L577.44 221.04L576.72 221.04L576.72 218.88L576 218.88L576 216.72L575.28 216.72L575.28 215.28L574.56 215.28L574.56 213.12L573.84 213.12L573.84 211.68L573.12 211.68L573.12 210.24L572.4 210.24L572.4 208.8L571.68 208.8L571.68 207.36L570.96 207.36L570.96 205.92L570.24 205.92L570.24 205.2L569.52 205.2L569.52 203.76L568.8 203.76L568.8 202.32L568.08 202.32L568.08 201.6L567.36 201.6L567.36 200.88L566.64 200.88L566.64 199.44L565.92 199.44L565.92 198.72L565.2 198.72L565.2 197.28L564.48 197.28L564.48 196.56L563.76 196.56L563.76 195.84L563.04 195.84L563.04 195.12L562.32 195.12L562.32 194.4L561.6 194.4L561.6 193.68L560.88 193.68L560.88 192.24L560.16 192.24L560.16 191.52L559.44 191.52L559.44 190.8L558.72 190.8L558.72 190.08L558 190.08L558 189.36L557.28 189.36L557.28 188.64L555.84 188.64L555.84 187.92L555.12 187.92L555.12 187.2L554.4 187.2L554.4 186.48L553.68 186.48L553.68 185.76L552.96 185.76L552.96 185.04L552.24 185.04L552.24 184.32L550.8 184.32L550.8 183.6L550.08 183.6L550.08 182.88L548.64 182.88L548.64 182.16L547.92 182.16L547.92 181.44L547.2 181.44L547.2 180.72L545.76 180.72L545.76 180L544.32 180L544.32 179.28L543.6 179.28L543.6 178.56L542.16 178.56L542.16 177.84L540.72 177.84L540.72 177.12L539.28 177.12L539.28 176.4L537.84 176.4L537.84 175.68L536.4 175.68L536.4 174.96L534.24 174.96L534.24 174.24L532.8 174.24L532.8 173.52L530.64 173.52L530.64 172.8L528.48 172.8L528.48 172.08L526.32 172.08L526.32 171.36L523.44 171.36L523.44 167.76L522.72 167.76L522.72 161.28L522 161.28L522 158.4L521.28 158.4L521.28 149.76L520.56 149.76L520.56 146.16L519.84 146.16L519.84 142.56L519.12 142.56L519.12 141.84L519.84 141.84L519.84 140.4L519.12 140.4L519.12 133.92L518.4 133.92L518.4 129.6L517.68 129.6L517.68 125.28L516.96 125.28L516.96 120.24L516.24 120.24L516.24 115.92L515.52 115.92L515.52 113.76L514.8 113.76L514.8 110.16L514.08 110.16L514.08 107.28L513.36 107.28L513.36 104.4L512.64 104.4L512.64 100.8L511.92 100.8L511.92 97.92L511.2 97.92L511.2 95.04L510.48 95.04L510.48 92.16L509.76 92.16L509.76 89.28L509.04 89.28L509.04 85.68L508.32 85.68L508.32 82.8L507.6 82.8L507.6 79.92L506.88 79.92L506.88 76.32L506.16 76.32L506.16 73.44L505.44 73.44L505.44 69.84L504.72 69.84L504.72 66.96L504 66.96L504 61.92L503.28 61.92L503.28 59.04L502.56 59.04L502.56 56.88L501.84 56.88L501.84 54.72L501.12 54.72L501.12 51.12L500.4 51.12L500.4 46.08L499.68 46.08L499.68 43.92L498.96 43.92L498.96 41.76L498.24 41.76L498.24 40.32L497.52 40.32L497.52 38.16L496.8 38.16L496.8 36L496.08 36L496.08 34.56L495.36 34.56L495.36 33.12L494.64 33.12L494.64 31.68L493.92 31.68L493.92 30.24L493.2 30.24L493.2 29.52L492.48 29.52L492.48 28.08L491.76 28.08L491.76 26.64L491.04 26.64L491.04 25.2L490.32 25.2L490.32 23.76L489.6 23.76L489.6 23.04L488.88 23.04L488.88 21.6L488.16 21.6L488.16 20.88L487.44 20.88L487.44 19.44L486.72 19.44L486.72 18.72L486 18.72L486 18L485.28 18L485.28 16.56L484.56 16.56L484.56 15.84L483.12 15.84L483.12 14.4L482.4 14.4L482.4 13.68L480.96 13.68L480.96 12.96L480.24 12.96L480.24 12.24L479.52 12.24L479.52 11.52L478.08 11.52L478.08 10.8L477.36 10.8L477.36 10.08L476.64 10.08L476.64 9.36L475.92 9.36L475.92 8.64L474.48 8.64L474.48 7.92L473.76 7.92L473.76 7.2L472.32 7.2L472.32 6.48L470.88 6.48L470.88 5.76L470.16 5.76L470.16 5.04L468.72 5.04L468.72 4.32L468 4.32L468 3.6L466.56 3.6L466.56 2.88L464.4 2.88L464.4 2.16L462.96 2.16L462.96 1.44L461.52 1.44L461.52 0.72L458.64 0.72L458.64 0L439.2 0M442.08 14.4L455.76 14.4L455.76 15.12L457.92 15.12L457.92 15.84L460.08 15.84L460.08 16.56L461.52 16.56L461.52 17.28L462.24 17.28L462.24 18L463.68 18L463.68 18.72L464.4 18.72L464.4 19.44L465.84 19.44L465.84 20.16L466.56 20.16L466.56 20.88L468 20.88L468 21.6L468.72 21.6L468.72 22.32L469.44 22.32L469.44 23.04L470.16 23.04L470.16 23.76L471.6 23.76L471.6 24.48L472.32 24.48L472.32 25.2L473.04 25.2L473.04 25.92L473.76 25.92L473.76 26.64L474.48 26.64L474.48 27.36L475.2 27.36L475.2 28.08L475.92 28.08L475.92 29.52L476.64 29.52L476.64 30.24L477.36 30.24L477.36 31.68L478.08 31.68L478.08 33.12L478.8 33.12L478.8 34.56L479.52 34.56L479.52 36.72L480.24 36.72L480.24 37.44L480.96 37.44L480.96 38.16L481.68 38.16L481.68 39.6L482.4 39.6L482.4 41.04L483.12 41.04L483.12 42.48L483.84 42.48L483.84 44.64L484.56 44.64L484.56 46.08L485.28 46.08L485.28 48.96L486 48.96L486 53.28L486.72 53.28L486.72 56.88L487.44 56.88L487.44 59.76L488.16 59.76L488.16 61.92L488.88 61.92L488.88 64.8L489.6 64.8L489.6 68.4L490.32 68.4L490.32 72L491.04 72L491.04 75.6L491.76 75.6L491.76 79.2L492.48 79.2L492.48 82.08L493.2 82.08L493.2 85.68L493.92 85.68L493.92 88.56L494.64 88.56L494.64 91.44L495.36 91.44L495.36 95.04L496.08 95.04L496.08 96.48L496.8 96.48L496.8 99.36L497.52 99.36L497.52 103.68L498.24 103.68L498.24 105.84L498.96 105.84L498.96 109.44L499.68 109.44L499.68 111.6L500.4 111.6L500.4 115.2L501.12 115.2L501.12 118.08L501.84 118.08L501.84 123.12L502.56 123.12L502.56 126.72L503.28 126.72L503.28 131.76L504 131.76L504 136.08L504.72 136.08L504.72 140.4L505.44 140.4L505.44 148.32L506.16 148.32L506.16 151.92L506.88 151.92L506.88 159.12L507.6 159.12L507.6 164.16L508.32 164.16L508.32 169.2L496.8 169.2L496.8 169.92L492.48 169.92L492.48 170.64L488.88 170.64L488.88 169.92L488.16 169.92L488.16 167.76L487.44 167.76L487.44 164.88L486.72 164.88L486.72 161.28L486 161.28L486 159.12L485.28 159.12L485.28 154.8L484.56 154.8L484.56 151.2L483.84 151.2L483.84 148.32L483.12 148.32L483.12 145.44L482.4 145.44L482.4 142.56L481.68 142.56L481.68 139.68L480.96 139.68L480.96 137.52L480.24 137.52L480.24 133.92L479.52 133.92L479.52 128.16L478.8 128.16L478.8 125.28L478.08 125.28L478.08 122.4L477.36 122.4L477.36 119.52L476.64 119.52L476.64 116.64L475.92 116.64L475.92 114.48L475.2 114.48L475.2 111.6L474.48 111.6L474.48 109.44L473.76 109.44L473.76 106.56L473.04 106.56L473.04 104.4L472.32 104.4L472.32 100.8L471.6 100.8L471.6 99.36L470.88 99.36L470.88 96.48L470.16 96.48L470.16 93.6L469.44 93.6L469.44 92.16L468.72 92.16L468.72 89.28L468 89.28L468 86.4L467.28 86.4L467.28 84.96L466.56 84.96L466.56 82.8L465.84 82.8L465.84 81.36L465.12 81.36L465.12 78.48L464.4 78.48L464.4 77.04L463.68 77.04L463.68 75.6L462.96 75.6L462.96 74.16L462.24 74.16L462.24 71.28L461.52 71.28L461.52 70.56L460.8 70.56L460.8 68.4L460.08 68.4L460.08 66.96L459.36 66.96L459.36 66.24L458.64 66.24L458.64 64.8L457.92 64.8L457.92 63.36L457.2 63.36L457.2 61.92L456.48 61.92L456.48 60.48L455.76 60.48L455.76 59.04L455.04 59.04L455.04 57.6L454.32 57.6L454.32 56.88L453.6 56.88L453.6 55.44L452.88 55.44L452.88 54.72L452.16 54.72L452.16 53.28L451.44 53.28L451.44 52.56L450.72 52.56L450.72 51.84L450 51.84L450 51.12L449.28 51.12L449.28 49.68L448.56 49.68L448.56 48.96L447.84 48.96L447.84 48.24L447.12 48.24L447.12 47.52L446.4 47.52L446.4 46.8L445.68 46.8L445.68 45.36L444.96 45.36L444.96 44.64L444.24 44.64L444.24 43.92L443.52 43.92L443.52 43.2L442.8 43.2L442.8 42.48L442.08 42.48L442.08 41.76L441.36 41.76L441.36 41.04L440.64 41.04L440.64 40.32L439.92 40.32L439.92 39.6L439.2 39.6L439.2 38.16L438.48 38.16L438.48 37.44L437.76 37.44L437.76 36.72L437.04 36.72L437.04 32.4L436.32 32.4L436.32 25.2L435.6 25.2L435.6 20.16L436.32 20.16L436.32 19.44L437.04 19.44L437.04 18.72L437.76 18.72L437.76 17.28L438.48 17.28L438.48 16.56L439.2 16.56L439.2 15.84L440.64 15.84L440.64 15.12L442.08 15.12L442.08 14.4M380.88 20.88L387.36 20.88L387.36 21.6L390.96 21.6L390.96 22.32L393.84 22.32L393.84 23.04L396 23.04L396 23.76L398.16 23.76L398.16 24.48L399.6 24.48L399.6 25.2L401.04 25.2L401.04 25.92L402.48 25.92L402.48 26.64L403.92 26.64L403.92 27.36L405.36 27.36L405.36 28.08L406.8 28.08L406.8 28.8L407.52 28.8L407.52 29.52L408.24 29.52L408.24 30.24L409.68 30.24L409.68 30.96L410.4 30.96L410.4 31.68L411.12 31.68L411.12 32.4L411.84 32.4L411.84 33.12L413.28 33.12L413.28 33.84L414 33.84L414 34.56L414.72 34.56L414.72 35.28L416.16 35.28L416.16 36L416.88 36L416.88 36.72L417.6 36.72L417.6 37.44L418.32 37.44L418.32 38.16L419.04 38.16L419.04 38.88L419.76 38.88L419.76 39.6L420.48 39.6L420.48 40.32L421.2 40.32L421.2 41.04L421.92 41.04L421.92 41.76L422.64 41.76L422.64 42.48L423.36 42.48L423.36 43.2L424.08 43.2L424.08 43.92L424.8 43.92L424.8 44.64L425.52 44.64L425.52 45.36L426.24 45.36L426.24 46.8L426.96 46.8L426.96 47.52L427.68 47.52L427.68 48.24L428.4 48.24L428.4 48.96L429.12 48.96L429.12 49.68L429.84 49.68L429.84 50.4L430.56 50.4L430.56 51.12L431.28 51.12L431.28 51.84L432 51.84L432 52.56L432.72 52.56L432.72 54L433.44 54L433.44 54.72L434.16 54.72L434.16 55.44L434.88 55.44L434.88 56.16L435.6 56.16L435.6 56.88L436.32 56.88L436.32 57.6L437.04 57.6L437.04 58.32L437.76 58.32L437.76 59.76L438.48 59.76L438.48 60.48L439.2 60.48L439.2 61.92L439.92 61.92L439.92 62.64L440.64 62.64L440.64 63.36L441.36 63.36L441.36 64.08L442.08 64.08L442.08 65.52L442.8 65.52L442.8 66.96L443.52 66.96L443.52 67.68L444.24 67.68L444.24 69.84L444.96 69.84L444.96 70.56L445.68 70.56L445.68 72L446.4 72L446.4 73.44L447.12 73.44L447.12 74.88L447.84 74.88L447.84 77.04L448.56 77.04L448.56 78.48L449.28 78.48L449.28 79.92L450 79.92L450 81.36L450.72 81.36L450.72 83.52L451.44 83.52L451.44 85.68L452.16 85.68L452.16 87.12L452.88 87.12L452.88 90L453.6 90L453.6 91.44L454.32 91.44L454.32 94.32L455.04 94.32L455.04 96.48L455.76 96.48L455.76 99.36L456.48 99.36L456.48 101.52L457.2 101.52L457.2 103.68L457.92 103.68L457.92 106.56L458.64 106.56L458.64 109.44L459.36 109.44L459.36 111.6L460.08 111.6L460.08 114.48L460.8 114.48L460.8 117.36L461.52 117.36L461.52 118.8L462.24 118.8L462.24 122.4L462.96 122.4L462.96 123.84L463.68 123.84L463.68 128.16L464.4 128.16L464.4 130.32L465.12 130.32L465.12 135.36L465.84 135.36L465.84 139.68L466.56 139.68L466.56 142.56L467.28 142.56L467.28 145.44L468 145.44L468 147.6L468.72 147.6L468.72 150.48L469.44 150.48L469.44 154.08L470.16 154.08L470.16 156.96L470.88 156.96L470.88 160.56L471.6 160.56L471.6 163.44L472.32 163.44L472.32 167.04L473.04 167.04L473.04 169.92L473.76 169.92L473.76 172.8L474.48 172.8L474.48 174.96L475.2 174.96L475.2 175.68L474.48 175.68L474.48 176.4L473.04 176.4L473.04 177.12L471.6 177.12L471.6 177.84L470.16 177.84L470.16 178.56L468.72 178.56L468.72 179.28L468 179.28L468 180L466.56 180L466.56 180.72L465.12 180.72L465.12 181.44L464.4 181.44L464.4 182.16L463.68 182.16L463.68 182.88L462.24 182.88L462.24 183.6L461.52 183.6L461.52 184.32L460.08 184.32L460.08 185.04L459.36 185.04L459.36 185.76L458.64 185.76L458.64 186.48L457.92 186.48L457.92 187.2L457.2 187.2L457.2 187.92L456.48 187.92L456.48 188.64L455.04 188.64L455.04 189.36L454.32 189.36L454.32 190.08L453.6 190.08L453.6 190.8L452.88 190.8L452.88 191.52L452.16 191.52L452.16 192.24L451.44 192.24L451.44 193.68L450.72 193.68L450.72 194.4L450 194.4L450 195.12L449.28 195.12L449.28 195.84L448.56 195.84L448.56 196.56L447.84 196.56L447.84 197.28L447.12 197.28L447.12 198.72L446.4 198.72L446.4 198L445.68 198L445.68 197.28L444.24 197.28L444.24 196.56L442.8 196.56L442.8 195.84L440.64 195.84L440.64 195.12L439.92 195.12L439.92 194.4L438.48 194.4L438.48 193.68L437.04 193.68L437.04 192.96L434.88 192.96L434.88 192.24L434.16 192.24L434.16 191.52L432.72 191.52L432.72 190.8L431.28 190.8L431.28 190.08L429.84 190.08L429.84 189.36L429.12 189.36L429.12 188.64L427.68 188.64L427.68 187.92L425.52 187.92L425.52 187.2L424.8 187.2L424.8 186.48L423.36 186.48L423.36 185.76L421.92 185.76L421.92 185.04L421.2 185.04L421.2 184.32L420.48 184.32L420.48 183.6L419.76 183.6L419.76 182.88L419.04 182.88L419.04 182.16L417.6 182.16L417.6 181.44L416.88 181.44L416.88 180.72L416.16 180.72L416.16 180L414.72 180L414.72 179.28L414 179.28L414 177.84L413.28 177.84L413.28 177.12L412.56 177.12L412.56 176.4L411.84 176.4L411.84 175.68L411.12 175.68L411.12 174.96L410.4 174.96L410.4 174.24L409.68 174.24L409.68 173.52L408.96 173.52L408.96 172.8L408.24 172.8L408.24 172.08L407.52 172.08L407.52 171.36L406.8 171.36L406.8 169.92L406.08 169.92L406.08 169.2L405.36 169.2L405.36 168.48L404.64 168.48L404.64 167.04L403.92 167.04L403.92 166.32L403.2 166.32L403.2 164.88L402.48 164.88L402.48 164.16L401.76 164.16L401.76 163.44L401.04 163.44L401.04 162.72L400.32 162.72L400.32 161.28L399.6 161.28L399.6 160.56L398.88 160.56L398.88 159.12L398.16 159.12L398.16 158.4L397.44 158.4L397.44 156.96L396.72 156.96L396.72 156.24L396 156.24L396 154.8L395.28 154.8L395.28 153.36L394.56 153.36L394.56 151.92L393.84 151.92L393.84 150.48L393.12 150.48L393.12 149.04L392.4 149.04L392.4 147.6L391.68 147.6L391.68 145.44L390.96 145.44L390.96 144L390.24 144L390.24 143.28L389.52 143.28L389.52 141.84L388.8 141.84L388.8 139.68L388.08 139.68L388.08 138.24L387.36 138.24L387.36 136.8L386.64 136.8L386.64 135.36L385.92 135.36L385.92 133.2L385.2 133.2L385.2 131.76L384.48 131.76L384.48 130.32L383.76 130.32L383.76 127.44L383.04 127.44L383.04 126L382.32 126L382.32 123.12L381.6 123.12L381.6 120.96L380.88 120.96L380.88 118.8L380.16 118.8L380.16 116.64L379.44 116.64L379.44 113.76L378.72 113.76L378.72 112.32L378 112.32L378 110.16L377.28 110.16L377.28 108L376.56 108L376.56 105.84L375.84 105.84L375.84 102.24L375.12 102.24L375.12 99.36L374.4 99.36L374.4 97.2L373.68 97.2L373.68 94.32L372.96 94.32L372.96 92.16L372.24 92.16L372.24 90L371.52 90L371.52 87.84L370.8 87.84L370.8 85.68L370.08 85.68L370.08 82.8L369.36 82.8L369.36 79.92L368.64 79.92L368.64 77.04L367.92 77.04L367.92 73.44L367.2 73.44L367.2 70.56L366.48 70.56L366.48 65.52L365.76 65.52L365.76 62.64L365.04 62.64L365.04 58.32L364.32 58.32L364.32 54L363.6 54L363.6 50.4L362.88 50.4L362.88 41.76L363.6 41.76L363.6 38.88L364.32 38.88L364.32 36L365.04 36L365.04 33.84L365.76 33.84L365.76 32.4L366.48 32.4L366.48 31.68L367.2 31.68L367.2 30.96L367.92 30.96L367.92 30.24L368.64 30.24L368.64 29.52L369.36 29.52L369.36 28.8L370.08 28.8L370.08 28.08L370.8 28.08L370.8 26.64L371.52 26.64L371.52 25.92L372.24 25.92L372.24 25.2L373.68 25.2L373.68 24.48L375.12 24.48L375.12 23.76L376.56 23.76L376.56 23.04L378 23.04L378 22.32L379.44 22.32L379.44 21.6L380.88 21.6L380.88 20.88M100.08 118.08L100.08 118.8L98.64 118.8L98.64 119.52L97.2 119.52L97.2 120.24L96.48 120.24L96.48 121.68L95.76 121.68L95.76 123.12L95.04 123.12L95.04 127.44L95.76 127.44L95.76 128.88L96.48 128.88L96.48 130.32L97.2 130.32L97.2 131.04L98.64 131.04L98.64 131.76L100.08 131.76L100.08 132.48L183.6 132.48L183.6 131.76L185.04 131.76L185.04 131.04L185.76 131.04L185.76 130.32L186.48 130.32L186.48 129.6L187.2 129.6L187.2 128.16L187.92 128.16L187.92 122.4L187.2 122.4L187.2 120.96L186.48 120.96L186.48 120.24L185.76 120.24L185.76 119.52L185.04 119.52L185.04 118.8L183.6 118.8L183.6 118.08L100.08 118.08M45.36 123.84L45.36 124.56L43.2 124.56L43.2 125.28L42.48 125.28L42.48 126L41.76 126L41.76 126.72L41.04 126.72L41.04 128.16L40.32 128.16L40.32 133.92L41.04 133.92L41.04 135.36L41.76 135.36L41.76 136.08L42.48 136.08L42.48 136.8L43.2 136.8L43.2 137.52L45.36 137.52L45.36 138.24L75.6 138.24L75.6 137.52L77.04 137.52L77.04 136.8L77.76 136.8L77.76 136.08L78.48 136.08L78.48 135.36L79.2 135.36L79.2 133.92L79.92 133.92L79.92 128.16L79.2 128.16L79.2 126.72L78.48 126.72L78.48 126L77.76 126L77.76 125.28L77.04 125.28L77.04 124.56L75.6 124.56L75.6 123.84L45.36 123.84M67.68 168.48L67.68 169.2L66.24 169.2L66.24 169.92L64.8 169.92L64.8 170.64L64.08 170.64L64.08 171.36L63.36 171.36L63.36 172.8L62.64 172.8L62.64 178.56L63.36 178.56L63.36 180L64.08 180L64.08 180.72L64.8 180.72L64.8 181.44L66.24 181.44L66.24 182.16L67.68 182.16L67.68 182.88L169.2 182.88L169.2 182.16L170.64 182.16L170.64 181.44L171.36 181.44L171.36 180.72L172.08 180.72L172.08 180L172.8 180L172.8 178.56L173.52 178.56L173.52 172.8L172.8 172.8L172.8 171.36L172.08 171.36L172.08 170.64L171.36 170.64L171.36 169.92L170.64 169.92L170.64 169.2L169.2 169.2L169.2 168.48L67.68 168.48M7.2 172.8L7.2 173.52L5.04 173.52L5.04 174.24L4.32 174.24L4.32 174.96L3.6 174.96L3.6 175.68L2.88 175.68L2.88 177.12L2.16 177.12L2.16 182.88L2.88 182.88L2.88 184.32L3.6 184.32L3.6 185.04L4.32 185.04L4.32 185.76L5.04 185.76L5.04 186.48L7.2 186.48L7.2 187.2L43.92 187.2L43.92 186.48L45.36 186.48L45.36 185.76L46.08 185.76L46.08 185.04L46.8 185.04L46.8 184.32L47.52 184.32L47.52 182.88L48.24 182.88L48.24 177.12L47.52 177.12L47.52 175.68L46.8 175.68L46.8 174.96L46.08 174.96L46.08 174.24L45.36 174.24L45.36 173.52L43.92 173.52L43.92 172.8L7.2 172.8M501.84 184.32L510.48 184.32L510.48 185.04L516.24 185.04L516.24 185.76L519.84 185.76L519.84 186.48L522 186.48L522 187.2L524.88 187.2L524.88 187.92L526.32 187.92L526.32 188.64L528.48 188.64L528.48 189.36L529.92 189.36L529.92 190.08L531.36 190.08L531.36 190.8L532.8 190.8L532.8 191.52L534.24 191.52L534.24 192.24L535.68 192.24L535.68 192.96L537.12 192.96L537.12 193.68L537.84 193.68L537.84 194.4L539.28 194.4L539.28 195.12L540 195.12L540 195.84L540.72 195.84L540.72 196.56L542.16 196.56L542.16 197.28L542.88 197.28L542.88 198L543.6 198L543.6 198.72L544.32 198.72L544.32 199.44L545.04 199.44L545.04 200.16L545.76 200.16L545.76 200.88L546.48 200.88L546.48 201.6L547.2 201.6L547.2 202.32L547.92 202.32L547.92 203.04L548.64 203.04L548.64 203.76L549.36 203.76L549.36 204.48L550.08 204.48L550.08 205.2L550.8 205.2L550.8 205.92L551.52 205.92L551.52 206.64L552.24 206.64L552.24 208.08L552.96 208.08L552.96 208.8L553.68 208.8L553.68 210.24L554.4 210.24L554.4 210.96L555.12 210.96L555.12 212.4L555.84 212.4L555.84 213.12L556.56 213.12L556.56 214.56L557.28 214.56L557.28 216L558 216L558 217.44L558.72 217.44L558.72 218.88L559.44 218.88L559.44 221.04L560.16 221.04L560.16 222.48L560.88 222.48L560.88 224.64L561.6 224.64L561.6 227.52L562.32 227.52L562.32 230.4L563.04 230.4L563.04 234.72L563.76 234.72L563.76 249.84L563.04 249.84L563.04 254.16L562.32 254.16L562.32 257.04L561.6 257.04L561.6 259.92L560.88 259.92L560.88 262.08L560.16 262.08L560.16 263.52L559.44 263.52L559.44 265.68L558.72 265.68L558.72 267.12L558 267.12L558 268.56L557.28 268.56L557.28 270L556.56 270L556.56 271.44L555.84 271.44L555.84 272.16L555.12 272.16L555.12 273.6L554.4 273.6L554.4 274.32L553.68 274.32L553.68 275.76L552.96 275.76L552.96 276.48L552.24 276.48L552.24 277.92L551.52 277.92L551.52 278.64L550.8 278.64L550.8 279.36L550.08 279.36L550.08 280.08L549.36 280.08L549.36 280.8L548.64 280.8L548.64 281.52L547.92 281.52L547.92 282.24L547.2 282.24L547.2 282.96L546.48 282.96L546.48 283.68L545.76 283.68L545.76 284.4L545.04 284.4L545.04 285.12L544.32 285.12L544.32 285.84L543.6 285.84L543.6 286.56L542.88 286.56L542.88 287.28L542.16 287.28L542.16 288L540.72 288L540.72 288.72L540 288.72L540 289.44L539.28 289.44L539.28 290.16L537.84 290.16L537.84 290.88L537.12 290.88L537.12 291.6L535.68 291.6L535.68 292.32L534.24 292.32L534.24 293.04L532.8 293.04L532.8 293.76L531.36 293.76L531.36 294.48L529.92 294.48L529.92 295.2L528.48 295.2L528.48 295.92L526.32 295.92L526.32 296.64L524.88 296.64L524.88 297.36L522 297.36L522 298.08L519.84 298.08L519.84 298.8L516.24 298.8L516.24 299.52L510.48 299.52L510.48 300.24L501.84 300.24L501.84 299.52L496.08 299.52L496.08 298.8L492.48 298.8L492.48 298.08L490.32 298.08L490.32 297.36L487.44 297.36L487.44 296.64L486 296.64L486 295.92L483.84 295.92L483.84 295.2L482.4 295.2L482.4 294.48L480.96 294.48L480.96 293.76L479.52 293.76L479.52 293.04L478.08 293.04L478.08 292.32L476.64 292.32L476.64 291.6L475.2 291.6L475.2 290.88L474.48 290.88L474.48 290.16L473.04 290.16L473.04 289.44L472.32 289.44L472.32 288.72L471.6 288.72L471.6 288L470.16 288L470.16 287.28L469.44 287.28L469.44 286.56L468.72 286.56L468.72 285.84L468 285.84L468 285.12L467.28 285.12L467.28 284.4L466.56 284.4L466.56 283.68L465.84 283.68L465.84 282.96L465.12 282.96L465.12 282.24L464.4 282.24L464.4 281.52L463.68 281.52L463.68 280.8L462.96 280.8L462.96 280.08L462.24 280.08L462.24 279.36L461.52 279.36L461.52 278.64L460.8 278.64L460.8 277.92L460.08 277.92L460.08 276.48L459.36 276.48L459.36 275.76L458.64 275.76L458.64 274.32L457.92 274.32L457.92 273.6L457.2 273.6L457.2 272.16L456.48 272.16L456.48 271.44L455.76 271.44L455.76 270L455.04 270L455.04 268.56L454.32 268.56L454.32 267.12L453.6 267.12L453.6 265.68L452.88 265.68L452.88 263.52L452.16 263.52L452.16 262.08L451.44 262.08L451.44 259.92L450.72 259.92L450.72 257.04L450 257.04L450 254.16L449.28 254.16L449.28 249.84L448.56 249.84L448.56 234.72L449.28 234.72L449.28 230.4L450 230.4L450 227.52L450.72 227.52L450.72 224.64L451.44 224.64L451.44 222.48L452.16 222.48L452.16 221.04L452.88 221.04L452.88 218.88L453.6 218.88L453.6 217.44L454.32 217.44L454.32 216L455.04 216L455.04 214.56L455.76 214.56L455.76 213.12L456.48 213.12L456.48 212.4L457.2 212.4L457.2 210.96L457.92 210.96L457.92 210.24L458.64 210.24L458.64 208.8L459.36 208.8L459.36 208.08L460.08 208.08L460.08 206.64L460.8 206.64L460.8 205.92L461.52 205.92L461.52 205.2L462.24 205.2L462.24 204.48L462.96 204.48L462.96 203.76L463.68 203.76L463.68 203.04L464.4 203.04L464.4 202.32L465.12 202.32L465.12 201.6L465.84 201.6L465.84 200.88L466.56 200.88L466.56 200.16L467.28 200.16L467.28 199.44L468 199.44L468 198.72L468.72 198.72L468.72 198L469.44 198L469.44 197.28L470.16 197.28L470.16 196.56L471.6 196.56L471.6 195.84L472.32 195.84L472.32 195.12L473.04 195.12L473.04 194.4L474.48 194.4L474.48 193.68L475.2 193.68L475.2 192.96L476.64 192.96L476.64 192.24L478.08 192.24L478.08 191.52L479.52 191.52L479.52 190.8L480.96 190.8L480.96 190.08L482.4 190.08L482.4 189.36L483.84 189.36L483.84 188.64L486 188.64L486 187.92L487.44 187.92L487.44 187.2L490.32 187.2L490.32 186.48L492.48 186.48L492.48 185.76L496.08 185.76L496.08 185.04L501.84 185.04L501.84 184.32M239.04 259.92C259.703 259.92 278.693 259.92 298.08 259.92L298.08 260.64L300.24 260.64L300.24 261.36L310.32 261.36L310.32 262.08L317.52 262.08L317.52 262.8L318.96 262.8L318.96 263.52L362.16 263.52L362.16 262.8L363.6 262.8L363.6 262.08L434.16 262.08L434.16 263.52L434.88 263.52L434.88 265.68L435.6 265.68L435.6 267.84L436.32 267.84L436.32 270L437.04 270L437.04 271.44L437.76 271.44L437.76 273.6L438.48 273.6L438.48 275.04L439.2 275.04L439.2 276.48L439.92 276.48L439.92 277.92L440.64 277.92L440.64 279.36L441.36 279.36L441.36 280.8L442.08 280.8L442.08 281.52L442.8 281.52L442.8 282.96L443.52 282.96L443.52 284.4L444.24 284.4L444.24 285.12L444.96 285.12L444.96 285.84L445.68 285.84L445.68 287.28L446.4 287.28L446.4 288L447.12 288L447.12 289.44L447.84 289.44L447.84 290.16L448.56 290.16L448.56 290.88L449.28 290.88L449.28 291.6L450 291.6L450 292.32L450.72 292.32L450.72 293.04L451.44 293.04L451.44 294.48L452.16 294.48L452.16 295.2L452.88 295.2L452.88 295.92L453.6 295.92L453.6 296.64L454.32 296.64L454.32 297.36L455.04 297.36L455.04 298.08L456.48 298.08L456.48 298.8L457.2 298.8L457.2 299.52L457.92 299.52L457.92 300.24L458.64 300.24L458.64 300.96L459.36 300.96L459.36 301.68L460.08 301.68L460.08 302.4L461.52 302.4L461.52 303.12L462.24 303.12L462.24 303.84L463.68 303.84L463.68 304.56L464.4 304.56L464.4 305.28L465.12 305.28L465.12 306L466.56 306L466.56 306.72L468 306.72L468 307.44L468.72 307.44L468.72 308.16L470.16 308.16L470.16 308.88L471.6 308.88L471.6 309.6L473.04 309.6L473.04 310.32L474.48 310.32L474.48 311.04L475.92 311.04L475.92 312.48L474.48 312.48L474.48 313.2L472.32 313.2L472.32 313.92L470.88 313.92L470.88 314.64L468.72 314.64L468.72 315.36L468 315.36L468 316.08L465.84 316.08L465.84 316.8L464.4 316.8L464.4 317.52L462.96 317.52L462.96 318.24L462.24 318.24L462.24 318.96L460.8 318.96L460.8 319.68L458.64 319.68L458.64 320.4L457.92 320.4L457.92 321.12L457.2 321.12L457.2 321.84L455.76 321.84L455.76 322.56L454.32 322.56L454.32 323.28L452.88 323.28L452.88 324L452.16 324L452.16 324.72L451.44 324.72L451.44 325.44L450 325.44L450 326.16L449.28 326.16L449.28 326.88L447.84 326.88L447.84 327.6L447.12 327.6L447.12 328.32L445.68 328.32L445.68 329.04L444.96 329.04L444.96 329.76L444.24 329.76L444.24 330.48L442.8 330.48L442.8 331.2L442.08 331.2L442.08 332.64L441.36 332.64L441.36 333.36L440.64 333.36L440.64 334.08L439.2 334.08L439.2 335.52L438.48 335.52L438.48 336.24L437.76 336.24L437.76 336.96L437.04 336.96L437.04 337.68L436.32 337.68L436.32 338.4L435.6 338.4L435.6 339.12L434.88 339.12L434.88 340.56L434.16 340.56L434.16 344.88L433.44 344.88L433.44 360L434.16 360L434.16 362.88L434.88 362.88L434.88 364.32L435.6 364.32L435.6 365.76L436.32 365.76L436.32 367.2L437.04 367.2L437.04 369.36L437.76 369.36L437.76 370.08L438.48 370.08L438.48 370.8L439.2 370.8L439.2 372.24L439.92 372.24L439.92 372.96L440.64 372.96L440.64 373.68L441.36 373.68L441.36 374.4L442.08 374.4L442.08 375.84L442.8 375.84L442.8 376.56L443.52 376.56L443.52 378L444.24 378L444.24 378.72L444.96 378.72L444.96 379.44L445.68 379.44L445.68 380.88L446.4 380.88L446.4 382.32L447.12 382.32L447.12 383.76L447.84 383.76L447.84 384.48L448.56 384.48L448.56 385.2L449.28 385.2L449.28 386.64L450 386.64L450 388.08L450.72 388.08L450.72 388.8L451.44 388.8L451.44 389.52L452.16 389.52L452.16 390.24L452.88 390.24L452.88 391.68L453.6 391.68L453.6 393.12L454.32 393.12L454.32 393.84L455.04 393.84L455.04 394.56L455.76 394.56L455.76 395.28L456.48 395.28L456.48 396L457.2 396L457.2 396.72L457.92 396.72L457.92 397.44L458.64 397.44L458.64 399.6L459.36 399.6L459.36 400.32L460.08 400.32L460.08 401.04L460.8 401.04L460.8 401.76L461.52 401.76L461.52 402.48L462.24 402.48L462.24 403.2L462.96 403.2L462.96 403.92L463.68 403.92L463.68 404.64L464.4 404.64L464.4 405.36L465.12 405.36L465.12 406.08L465.84 406.08L465.84 407.52L466.56 407.52L466.56 408.24L467.28 408.24L467.28 408.96L468 408.96L468 410.4L468.72 410.4L468.72 411.84L469.44 411.84L469.44 412.56L470.16 412.56L470.16 413.28L470.88 413.28L470.88 414.72L471.6 414.72L471.6 415.44L472.32 415.44L472.32 416.16L473.04 416.16L473.04 417.6L473.76 417.6L473.76 419.04L474.48 419.04L474.48 419.76L475.2 419.76L475.2 421.2L475.92 421.2L475.92 421.92L476.64 421.92L476.64 423.36L477.36 423.36L477.36 424.08L478.08 424.08L478.08 424.8L478.8 424.8L478.8 426.24L479.52 426.24L479.52 426.96L480.24 426.96L480.24 427.68L480.96 427.68L480.96 428.4L481.68 428.4L481.68 429.84L482.4 429.84L482.4 432L483.12 432L483.12 432.72L483.84 432.72L483.84 433.44L484.56 433.44L484.56 434.16L485.28 434.16L485.28 434.88L486 434.88L486 435.6L486.72 435.6L486.72 436.32L487.44 436.32L487.44 437.04L488.16 437.04L488.16 438.48L488.88 438.48L488.88 439.2L489.6 439.2L489.6 440.64L490.32 440.64L490.32 441.36L491.04 441.36L491.04 442.8L491.76 442.8L491.76 444.24L492.48 444.24L492.48 444.96L493.2 444.96L493.2 446.4L493.92 446.4L493.92 447.12L494.64 447.12L494.64 448.56L495.36 448.56L495.36 450L496.08 450L496.08 451.44L496.8 451.44L496.8 452.88L497.52 452.88L497.52 455.04L498.24 455.04L498.24 457.2L498.96 457.2L498.96 457.92L499.68 457.92L499.68 459.36L500.4 459.36L500.4 461.52L501.12 461.52L501.12 462.24L501.84 462.24L501.84 462.96L502.56 462.96L502.56 465.12L503.28 465.12L503.28 466.56L504 466.56L504 467.28L504.72 467.28L504.72 468.72L505.44 468.72L505.44 470.88L506.16 470.88L506.16 472.32L506.88 472.32L506.88 480.96L506.16 480.96L506.16 482.4L505.44 482.4L505.44 483.12L504.72 483.12L504.72 485.28L503.28 485.28L503.28 486L502.56 486L502.56 486.72L501.84 486.72L501.84 487.44L501.12 487.44L501.12 488.16L496.8 488.16L496.8 488.88L491.04 488.88L491.04 488.16L488.88 488.16L488.88 487.44L487.44 487.44L487.44 486.72L485.28 486.72L485.28 486L483.84 486L483.84 485.28L481.68 485.28L481.68 484.56L480.24 484.56L480.24 483.84L479.52 483.84L479.52 483.12L478.08 483.12L478.08 482.4L476.64 482.4L476.64 481.68L475.2 481.68L475.2 480.96L474.48 480.96L474.48 480.24L473.04 480.24L473.04 479.52L471.6 479.52L471.6 478.8L470.88 478.8L470.88 478.08L470.16 478.08L470.16 477.36L468.72 477.36L468.72 476.64L467.28 476.64L467.28 475.92L466.56 475.92L466.56 475.2L465.12 475.2L465.12 474.48L463.68 474.48L463.68 473.76L462.24 473.76L462.24 473.04L461.52 473.04L461.52 472.32L460.8 472.32L460.8 471.6L460.08 471.6L460.08 470.88L459.36 470.88L459.36 470.16L457.92 470.16L457.92 469.44L457.2 469.44L457.2 468.72L455.76 468.72L455.76 468L455.04 468L455.04 467.28L454.32 467.28L454.32 466.56L453.6 466.56L453.6 465.84L452.88 465.84L452.88 465.12L451.44 465.12L451.44 464.4L450.72 464.4L450.72 463.68L450 463.68L450 462.96L449.28 462.96L449.28 462.24L448.56 462.24L448.56 461.52L447.84 461.52L447.84 460.8L447.12 460.8L447.12 460.08L446.4 460.08L446.4 459.36L444.96 459.36L444.96 458.64L444.24 458.64L444.24 457.92L443.52 457.92L443.52 457.2L442.8 457.2L442.8 456.48L442.08 456.48L442.08 455.76L440.64 455.76L440.64 455.04L439.92 455.04L439.92 454.32L439.2 454.32L439.2 452.88L437.76 452.88L437.76 452.16L437.04 452.16L437.04 451.44L436.32 451.44L436.32 450L435.6 450L435.6 449.28L434.16 449.28L434.16 448.56L433.44 448.56L433.44 447.84L432.72 447.84L432.72 446.4L431.28 446.4L431.28 445.68L430.56 445.68L430.56 444.96L429.84 444.96L429.84 444.24L429.12 444.24L429.12 443.52L428.4 443.52L428.4 442.08L427.68 442.08L427.68 440.64L426.96 440.64L426.96 439.92L426.24 439.92L426.24 439.2L425.52 439.2L425.52 438.48L424.8 438.48L424.8 437.76L424.08 437.76L424.08 437.04L423.36 437.04L423.36 436.32L422.64 436.32L422.64 435.6L421.92 435.6L421.92 434.16L421.2 434.16L421.2 433.44L420.48 433.44L420.48 432.72L419.76 432.72L419.76 432L419.04 432L419.04 431.28L418.32 431.28L418.32 430.56L417.6 430.56L417.6 429.12L416.88 429.12L416.88 428.4L416.16 428.4L416.16 427.68L415.44 427.68L415.44 426.24L414.72 426.24L414.72 424.8L414 424.8L414 424.08L413.28 424.08L413.28 422.64L412.56 422.64L412.56 421.92L411.84 421.92L411.84 420.48L411.12 420.48L411.12 419.76L410.4 419.76L410.4 419.04L409.68 419.04L409.68 417.6L408.96 417.6L408.96 416.16L408.24 416.16L408.24 415.44L407.52 415.44L407.52 414L406.8 414L406.8 412.56L406.08 412.56L406.08 411.84L405.36 411.84L405.36 409.68L404.64 409.68L404.64 408.24L403.92 408.24L403.92 406.8L403.2 406.8L403.2 405.36L402.48 405.36L402.48 403.92L401.76 403.92L401.76 402.48L401.04 402.48L401.04 401.76L400.32 401.76L400.32 401.04L399.6 401.04L399.6 399.6L398.88 399.6L398.88 398.16L398.16 398.16L398.16 396.72L397.44 396.72L397.44 394.56L396.72 394.56L396.72 393.12L396 393.12L396 392.4L395.28 392.4L395.28 390.96L394.56 390.96L394.56 388.08L393.84 388.08L393.84 386.64L393.12 386.64L393.12 384.48L392.4 384.48L392.4 383.04L391.68 383.04L391.68 380.88L390.96 380.88L390.96 380.16L390.24 380.16L390.24 378.72L389.52 378.72L389.52 376.56L388.8 376.56L388.8 374.4L388.08 374.4L388.08 373.68L387.36 373.68L387.36 372.24L386.64 372.24L386.64 370.8L385.92 370.8L385.92 369.36L385.2 369.36L385.2 367.92L384.48 367.92L384.48 367.2L383.76 367.2L383.76 366.48L383.04 366.48L383.04 365.76L381.6 365.76L381.6 365.04L375.84 365.04L375.84 365.76L374.4 365.76L374.4 366.48L373.68 366.48L373.68 367.2L372.96 367.2L372.96 367.92L372.24 367.92L372.24 369.36L371.52 369.36L371.52 374.4L372.24 374.4L372.24 376.56L372.96 376.56L372.96 378L373.68 378L373.68 379.44L374.4 379.44L374.4 380.88L375.12 380.88L375.12 383.04L375.84 383.04L375.84 384.48L376.56 384.48L376.56 385.92L375.84 385.92L375.84 386.64L372.96 386.64L372.96 387.36L371.52 387.36L371.52 388.08L370.08 388.08L370.08 388.8L368.64 388.8L368.64 389.52L366.48 389.52L366.48 390.24L365.04 390.24L365.04 390.96L362.88 390.96L362.88 391.68L360.72 391.68L360.72 392.4L358.56 392.4L358.56 393.12L356.4 393.12L356.4 393.84L354.24 393.84L354.24 394.56L352.8 394.56L352.8 395.28L350.64 395.28L350.64 396L347.76 396L347.76 396.72L345.6 396.72L345.6 397.44L342 397.44L342 398.16L340.56 398.16L340.56 398.88L338.4 398.88L338.4 399.6L334.8 399.6L334.8 400.32L333.36 400.32L333.36 401.04L331.92 401.04L331.92 401.76L328.32 401.76L328.32 402.48L325.44 402.48L325.44 403.2L324 403.2L324 403.92L320.4 403.92L320.4 404.64L317.52 404.64L317.52 405.36L315.36 405.36L315.36 406.08L313.2 406.08L313.2 406.8L311.04 406.8L311.04 407.52L309.6 407.52L309.6 408.24L306 408.24L306 408.96L303.12 408.96L303.12 409.68L300.96 409.68L300.96 410.4L297.36 410.4L297.36 411.12L292.32 411.12L292.32 411.84L290.88 411.84L290.88 412.56L286.56 412.56L286.56 413.28L277.2 413.28L277.2 414L275.76 414L275.76 414.72L258.48 414.72L258.48 415.44L210.96 415.44L210.96 414.72L205.2 414.72L205.2 414L203.04 414L203.04 413.28L200.16 413.28L200.16 412.56L197.28 412.56L197.28 411.84L195.84 411.84L195.84 411.12L192.24 411.12L192.24 410.4L190.08 410.4L190.08 409.68L187.92 409.68L187.92 408.96L183.6 408.96L183.6 408.24L174.96 408.24L174.96 408.96L173.52 408.96L173.52 409.68L172.8 409.68L172.8 410.4L172.08 410.4L172.08 411.84L171.36 411.84L171.36 413.28L170.64 413.28L170.64 414.72L169.92 414.72L169.92 415.44L169.2 415.44L169.2 416.16L168.48 416.16L168.48 416.88L167.76 416.88L167.76 417.6L167.04 417.6L167.04 418.32L166.32 418.32L166.32 419.04L164.88 419.04L164.88 419.76L164.16 419.76L164.16 420.48L163.44 420.48L163.44 421.2L162.72 421.2L162.72 421.92L161.28 421.92L161.28 422.64L160.56 422.64L160.56 423.36L159.12 423.36L159.12 424.08L158.4 424.08L158.4 424.8L157.68 424.8L157.68 425.52L156.96 425.52L156.96 426.24L156.24 426.24L156.24 426.96L154.8 426.96L154.8 427.68L154.08 427.68L154.08 428.4L153.36 428.4L153.36 429.12L151.92 429.12L151.92 429.84L151.2 429.84L151.2 430.56L149.76 430.56L149.76 431.28L149.04 431.28L149.04 432L146.88 432L146.88 432.72L145.44 432.72L145.44 433.44L144.72 433.44L144.72 434.16L144 434.16L144 434.88L142.56 434.88L142.56 435.6L141.84 435.6L141.84 436.32L140.4 436.32L140.4 437.04L138.96 437.04L138.96 437.76L138.24 437.76L138.24 438.48L136.08 438.48L136.08 439.2L134.64 439.2L134.64 439.92L133.92 439.92L133.92 440.64L133.2 440.64L133.2 441.36L131.04 441.36L131.04 442.08L129.6 442.08L129.6 442.8L127.44 442.8L127.44 443.52L123.84 443.52L123.84 444.24L122.4 444.24L122.4 444.96L118.8 444.96L118.8 445.68L117.36 445.68L117.36 446.4L116.64 446.4L116.64 447.12L113.04 447.12L113.04 447.84L108.72 447.84L108.72 448.56L106.56 448.56L106.56 449.28L92.16 449.28L92.16 450L89.28 450L89.28 450.72L87.84 450.72L87.84 451.44L86.4 451.44L86.4 452.16L85.68 452.16L85.68 452.88L84.96 452.88L84.96 453.6L83.52 453.6L83.52 454.32L82.8 454.32L82.8 455.04L82.08 455.04L82.08 455.76L81.36 455.76L81.36 456.48L80.64 456.48L80.64 457.2L79.92 457.2L79.92 457.92L79.2 457.92L79.2 458.64L78.48 458.64L78.48 459.36L77.76 459.36L77.76 460.08L77.04 460.08L77.04 460.8L76.32 460.8L76.32 461.52L75.6 461.52L75.6 462.24L74.88 462.24L74.88 462.96L74.16 462.96L74.16 463.68L73.44 463.68L73.44 464.4L72.72 464.4L72.72 465.12L72 465.12L72 465.84L71.28 465.84L71.28 466.56L70.56 466.56L70.56 467.28L69.84 467.28L69.84 468.72L69.12 468.72L69.12 469.44L68.4 469.44L68.4 470.88L67.68 470.88L67.68 471.6L66.96 471.6L66.96 472.32L66.24 472.32L66.24 473.04L65.52 473.04L65.52 474.48L64.8 474.48L64.8 475.2L64.08 475.2L64.08 475.92L63.36 475.92L63.36 476.64L62.64 476.64L62.64 478.08L61.92 478.08L61.92 478.8L61.2 478.8L61.2 480.24L60.48 480.24L60.48 480.96L59.76 480.96L59.76 481.68L59.04 481.68L59.04 482.4L58.32 482.4L58.32 483.12L57.6 483.12L57.6 484.56L56.88 484.56L56.88 485.28L56.16 485.28L56.16 486.72L55.44 486.72L55.44 488.16L54.72 488.16L54.72 488.88L54 488.88L54 489.6L53.28 489.6L53.28 490.32L52.56 490.32L52.56 491.04L51.84 491.04L51.84 492.48L51.12 492.48L51.12 493.2L50.4 493.2L50.4 493.92L49.68 493.92L49.68 494.64L48.96 494.64L48.96 495.36L48.24 495.36L48.24 496.08L47.52 496.08L47.52 496.8L46.8 496.8L46.8 497.52L46.08 497.52L46.08 498.24L45.36 498.24L45.36 498.96L44.64 498.96L44.64 499.68L43.92 499.68L43.92 500.4L43.2 500.4L43.2 501.12L42.48 501.12L42.48 501.84L41.04 501.84L41.04 502.56L39.6 502.56L39.6 503.28L38.16 503.28L38.16 504L36.72 504L36.72 504.72L35.28 504.72L35.28 505.44L33.84 505.44L33.84 506.16L30.96 506.16L30.96 506.88L29.52 506.88L29.52 507.6L24.48 507.6L24.48 508.32L19.44 508.32L19.44 509.04L17.28 509.04L17.28 506.16L16.56 506.16L16.56 503.28L15.84 503.28L15.84 501.84L15.12 501.84L15.12 498.24L14.4 498.24L14.4 491.76L15.12 491.76L15.12 489.6L15.84 489.6L15.84 488.88L16.56 488.88L16.56 487.44L17.28 487.44L17.28 486.72L18 486.72L18 485.28L18.72 485.28L18.72 484.56L19.44 484.56L19.44 483.84L20.16 483.84L20.16 481.68L20.88 481.68L20.88 480.96L21.6 480.96L21.6 480.24L22.32 480.24L22.32 479.52L23.04 479.52L23.04 478.8L23.76 478.8L23.76 477.36L24.48 477.36L24.48 476.64L25.2 476.64L25.2 475.2L25.92 475.2L25.92 473.76L26.64 473.76L26.64 473.04L27.36 473.04L27.36 472.32L28.08 472.32L28.08 471.6L28.8 471.6L28.8 470.88L29.52 470.88L29.52 470.16L30.24 470.16L30.24 469.44L30.96 469.44L30.96 468.72L31.68 468.72L31.68 468L32.4 468L32.4 467.28L33.12 467.28L33.12 466.56L33.84 466.56L33.84 465.84L34.56 465.84L34.56 464.4L35.28 464.4L35.28 463.68L36 463.68L36 462.96L36.72 462.96L36.72 462.24L37.44 462.24L37.44 461.52L38.16 461.52L38.16 460.8L38.88 460.8L38.88 460.08L39.6 460.08L39.6 458.64L40.32 458.64L40.32 457.92L41.04 457.92L41.04 456.48L41.76 456.48L41.76 455.76L42.48 455.76L42.48 455.04L43.2 455.04L43.2 454.32L43.92 454.32L43.92 453.6L44.64 453.6L44.64 452.16L45.36 452.16L45.36 451.44L46.08 451.44L46.08 450.72L46.8 450.72L46.8 450L47.52 450L47.52 449.28L48.24 449.28L48.24 447.12L48.96 447.12L48.96 446.4L49.68 446.4L49.68 445.68L50.4 445.68L50.4 444.24L51.12 444.24L51.12 442.8L51.84 442.8L51.84 441.36L53.28 441.36L53.28 440.64L54 440.64L54 439.2L54.72 439.2L54.72 438.48L55.44 438.48L55.44 437.76L56.88 437.76L56.88 437.04L57.6 437.04L57.6 436.32L59.04 436.32L59.04 435.6L59.76 435.6L59.76 434.88L60.48 434.88L60.48 434.16L61.2 434.16L61.2 433.44L62.64 433.44L62.64 432.72L64.08 432.72L64.08 432L64.8 432L64.8 431.28L65.52 431.28L65.52 430.56L66.96 430.56L66.96 429.84L67.68 429.84L67.68 429.12L68.4 429.12L68.4 428.4L69.84 428.4L69.84 427.68L70.56 427.68L70.56 426.96L72 426.96L72 426.24L72.72 426.24L72.72 425.52L73.44 425.52L73.44 424.8L74.88 424.8L74.88 424.08L75.6 424.08L75.6 423.36L77.04 423.36L77.04 422.64L77.76 422.64L77.76 421.92L78.48 421.92L78.48 421.2L79.2 421.2L79.2 420.48L80.64 420.48L80.64 419.76L82.08 419.76L82.08 419.04L82.8 419.04L82.8 418.32L83.52 418.32L83.52 417.6L84.24 417.6L84.24 416.88L84.96 416.88L84.96 416.16L86.4 416.16L86.4 415.44L87.12 415.44L87.12 414.72L88.56 414.72L88.56 414L90 414L90 413.28L90.72 413.28L90.72 412.56L92.16 412.56L92.16 411.84L92.88 411.84L92.88 411.12L93.6 411.12L93.6 410.4L95.76 410.4L95.76 409.68L97.2 409.68L97.2 408.96L97.92 408.96L97.92 408.24L98.64 408.24L98.64 407.52L100.08 407.52L100.08 406.8L101.52 406.8L101.52 406.08L102.24 406.08L102.24 405.36L102.96 405.36L102.96 404.64L104.4 404.64L104.4 403.92L105.12 403.92L105.12 403.2L106.56 403.2L106.56 402.48L108 402.48L108 401.76L108.72 401.76L108.72 401.04L109.44 401.04L109.44 400.32L110.16 400.32L110.16 399.6L110.88 399.6L110.88 398.88L111.6 398.88L111.6 398.16L112.32 398.16L112.32 397.44L113.04 397.44L113.04 396.72L113.76 396.72L113.76 396L114.48 396L114.48 395.28L115.2 395.28L115.2 394.56L116.64 394.56L116.64 393.84L117.36 393.84L117.36 393.12L118.08 393.12L118.08 392.4L119.52 392.4L119.52 390.96L120.24 390.96L120.24 390.24L120.96 390.24L120.96 383.76L120.24 383.76L120.24 383.04L119.52 383.04L119.52 381.6L118.08 381.6L118.08 380.88L117.36 380.88L117.36 380.16L110.16 380.16L110.16 380.88L109.44 380.88L109.44 381.6L107.28 381.6L107.28 382.32L106.56 382.32L106.56 383.04L105.84 383.04L105.84 383.76L104.4 383.76L104.4 384.48L103.68 384.48L103.68 383.76L102.96 383.76L102.96 383.04L102.24 383.04L102.24 382.32L101.52 382.32L101.52 381.6L100.8 381.6L100.8 380.88L99.36 380.88L99.36 380.16L98.64 380.16L98.64 379.44L97.92 379.44L97.92 378.72L97.2 378.72L97.2 378L96.48 378L96.48 377.28L95.76 377.28L95.76 376.56L95.04 376.56L95.04 375.12L94.32 375.12L94.32 374.4L93.6 374.4L93.6 373.68L92.88 373.68L92.88 372.24L92.16 372.24L92.16 371.52L91.44 371.52L91.44 370.8L90 370.8L90 370.08L89.28 370.08L89.28 368.64L88.56 368.64L88.56 367.2L87.84 367.2L87.84 366.48L87.12 366.48L87.12 365.76L86.4 365.76L86.4 364.32L85.68 364.32L85.68 363.6L84.96 363.6L84.96 362.88L84.24 362.88L84.24 362.16L83.52 362.16L83.52 361.44L82.8 361.44L82.8 360.72L82.08 360.72L82.08 360L81.36 360L81.36 357.84L80.64 357.84L80.64 356.4L79.92 356.4L79.92 354.24L79.2 354.24L79.2 351.36L78.48 351.36L78.48 349.2L77.76 349.2L77.76 347.76L77.04 347.76L77.04 342.72L76.32 342.72L76.32 340.56L75.6 340.56L75.6 336.24L74.88 336.24L74.88 335.52L74.16 335.52L74.16 334.08L73.44 334.08L73.44 332.64L72.72 332.64L72.72 331.92L72 331.92L72 331.2L71.28 331.2L71.28 329.04L70.56 329.04L70.56 326.16L69.84 326.16L69.84 324.72L69.12 324.72L69.12 324L68.4 324L68.4 323.28L67.68 323.28L67.68 322.56L66.96 322.56L66.96 320.4L66.24 320.4L66.24 318.96L65.52 318.96L65.52 318.24L64.8 318.24L64.8 316.08L64.08 316.08L64.08 313.92L63.36 313.92L63.36 312.48L62.64 312.48L62.64 306.72L63.36 306.72L63.36 305.28L64.08 305.28L64.08 298.8L64.8 298.8L64.8 295.2L65.52 295.2L65.52 293.76L66.24 293.76L66.24 292.32L66.96 292.32L66.96 290.16L67.68 290.16L67.68 288.72L68.4 288.72L68.4 287.28L69.12 287.28L69.12 285.84L69.84 285.84L69.84 285.12L70.56 285.12L70.56 283.68L71.28 283.68L71.28 282.96L72 282.96L72 282.24L72.72 282.24L72.72 280.8L73.44 280.8L73.44 280.08L74.16 280.08L74.16 278.64L74.88 278.64L74.88 277.92L75.6 277.92L75.6 277.2L76.32 277.2L76.32 276.48L77.04 276.48L77.04 275.76L77.76 275.76L77.76 275.04L79.2 275.04L79.2 274.32L79.92 274.32L79.92 272.88L80.64 272.88L80.64 272.16L81.36 272.16L81.36 271.44L82.8 271.44L82.8 270.72L83.52 270.72L83.52 270L85.68 270L85.68 269.28L87.12 269.28L87.12 268.56L87.84 268.56L87.84 267.84L90.72 267.84L90.72 267.12L92.88 267.12L92.88 266.4L97.2 266.4L97.2 265.68L100.08 265.68L100.08 264.96L101.52 264.96L101.52 264.24L112.32 264.24L112.32 263.52L175.68 263.52L175.68 262.8L177.84 262.8L177.84 262.08L214.56 262.08L214.56 261.36L236.88 261.36L236.88 260.64L239.04 260.64L239.04 259.92M200.88 480.96L200.88 481.68L199.44 481.68L199.44 482.4L198.72 482.4L198.72 483.12L198 483.12L198 483.84L197.28 483.84L197.28 484.56L196.56 484.56L196.56 486L195.84 486L195.84 490.32L196.56 490.32L196.56 491.76L197.28 491.76L197.28 492.48L198 492.48L198 493.2L198.72 493.2L198.72 493.92L199.44 493.92L199.44 494.64L200.88 494.64L200.88 495.36L298.8 495.36L298.8 494.64L300.24 494.64L300.24 493.92L300.96 493.92L300.96 493.2L301.68 493.2L301.68 492.48L302.4 492.48L302.4 491.04L303.12 491.04L303.12 485.28L302.4 485.28L302.4 483.84L301.68 483.84L301.68 483.12L300.96 483.12L300.96 482.4L300.24 482.4L300.24 481.68L298.8 481.68L298.8 480.96L200.88 480.96M138.96 482.4L138.96 483.12L137.52 483.12L137.52 483.84L136.08 483.84L136.08 484.56L135.36 484.56L135.36 485.28L134.64 485.28L134.64 486.72L133.92 486.72L133.92 492.48L134.64 492.48L134.64 493.92L135.36 493.92L135.36 494.64L136.08 494.64L136.08 495.36L137.52 495.36L137.52 496.08L138.96 496.08L138.96 496.8L177.12 496.8L177.12 496.08L178.56 496.08L178.56 495.36L179.28 495.36L179.28 494.64L180 494.64L180 493.92L180.72 493.92L180.72 492.48L181.44 492.48L181.44 486.72L180.72 486.72L180.72 485.28L180 485.28L180 484.56L179.28 484.56L179.28 483.84L178.56 483.84L178.56 483.12L177.12 483.12L177.12 482.4L138.96 482.4M45.36 576.72L45.36 577.44L44.64 577.44L44.64 578.16L43.92 578.16L43.92 578.88L43.2 578.88L43.2 579.6L42.48 579.6L42.48 581.04L41.76 581.04L41.76 586.08L42.48 586.08L42.48 587.52L43.2 587.52L43.2 588.24L43.92 588.24L43.92 588.96L44.64 588.96L44.64 589.68L45.36 589.68L45.36 590.4L79.2 590.4L79.2 589.68L79.92 589.68L79.92 588.96L81.36 588.96L81.36 587.52L82.08 587.52L82.08 586.8L82.8 586.8L82.8 580.32L82.08 580.32L82.08 579.6L81.36 579.6L81.36 578.16L79.92 578.16L79.92 577.44L79.2 577.44L79.2 576.72L45.36 576.72M121.68 579.6L121.68 580.32L120.24 580.32L120.24 581.04L119.52 581.04L119.52 581.76L118.8 581.76L118.8 582.48L118.08 582.48L118.08 583.2L117.36 583.2L117.36 585.36L116.64 585.36L116.64 588.24L117.36 588.24L117.36 590.4L118.08 590.4L118.08 591.12L118.8 591.12L118.8 591.84L119.52 591.84L119.52 592.56L120.24 592.56L120.24 593.28L121.68 593.28L121.68 594L208.08 594L208.08 593.28L209.52 593.28L209.52 592.56L210.24 592.56L210.24 591.84L210.96 591.84L210.96 591.12L211.68 591.12L211.68 589.68L212.4 589.68L212.4 583.92L211.68 583.92L211.68 582.48L210.96 582.48L210.96 581.76L210.24 581.76L210.24 581.04L209.52 581.04L209.52 580.32L208.08 580.32L208.08 579.6L121.68 579.6"/>
</svg>
