<?xml version="1.0" standalone="no"?>
<!DOCTYPE svg PUBLIC "-//W3C//DTD SVG 20010904//EN" "http://www.w3.org/TR/2001/REC-SVG-20010904/DTD/svg10.dtd">
<!-- Created using Krita: https://krita.org -->
<svg xmlns="http://www.w3.org/2000/svg" 
    xmlns:xlink="http://www.w3.org/1999/xlink"
    xmlns:krita="http://krita.org/namespaces/svg/krita"
    xmlns:sodipodi="http://sodipodi.sourceforge.net/DTD/sodipodi-0.dtd"
    width="573.12pt"
    height="452.16pt"
    viewBox="0 0 573.12 452.16">
<defs/>
<path id="shape0" fill="none" stroke="#000000" stroke-width="1.44" stroke-linecap="square" stroke-linejoin="miter" stroke-miterlimit="2" d="M551.52 0L551.52 0.72L549.36 0.72L549.36 1.44L547.92 1.44L547.92 2.16L546.48 2.16L546.48 2.88L545.76 2.88L545.76 3.6L544.32 3.6L544.32 4.32L543.6 4.32L543.6 5.04L542.88 5.04L542.88 5.76L542.16 5.76L542.16 7.2L541.44 7.2L541.44 7.92L540.72 7.92L540.72 8.64L540 8.64L540 10.08L539.28 10.08L539.28 10.8L538.56 10.8L538.56 11.52L537.84 11.52L537.84 12.96L537.12 12.96L537.12 13.68L536.4 13.68L536.4 15.12L535.68 15.12L535.68 15.84L534.96 15.84L534.96 17.28L534.24 17.28L534.24 18.72L533.52 18.72L533.52 20.16L532.8 20.16L532.8 20.88L532.08 20.88L532.08 22.32L531.36 22.32L531.36 23.76L530.64 23.76L530.64 25.2L529.92 25.2L529.92 25.92L529.2 25.92L529.2 27.36L528.48 27.36L528.48 28.08L527.76 28.08L527.76 29.52L527.04 29.52L527.04 30.96L526.32 30.96L526.32 32.4L525.6 32.4L525.6 33.12L524.88 33.12L524.88 34.56L524.16 34.56L524.16 36L523.44 36L523.44 36.72L522.72 36.72L522.72 37.44L522 37.44L522 38.88L521.28 38.88L521.28 39.6L520.56 39.6L520.56 41.04L519.84 41.04L519.84 42.48L519.12 42.48L519.12 43.92L518.4 43.92L518.4 44.64L517.68 44.64L517.68 46.8L516.96 46.8L516.96 47.52L516.24 47.52L516.24 48.96L515.52 48.96L515.52 50.4L514.8 50.4L514.8 51.84L514.08 51.84L514.08 53.28L513.36 53.28L513.36 54.72L512.64 54.72L512.64 56.16L511.92 56.16L511.92 56.88L511.2 56.88L511.2 58.32L510.48 58.32L510.48 59.76L509.76 59.76L509.76 61.92L509.04 61.92L509.04 63.36L508.32 63.36L508.32 64.8L507.6 64.8L507.6 66.24L506.88 66.24L506.88 67.68L506.16 67.68L506.16 69.84L505.44 69.84L505.44 71.28L504.72 71.28L504.72 73.44L504 73.44L504 74.88L503.28 74.88L503.28 76.32L502.56 76.32L502.56 77.76L501.84 77.76L501.84 79.2L501.12 79.2L501.12 79.92L500.4 79.92L500.4 80.64L499.68 80.64L499.68 82.08L498.96 82.08L498.96 82.8L498.24 82.8L498.24 84.24L497.52 84.24L497.52 85.68L496.8 85.68L496.8 87.12L496.08 87.12L496.08 88.56L488.88 88.56L488.88 89.28L483.12 89.28L483.12 90L480.24 90L480.24 90.72L477.36 90.72L477.36 91.44L475.92 91.44L475.92 92.16L474.48 92.16L474.48 92.88L473.04 92.88L473.04 93.6L470.88 93.6L470.88 94.32L469.44 94.32L469.44 92.88L468.72 92.88L468.72 92.16L468 92.16L468 91.44L467.28 91.44L467.28 90L466.56 90L466.56 89.28L465.84 89.28L465.84 87.84L465.12 87.84L465.12 87.12L464.4 87.12L464.4 85.68L463.68 85.68L463.68 84.96L462.96 84.96L462.96 83.52L462.24 83.52L462.24 82.08L461.52 82.08L461.52 80.64L460.8 80.64L460.8 79.92L460.08 79.92L460.08 78.48L459.36 78.48L459.36 77.04L458.64 77.04L458.64 75.6L457.92 75.6L457.92 74.16L457.2 74.16L457.2 72L456.48 72L456.48 70.56L455.76 70.56L455.76 69.12L455.04 69.12L455.04 68.4L454.32 68.4L454.32 66.96L453.6 66.96L453.6 65.52L452.88 65.52L452.88 63.36L452.16 63.36L452.16 61.92L451.44 61.92L451.44 60.48L450.72 60.48L450.72 59.04L450 59.04L450 58.32L449.28 58.32L449.28 56.88L448.56 56.88L448.56 55.44L447.84 55.44L447.84 54L447.12 54L447.12 53.28L446.4 53.28L446.4 52.56L445.68 52.56L445.68 50.4L444.96 50.4L444.96 48.96L444.24 48.96L444.24 47.52L443.52 47.52L443.52 46.08L442.8 46.08L442.8 45.36L442.08 45.36L442.08 43.92L441.36 43.92L441.36 42.48L440.64 42.48L440.64 41.04L439.92 41.04L439.92 39.6L439.2 39.6L439.2 38.88L438.48 38.88L438.48 37.44L437.76 37.44L437.76 36L437.04 36L437.04 34.56L436.32 34.56L436.32 33.12L435.6 33.12L435.6 31.68L434.88 31.68L434.88 29.52L434.16 29.52L434.16 28.08L433.44 28.08L433.44 26.64L432.72 26.64L432.72 25.2L432 25.2L432 23.76L431.28 23.76L431.28 22.32L430.56 22.32L430.56 20.88L429.84 20.88L429.84 19.44L429.12 19.44L429.12 18L428.4 18L428.4 16.56L427.68 16.56L427.68 15.12L426.96 15.12L426.96 12.24L426.24 12.24L426.24 10.8L425.52 10.8L425.52 9.36L424.8 9.36L424.8 8.64L424.08 8.64L424.08 7.92L423.36 7.92L423.36 7.2L422.64 7.2L422.64 6.48L421.92 6.48L421.92 5.76L421.2 5.76L421.2 5.04L420.48 5.04L420.48 4.32L419.04 4.32L419.04 3.6L418.32 3.6L418.32 2.88L416.16 2.88L416.16 2.16L414 2.16L414 1.44L406.8 1.44L406.8 2.16L404.64 2.16L404.64 2.88L402.48 2.88L402.48 3.6L401.76 3.6L401.76 4.32L400.32 4.32L400.32 5.04L399.6 5.04L399.6 5.76L398.88 5.76L398.88 6.48L398.16 6.48L398.16 7.2L397.44 7.2L397.44 7.92L396.72 7.92L396.72 8.64L396 8.64L396 9.36L395.28 9.36L395.28 10.8L394.56 10.8L394.56 12.24L393.84 12.24L393.84 15.12L393.12 15.12L393.12 23.04L393.84 23.04L393.84 25.2L394.56 25.2L394.56 27.36L395.28 27.36L395.28 29.52L396 29.52L396 30.96L396.72 30.96L396.72 32.4L397.44 32.4L397.44 34.56L398.16 34.56L398.16 35.28L398.88 35.28L398.88 37.44L399.6 37.44L399.6 38.16L400.32 38.16L400.32 39.6L401.04 39.6L401.04 41.04L401.76 41.04L401.76 42.48L402.48 42.48L402.48 43.92L403.2 43.92L403.2 45.36L403.92 45.36L403.92 47.52L404.64 47.52L404.64 48.96L405.36 48.96L405.36 50.4L406.08 50.4L406.08 51.84L406.8 51.84L406.8 53.28L407.52 53.28L407.52 54.72L408.24 54.72L408.24 55.44L408.96 55.44L408.96 56.88L409.68 56.88L409.68 58.32L410.4 58.32L410.4 59.76L411.12 59.76L411.12 61.2L411.84 61.2L411.84 62.64L412.56 62.64L412.56 63.36L413.28 63.36L413.28 64.8L414 64.8L414 66.24L414.72 66.24L414.72 68.4L415.44 68.4L415.44 69.12L416.16 69.12L416.16 70.56L416.88 70.56L416.88 71.28L417.6 71.28L417.6 72.72L418.32 72.72L418.32 74.16L419.04 74.16L419.04 75.6L419.76 75.6L419.76 76.32L420.48 76.32L420.48 77.76L421.2 77.76L421.2 79.2L421.92 79.2L421.92 81.36L422.64 81.36L422.64 82.8L423.36 82.8L423.36 84.24L424.08 84.24L424.08 85.68L424.8 85.68L424.8 86.4L425.52 86.4L425.52 88.56L426.24 88.56L426.24 90L426.96 90L426.96 91.44L427.68 91.44L427.68 92.88L428.4 92.88L428.4 94.32L429.12 94.32L429.12 95.04L429.84 95.04L429.84 97.2L430.56 97.2L430.56 97.92L431.28 97.92L431.28 99.36L432 99.36L432 100.8L432.72 100.8L432.72 102.24L433.44 102.24L433.44 102.96L434.16 102.96L434.16 104.4L434.88 104.4L434.88 105.84L435.6 105.84L435.6 106.56L436.32 106.56L436.32 108L437.04 108L437.04 108.72L437.76 108.72L437.76 109.44L438.48 109.44L438.48 110.88L439.2 110.88L439.2 111.6L439.92 111.6L439.92 113.04L440.64 113.04L440.64 113.76L441.36 113.76L441.36 115.2L440.64 115.2L440.64 115.92L439.92 115.92L439.92 116.64L439.2 116.64L439.2 117.36L438.48 117.36L438.48 118.08L437.76 118.08L437.76 118.8L437.04 118.8L437.04 119.52L436.32 119.52L436.32 120.24L435.6 120.24L435.6 120.96L434.88 120.96L434.88 121.68L434.16 121.68L434.16 122.4L433.44 122.4L433.44 123.12L432.72 123.12L432.72 123.84L432 123.84L432 124.56L431.28 124.56L431.28 125.28L430.56 125.28L430.56 126L429.84 126L429.84 127.44L429.12 127.44L429.12 128.16L427.68 128.16L427.68 128.88L426.96 128.88L426.96 130.32L426.24 130.32L426.24 131.04L425.52 131.04L425.52 131.76L424.8 131.76L424.8 133.2L424.08 133.2L424.08 133.92L423.36 133.92L423.36 134.64L422.64 134.64L422.64 135.36L421.92 135.36L421.92 136.08L421.2 136.08L421.2 136.8L420.48 136.8L420.48 137.52L419.76 137.52L419.76 138.96L419.04 138.96L419.04 139.68L418.32 139.68L418.32 140.4L417.6 140.4L417.6 141.12L416.88 141.12L416.88 141.84L416.16 141.84L416.16 142.56L415.44 142.56L415.44 143.28L414.72 143.28L414.72 144.72L414 144.72L414 145.44L413.28 145.44L413.28 146.16L412.56 146.16L412.56 146.88L411.84 146.88L411.84 147.6L411.12 147.6L411.12 148.32L410.4 148.32L410.4 149.04L409.68 149.04L409.68 149.76L408.96 149.76L408.96 150.48L408.24 150.48L408.24 151.2L407.52 151.2L407.52 151.92L406.8 151.92L406.8 152.64L406.08 152.64L406.08 153.36L405.36 153.36L405.36 154.08L404.64 154.08L404.64 154.8L403.92 154.8L403.92 156.24L403.2 156.24L403.2 156.96L401.76 156.96L401.76 157.68L401.04 157.68L401.04 159.12L400.32 159.12L400.32 159.84L399.6 159.84L399.6 160.56L398.88 160.56L398.88 162L398.16 162L398.16 162.72L397.44 162.72L397.44 163.44L396.72 163.44L396.72 164.16L396 164.16L396 164.88L395.28 164.88L395.28 166.32L394.56 166.32L394.56 167.04L393.84 167.04L393.84 167.76L393.12 167.76L393.12 168.48L392.4 168.48L392.4 169.2L391.68 169.2L391.68 170.64L390.96 170.64L390.96 171.36L390.24 171.36L390.24 172.8L389.52 172.8L389.52 173.52L388.8 173.52L388.8 174.24L388.08 174.24L388.08 174.96L387.36 174.96L387.36 175.68L386.64 175.68L386.64 177.12L385.92 177.12L385.92 177.84L385.2 177.84L385.2 178.56L384.48 178.56L384.48 180L383.76 180L383.76 180.72L383.04 180.72L383.04 181.44L382.32 181.44L382.32 182.88L381.6 182.88L381.6 183.6L380.88 183.6L380.88 185.04L380.16 185.04L380.16 185.76L379.44 185.76L379.44 187.2L378.72 187.2L378.72 188.64L378 188.64L378 189.36L377.28 189.36L377.28 190.08L376.56 190.08L376.56 191.52L375.84 191.52L375.84 192.24L375.12 192.24L375.12 193.68L374.4 193.68L374.4 194.4L373.68 194.4L373.68 195.12L372.96 195.12L372.96 195.84L372.24 195.84L372.24 197.28L371.52 197.28L371.52 198L370.08 198L370.08 198.72L369.36 198.72L369.36 200.16L368.64 200.16L368.64 200.88L367.92 200.88L367.92 201.6L367.2 201.6L367.2 203.04L366.48 203.04L366.48 200.88L365.76 200.88L365.76 193.68L365.04 193.68L365.04 188.64L364.32 188.64L364.32 185.04L363.6 185.04L363.6 181.44L362.88 181.44L362.88 177.84L362.16 177.84L362.16 174.96L361.44 174.96L361.44 172.08L360.72 172.08L360.72 169.92L360 169.92L360 167.04L359.28 167.04L359.28 164.88L358.56 164.88L358.56 162.72L357.84 162.72L357.84 160.56L357.12 160.56L357.12 158.4L356.4 158.4L356.4 156.96L355.68 156.96L355.68 154.8L354.96 154.8L354.96 153.36L354.24 153.36L354.24 151.2L353.52 151.2L353.52 149.76L352.8 149.76L352.8 148.32L352.08 148.32L352.08 146.88L351.36 146.88L351.36 144.72L350.64 144.72L350.64 143.28L349.92 143.28L349.92 141.84L349.2 141.84L349.2 140.4L348.48 140.4L348.48 139.68L347.76 139.68L347.76 138.24L347.04 138.24L347.04 136.8L346.32 136.8L346.32 135.36L345.6 135.36L345.6 133.92L344.88 133.92L344.88 133.2L344.16 133.2L344.16 131.76L343.44 131.76L343.44 130.32L342.72 130.32L342.72 129.6L342 129.6L342 128.16L341.28 128.16L341.28 127.44L340.56 127.44L340.56 126L339.84 126L339.84 125.28L339.12 125.28L339.12 123.84L338.4 123.84L338.4 123.12L337.68 123.12L337.68 121.68L336.96 121.68L336.96 120.96L336.24 120.96L336.24 119.52L335.52 119.52L335.52 118.8L334.8 118.8L334.8 118.08L334.08 118.08L334.08 116.64L333.36 116.64L333.36 115.92L332.64 115.92L332.64 115.2L331.92 115.2L331.92 114.48L331.2 114.48L331.2 113.04L330.48 113.04L330.48 112.32L329.76 112.32L329.76 111.6L329.04 111.6L329.04 110.88L328.32 110.88L328.32 110.16L327.6 110.16L327.6 109.44L326.88 109.44L326.88 108L326.16 108L326.16 107.28L325.44 107.28L325.44 106.56L324.72 106.56L324.72 105.84L324 105.84L324 105.12L323.28 105.12L323.28 104.4L322.56 104.4L322.56 103.68L321.84 103.68L321.84 102.96L321.12 102.96L321.12 102.24L320.4 102.24L320.4 101.52L319.68 101.52L319.68 100.8L318.96 100.8L318.96 100.08L318.24 100.08L318.24 99.36L317.52 99.36L317.52 98.64L316.8 98.64L316.8 97.92L316.08 97.92L316.08 97.2L315.36 97.2L315.36 96.48L314.64 96.48L314.64 95.76L313.92 95.76L313.92 95.04L313.2 95.04L313.2 94.32L311.76 94.32L311.76 93.6L311.04 93.6L311.04 92.88L310.32 92.88L310.32 92.16L309.6 92.16L309.6 91.44L308.88 91.44L308.88 90.72L307.44 90.72L307.44 90L306.72 90L306.72 89.28L306 89.28L306 88.56L305.28 88.56L305.28 87.84L303.84 87.84L303.84 87.12L303.12 87.12L303.12 86.4L302.4 86.4L302.4 85.68L300.96 85.68L300.96 84.96L300.24 84.96L300.24 84.24L299.52 84.24L299.52 83.52L298.08 83.52L298.08 82.8L297.36 82.8L297.36 82.08L295.92 82.08L295.92 81.36L295.2 81.36L295.2 80.64L293.76 80.64L293.76 79.92L293.04 79.92L293.04 79.2L291.6 79.2L291.6 78.48L290.16 78.48L290.16 77.76L289.44 77.76L289.44 77.04L288 77.04L288 76.32L286.56 76.32L286.56 75.6L285.84 75.6L285.84 74.88L284.4 74.88L284.4 74.16L282.96 74.16L282.96 73.44L281.52 73.44L281.52 72.72L280.08 72.72L280.08 72L278.64 72L278.64 71.28L277.2 71.28L277.2 70.56L275.76 70.56L275.76 69.84L274.32 69.84L274.32 69.12L272.88 69.12L272.88 68.4L270.72 68.4L270.72 67.68L269.28 67.68L269.28 66.96L267.84 66.96L267.84 66.24L265.68 66.24L265.68 65.52L263.52 65.52L263.52 64.8L262.08 64.8L262.08 64.08L259.92 64.08L259.92 63.36L257.76 63.36L257.76 62.64L255.6 62.64L255.6 61.92L253.44 61.92L253.44 61.2L250.56 61.2L250.56 60.48L248.4 60.48L248.4 59.76L245.52 59.76L245.52 59.04L241.92 59.04L241.92 58.32L239.04 58.32L239.04 57.6L234.72 57.6L234.72 56.88L230.4 56.88L230.4 56.16L224.64 56.16L224.64 55.44L215.28 55.44L215.28 54.72L200.16 54.72L200.16 55.44L190.8 55.44L190.8 56.16L185.04 56.16L185.04 56.88L180.72 56.88L180.72 57.6L176.4 57.6L176.4 58.32L173.52 58.32L173.52 59.04L169.92 59.04L169.92 59.76L167.04 59.76L167.04 60.48L164.88 60.48L164.88 61.2L162 61.2L162 61.92L159.84 61.92L159.84 62.64L157.68 62.64L157.68 63.36L155.52 63.36L155.52 64.08L153.36 64.08L153.36 64.8L151.92 64.8L151.92 65.52L149.76 65.52L149.76 66.24L147.6 66.24L147.6 66.96L146.16 66.96L146.16 67.68L144.72 67.68L144.72 68.4L142.56 68.4L142.56 69.12L141.12 69.12L141.12 69.84L139.68 69.84L139.68 70.56L138.24 70.56L138.24 71.28L136.8 71.28L136.8 72L135.36 72L135.36 72.72L133.92 72.72L133.92 73.44L132.48 73.44L132.48 74.16L131.04 74.16L131.04 74.88L129.6 74.88L129.6 75.6L128.88 75.6L128.88 76.32L127.44 76.32L127.44 77.04L126 77.04L126 77.76L125.28 77.76L125.28 78.48L123.84 78.48L123.84 79.2L122.4 79.2L122.4 79.92L121.68 79.92L121.68 80.64L120.24 80.64L120.24 81.36L119.52 81.36L119.52 82.08L118.08 82.08L118.08 82.8L117.36 82.8L117.36 83.52L115.92 83.52L115.92 84.24L115.2 84.24L115.2 84.96L114.48 84.96L114.48 85.68L113.04 85.68L113.04 86.4L112.32 86.4L112.32 87.12L111.6 87.12L111.6 87.84L110.16 87.84L110.16 88.56L109.44 88.56L109.44 89.28L108.72 89.28L108.72 90L108 90L108 90.72L106.56 90.72L106.56 91.44L105.84 91.44L105.84 92.16L105.12 92.16L105.12 92.88L104.4 92.88L104.4 93.6L103.68 93.6L103.68 94.32L102.24 94.32L102.24 95.04L101.52 95.04L101.52 95.76L100.8 95.76L100.8 96.48L100.08 96.48L100.08 97.2L99.36 97.2L99.36 97.92L98.64 97.92L98.64 98.64L97.92 98.64L97.92 99.36L97.2 99.36L97.2 100.08L96.48 100.08L96.48 100.8L95.76 100.8L95.76 101.52L95.04 101.52L95.04 102.24L94.32 102.24L94.32 102.96L93.6 102.96L93.6 103.68L92.88 103.68L92.88 104.4L92.16 104.4L92.16 105.12L91.44 105.12L91.44 105.84L90.72 105.84L90.72 106.56L90 106.56L90 107.28L89.28 107.28L89.28 108L88.56 108L88.56 109.44L87.84 109.44L87.84 110.16L87.12 110.16L87.12 110.88L86.4 110.88L86.4 111.6L85.68 111.6L85.68 112.32L84.96 112.32L84.96 113.04L84.24 113.04L84.24 114.48L83.52 114.48L83.52 115.2L82.8 115.2L82.8 115.92L82.08 115.92L82.08 116.64L81.36 116.64L81.36 118.08L80.64 118.08L80.64 118.8L79.92 118.8L79.92 119.52L79.2 119.52L79.2 120.96L78.48 120.96L78.48 121.68L77.76 121.68L77.76 123.12L77.04 123.12L77.04 123.84L76.32 123.84L76.32 125.28L75.6 125.28L75.6 126L74.88 126L74.88 127.44L74.16 127.44L74.16 128.16L73.44 128.16L73.44 129.6L72.72 129.6L72.72 130.32L72 130.32L72 131.76L71.28 131.76L71.28 133.2L70.56 133.2L70.56 133.92L69.84 133.92L69.84 135.36L69.12 135.36L69.12 136.8L68.4 136.8L68.4 138.24L67.68 138.24L67.68 139.68L66.96 139.68L66.96 140.4L66.24 140.4L66.24 141.84L65.52 141.84L65.52 143.28L64.8 143.28L64.8 144.72L64.08 144.72L64.08 146.88L63.36 146.88L63.36 148.32L62.64 148.32L62.64 149.76L61.92 149.76L61.92 151.2L61.2 151.2L61.2 153.36L60.48 153.36L60.48 154.8L59.76 154.8L59.76 156.96L59.04 156.96L59.04 158.4L58.32 158.4L58.32 160.56L57.6 160.56L57.6 162.72L56.88 162.72L56.88 164.88L56.16 164.88L56.16 167.04L55.44 167.04L55.44 169.92L54.72 169.92L54.72 172.08L54 172.08L54 174.96L53.28 174.96L53.28 177.84L52.56 177.84L52.56 181.44L51.84 181.44L51.84 185.04L51.12 185.04L51.12 188.64L50.4 188.64L50.4 193.68L49.68 193.68L49.68 200.88L48.96 200.88L48.96 226.8L49.68 226.8L49.68 234L50.4 234L50.4 239.04L51.12 239.04L51.12 242.64L51.84 242.64L51.84 246.24L52.56 246.24L52.56 249.84L53.28 249.84L53.28 252.72L54 252.72L54 255.6L54.72 255.6L54.72 257.76L55.44 257.76L55.44 260.64L56.16 260.64L56.16 262.8L56.88 262.8L56.88 264.96L57.6 264.96L57.6 267.12L58.32 267.12L58.32 269.28L59.04 269.28L59.04 270.72L59.76 270.72L59.76 272.88L60.48 272.88L60.48 274.32L61.2 274.32L61.2 276.48L61.92 276.48L61.92 277.92L62.64 277.92L62.64 279.36L63.36 279.36L63.36 280.8L64.08 280.8L64.08 282.96L64.8 282.96L64.8 284.4L65.52 284.4L65.52 285.84L66.24 285.84L66.24 287.28L66.96 287.28L66.96 288L67.68 288L67.68 289.44L68.4 289.44L68.4 290.88L69.12 290.88L69.12 292.32L69.84 292.32L69.84 293.76L70.56 293.76L70.56 294.48L71.28 294.48L71.28 295.92L72 295.92L72 297.36L72.72 297.36L72.72 298.08L73.44 298.08L73.44 299.52L74.16 299.52L74.16 300.24L74.88 300.24L74.88 301.68L75.6 301.68L75.6 302.4L76.32 302.4L76.32 303.84L77.04 303.84L77.04 304.56L77.76 304.56L77.76 306L78.48 306L78.48 306.72L79.2 306.72L79.2 308.16L79.92 308.16L79.92 308.88L80.64 308.88L80.64 309.6L81.36 309.6L81.36 311.04L82.08 311.04L82.08 311.76L82.8 311.76L82.8 312.48L83.52 312.48L83.52 313.2L84.24 313.2L84.24 314.64L84.96 314.64L84.96 315.36L85.68 315.36L85.68 316.08L86.4 316.08L86.4 316.8L87.12 316.8L87.12 317.52L87.84 317.52L87.84 318.24L88.56 318.24L88.56 319.68L89.28 319.68L89.28 320.4L90 320.4L90 321.12L90.72 321.12L90.72 321.84L91.44 321.84L91.44 322.56L90.72 322.56L90.72 323.28L89.28 323.28L89.28 324L87.84 324L87.84 324.72L84.96 324.72L84.96 325.44L82.8 325.44L82.8 326.16L79.92 326.16L79.92 326.88L78.48 326.88L78.48 327.6L77.04 327.6L77.04 328.32L74.88 328.32L74.88 329.04L72.72 329.04L72.72 329.76L71.28 329.76L71.28 330.48L69.84 330.48L69.84 331.2L67.68 331.2L67.68 331.92L64.8 331.92L64.8 332.64L63.36 332.64L63.36 333.36L61.92 333.36L61.92 334.08L61.2 334.08L61.2 334.8L59.76 334.8L59.76 335.52L58.32 335.52L58.32 336.24L56.16 336.24L56.16 336.96L54.72 336.96L54.72 337.68L54 337.68L54 338.4L51.84 338.4L51.84 339.12L50.4 339.12L50.4 339.84L48.96 339.84L48.96 340.56L47.52 340.56L47.52 341.28L46.8 341.28L46.8 342L45.36 342L45.36 342.72L43.92 342.72L43.92 343.44L42.48 343.44L42.48 344.16L41.76 344.16L41.76 344.88L41.04 344.88L41.04 345.6L39.6 345.6L39.6 346.32L38.88 346.32L38.88 347.04L37.44 347.04L37.44 347.76L36.72 347.76L36.72 348.48L36 348.48L36 349.2L35.28 349.2L35.28 349.92L34.56 349.92L34.56 350.64L33.12 350.64L33.12 352.08L32.4 352.08L32.4 352.8L31.68 352.8L31.68 353.52L30.24 353.52L30.24 354.24L29.52 354.24L29.52 354.96L28.8 354.96L28.8 355.68L28.08 355.68L28.08 356.4L26.64 356.4L26.64 357.12L25.92 357.12L25.92 357.84L25.2 357.84L25.2 358.56L24.48 358.56L24.48 359.28L23.76 359.28L23.76 360L23.04 360L23.04 360.72L22.32 360.72L22.32 361.44L21.6 361.44L21.6 362.16L20.88 362.16L20.88 362.88L20.16 362.88L20.16 363.6L19.44 363.6L19.44 364.32L18.72 364.32L18.72 365.04L18 365.04L18 366.48L17.28 366.48L17.28 367.2L16.56 367.2L16.56 368.64L15.84 368.64L15.84 369.36L15.12 369.36L15.12 370.08L14.4 370.08L14.4 370.8L13.68 370.8L13.68 372.24L12.96 372.24L12.96 372.96L12.24 372.96L12.24 373.68L11.52 373.68L11.52 374.4L10.8 374.4L10.8 375.84L10.08 375.84L10.08 376.56L9.36 376.56L9.36 378L8.64 378L8.64 379.44L7.92 379.44L7.92 380.88L7.2 380.88L7.2 381.6L6.48 381.6L6.48 383.04L5.76 383.04L5.76 384.48L5.04 384.48L5.04 387.36L4.32 387.36L4.32 389.52L3.6 389.52L3.6 390.96L2.88 390.96L2.88 392.4L2.16 392.4L2.16 395.28L1.44 395.28L1.44 398.16L0.72 398.16L0.72 401.76L0 401.76L0 422.64L0.72 422.64L0.72 424.8L1.44 424.8L1.44 426.24L2.16 426.24L2.16 427.68L2.88 427.68L2.88 429.12L3.6 429.12L3.6 429.84L4.32 429.84L4.32 430.56L5.04 430.56L5.04 431.28L5.76 431.28L5.76 432L6.48 432L6.48 432.72L7.92 432.72L7.92 433.44L8.64 433.44L8.64 434.16L10.08 434.16L10.08 434.88L11.52 434.88L11.52 435.6L12.96 435.6L12.96 436.32L14.4 436.32L14.4 437.04L15.84 437.04L15.84 437.76L17.28 437.76L17.28 438.48L20.16 438.48L20.16 439.2L25.92 439.2L25.92 439.92L28.8 439.92L28.8 440.64L31.68 440.64L31.68 441.36L33.84 441.36L33.84 442.08L43.2 442.08L43.2 442.8L49.68 442.8L49.68 443.52L52.56 443.52L52.56 444.24L68.4 444.24L68.4 444.96L77.76 444.96L77.76 445.68L94.32 445.68L94.32 446.4L100.08 446.4L100.08 447.12L105.84 447.12L105.84 447.84L111.6 447.84L111.6 448.56L121.68 448.56L121.68 449.28L124.56 449.28L124.56 450L128.88 450L128.88 450.72L136.08 450.72L136.08 451.44L143.28 451.44L143.28 452.16L237.6 452.16L237.6 451.44L246.96 451.44L246.96 450.72L253.44 450.72L253.44 450L259.2 450L259.2 449.28L263.52 449.28L263.52 448.56L267.84 448.56L267.84 447.84L270.72 447.84L270.72 447.12L277.2 447.12L277.2 446.4L280.08 446.4L280.08 445.68L284.4 445.68L284.4 444.96L289.44 444.96L289.44 444.24L292.32 444.24L292.32 443.52L298.8 443.52L298.8 442.8L301.68 442.8L301.68 442.08L305.28 442.08L305.28 441.36L310.32 441.36L310.32 440.64L313.2 440.64L313.2 439.92L318.96 439.92L318.96 439.2L322.56 439.2L322.56 438.48L328.32 438.48L328.32 437.76L331.2 437.76L331.2 437.04L334.08 437.04L334.08 436.32L339.12 436.32L339.12 435.6L342.72 435.6L342.72 434.88L344.88 434.88L344.88 434.16L347.76 434.16L347.76 433.44L350.64 433.44L350.64 432.72L353.52 432.72L353.52 432L356.4 432L356.4 431.28L359.28 431.28L359.28 430.56L361.44 430.56L361.44 429.84L362.88 429.84L362.88 429.12L364.32 429.12L364.32 428.4L365.76 428.4L365.76 427.68L369.36 427.68L369.36 426.96L372.24 426.96L372.24 426.24L375.12 426.24L375.12 425.52L377.28 425.52L377.28 424.8L378.72 424.8L378.72 424.08L380.88 424.08L380.88 423.36L383.76 423.36L383.76 422.64L386.64 422.64L386.64 421.92L389.52 421.92L389.52 421.2L392.4 421.2L392.4 420.48L394.56 420.48L394.56 419.76L396 419.76L396 419.04L397.44 419.04L397.44 418.32L399.6 418.32L399.6 417.6L401.76 417.6L401.76 416.88L403.92 416.88L403.92 416.16L404.64 416.16L404.64 415.44L406.8 415.44L406.8 414.72L408.96 414.72L408.96 414L410.4 414L410.4 413.28L412.56 413.28L412.56 412.56L413.28 412.56L413.28 411.84L415.44 411.84L415.44 411.12L416.88 411.12L416.88 410.4L418.32 410.4L418.32 409.68L419.04 409.68L419.04 408.96L420.48 408.96L420.48 408.24L421.92 408.24L421.92 407.52L423.36 407.52L423.36 406.8L425.52 406.8L425.52 406.08L426.96 406.08L426.96 405.36L428.4 405.36L428.4 404.64L429.84 404.64L429.84 403.92L432 403.92L432 403.2L432.72 403.2L432.72 402.48L434.16 402.48L434.16 401.76L435.6 401.76L435.6 401.04L437.04 401.04L437.04 400.32L438.48 400.32L438.48 399.6L439.92 399.6L439.92 398.88L440.64 398.88L440.64 398.16L442.08 398.16L442.08 397.44L442.8 397.44L442.8 396.72L444.24 396.72L444.24 396L444.96 396L444.96 395.28L446.4 395.28L446.4 394.56L447.12 394.56L447.12 393.84L447.84 393.84L447.84 393.12L449.28 393.12L449.28 392.4L450 392.4L450 391.68L450.72 391.68L450.72 390.96L451.44 390.96L451.44 390.24L452.88 390.24L452.88 389.52L453.6 389.52L453.6 388.8L454.32 388.8L454.32 388.08L455.04 388.08L455.04 387.36L455.76 387.36L455.76 386.64L456.48 386.64L456.48 385.92L457.2 385.92L457.2 385.2L457.92 385.2L457.92 384.48L458.64 384.48L458.64 383.76L459.36 383.76L459.36 383.04L460.08 383.04L460.08 382.32L460.8 382.32L460.8 381.6L461.52 381.6L461.52 380.88L462.24 380.88L462.24 380.16L462.96 380.16L462.96 379.44L463.68 379.44L463.68 378.72L464.4 378.72L464.4 378L465.12 378L465.12 377.28L465.84 377.28L465.84 376.56L466.56 376.56L466.56 375.84L467.28 375.84L467.28 375.12L468 375.12L468 374.4L468.72 374.4L468.72 372.96L469.44 372.96L469.44 372.24L470.16 372.24L470.16 371.52L470.88 371.52L470.88 370.8L471.6 370.8L471.6 369.36L473.04 369.36L473.04 368.64L473.76 368.64L473.76 367.92L474.48 367.92L474.48 367.2L475.2 367.2L475.2 365.76L475.92 365.76L475.92 365.04L476.64 365.04L476.64 363.6L477.36 363.6L477.36 362.88L478.08 362.88L478.08 362.16L478.8 362.16L478.8 361.44L479.52 361.44L479.52 360.72L480.24 360.72L480.24 360L480.96 360L480.96 358.56L481.68 358.56L481.68 357.84L482.4 357.84L482.4 357.12L483.12 357.12L483.12 355.68L483.84 355.68L483.84 354.96L484.56 354.96L484.56 353.52L485.28 353.52L485.28 352.8L486 352.8L486 351.36L486.72 351.36L486.72 350.64L487.44 350.64L487.44 349.92L488.16 349.92L488.16 348.48L488.88 348.48L488.88 347.76L489.6 347.76L489.6 346.32L490.32 346.32L490.32 344.88L491.04 344.88L491.04 343.44L491.76 343.44L491.76 342.72L492.48 342.72L492.48 341.28L493.2 341.28L493.2 340.56L493.92 340.56L493.92 339.84L494.64 339.84L494.64 338.4L495.36 338.4L495.36 336.96L496.08 336.96L496.08 334.8L496.8 334.8L496.8 334.08L497.52 334.08L497.52 332.64L498.24 332.64L498.24 331.92L498.96 331.92L498.96 330.48L499.68 330.48L499.68 329.04L500.4 329.04L500.4 327.6L501.12 327.6L501.12 326.16L501.84 326.16L501.84 324.72L502.56 324.72L502.56 323.28L503.28 323.28L503.28 320.4L504 320.4L504 318.96L504.72 318.96L504.72 317.52L505.44 317.52L505.44 315.36L506.16 315.36L506.16 313.2L506.88 313.2L506.88 311.04L507.6 311.04L507.6 309.6L508.32 309.6L508.32 308.16L509.04 308.16L509.04 306L509.76 306L509.76 304.56L510.48 304.56L510.48 303.12L511.2 303.12L511.2 300.96L511.92 300.96L511.92 299.52L512.64 299.52L512.64 297.36L513.36 297.36L513.36 295.2L514.08 295.2L514.08 293.04L514.8 293.04L514.8 291.6L515.52 291.6L515.52 290.16L516.24 290.16L516.24 288L516.96 288L516.96 286.56L517.68 286.56L517.68 284.4L518.4 284.4L518.4 282.24L519.12 282.24L519.12 281.52L519.84 281.52L519.84 279.36L520.56 279.36L520.56 277.2L521.28 277.2L521.28 275.76L522 275.76L522 274.32L522.72 274.32L522.72 272.88L523.44 272.88L523.44 271.44L524.16 271.44L524.16 269.28L524.88 269.28L524.88 267.84L525.6 267.84L525.6 265.68L526.32 265.68L526.32 264.24L527.04 264.24L527.04 262.8L527.76 262.8L527.76 261.36L528.48 261.36L528.48 259.92L529.2 259.92L529.2 258.48L529.92 258.48L529.92 257.04L530.64 257.04L530.64 255.6L531.36 255.6L531.36 253.44L532.08 253.44L532.08 252L532.8 252L532.8 249.84L533.52 249.84L533.52 248.4L534.24 248.4L534.24 246.24L534.96 246.24L534.96 244.8L535.68 244.8L535.68 241.92L536.4 241.92L536.4 239.76L537.12 239.76L537.12 238.32L537.84 238.32L537.84 236.88L538.56 236.88L538.56 235.44L539.28 235.44L539.28 234L540 234L540 231.12L540.72 231.12L540.72 228.96L541.44 228.96L541.44 226.08L542.16 226.08L542.16 223.2L542.88 223.2L542.88 221.04L543.6 221.04L543.6 218.88L544.32 218.88L544.32 217.44L545.04 217.44L545.04 215.28L545.76 215.28L545.76 211.68L546.48 211.68L546.48 208.8L547.2 208.8L547.2 202.32L547.92 202.32L547.92 157.68L547.2 157.68L547.2 151.92L546.48 151.92L546.48 149.04L545.76 149.04L545.76 145.44L545.04 145.44L545.04 143.28L544.32 143.28L544.32 139.68L543.6 139.68L543.6 136.8L542.88 136.8L542.88 134.64L542.16 134.64L542.16 131.76L541.44 131.76L541.44 130.32L540.72 130.32L540.72 128.88L540 128.88L540 127.44L539.28 127.44L539.28 125.28L538.56 125.28L538.56 124.56L537.84 124.56L537.84 123.12L537.12 123.12L537.12 121.68L536.4 121.68L536.4 120.96L535.68 120.96L535.68 119.52L534.96 119.52L534.96 118.8L534.24 118.8L534.24 117.36L533.52 117.36L533.52 115.92L532.8 115.92L532.8 115.2L532.08 115.2L532.08 113.76L531.36 113.76L531.36 112.32L530.64 112.32L530.64 111.6L529.92 111.6L529.92 110.16L529.2 110.16L529.2 109.44L528.48 109.44L528.48 108.72L527.76 108.72L527.76 108L527.04 108L527.04 106.56L526.32 106.56L526.32 104.4L527.04 104.4L527.04 102.96L527.76 102.96L527.76 101.52L528.48 101.52L528.48 100.08L529.2 100.08L529.2 99.36L529.92 99.36L529.92 98.64L530.64 98.64L530.64 97.2L531.36 97.2L531.36 96.48L532.08 96.48L532.08 95.04L532.8 95.04L532.8 93.6L533.52 93.6L533.52 92.16L534.24 92.16L534.24 90.72L534.96 90.72L534.96 89.28L535.68 89.28L535.68 87.84L536.4 87.84L536.4 85.68L537.12 85.68L537.12 84.24L537.84 84.24L537.84 82.8L538.56 82.8L538.56 80.64L539.28 80.64L539.28 79.2L540 79.2L540 77.76L540.72 77.76L540.72 76.32L541.44 76.32L541.44 74.16L542.16 74.16L542.16 73.44L542.88 73.44L542.88 72L543.6 72L543.6 70.56L544.32 70.56L544.32 69.12L545.04 69.12L545.04 67.68L545.76 67.68L545.76 66.24L546.48 66.24L546.48 64.8L547.2 64.8L547.2 63.36L547.92 63.36L547.92 61.92L548.64 61.92L548.64 61.2L549.36 61.2L549.36 59.76L550.08 59.76L550.08 58.32L550.8 58.32L550.8 57.6L551.52 57.6L551.52 56.88L552.24 56.88L552.24 55.44L552.96 55.44L552.96 54.72L553.68 54.72L553.68 53.28L554.4 53.28L554.4 51.84L555.12 51.84L555.12 50.4L555.84 50.4L555.84 49.68L556.56 49.68L556.56 48.24L557.28 48.24L557.28 46.8L558 46.8L558 45.36L558.72 45.36L558.72 44.64L559.44 44.64L559.44 43.2L560.16 43.2L560.16 41.76L560.88 41.76L560.88 41.04L561.6 41.04L561.6 39.6L562.32 39.6L562.32 38.16L563.04 38.16L563.04 37.44L563.76 37.44L563.76 36L564.48 36L564.48 34.56L565.2 34.56L565.2 33.84L565.92 33.84L565.92 32.4L566.64 32.4L566.64 30.96L567.36 30.96L567.36 30.24L568.08 30.24L568.08 29.52L568.8 29.52L568.8 28.08L569.52 28.08L569.52 27.36L570.24 27.36L570.24 26.64L570.96 26.64L570.96 25.2L571.68 25.2L571.68 23.76L572.4 23.76L572.4 21.6L573.12 21.6L573.12 12.96L572.4 12.96L572.4 10.8L571.68 10.8L571.68 9.36L570.96 9.36L570.96 7.92L570.24 7.92L570.24 7.2L569.52 7.2L569.52 5.76L568.8 5.76L568.8 5.04L568.08 5.04L568.08 4.32L567.36 4.32L567.36 3.6L565.92 3.6L565.92 2.88L565.2 2.88L565.2 2.16L563.76 2.16L563.76 1.44L562.32 1.44L562.32 0.72L560.16 0.72L560.16 0L551.52 0M198 84.96L215.28 84.96L215.28 85.68L222.48 85.68L222.48 86.4L227.52 86.4L227.52 87.12L231.12 87.12L231.12 87.84L234.72 87.84L234.72 88.56L237.6 88.56L237.6 89.28L240.48 89.28L240.48 90L242.64 90L242.64 90.72L245.52 90.72L245.52 91.44L247.68 91.44L247.68 92.16L249.12 92.16L249.12 92.88L251.28 92.88L251.28 93.6L253.44 93.6L253.44 94.32L254.88 94.32L254.88 95.04L256.32 95.04L256.32 95.76L258.48 95.76L258.48 96.48L259.92 96.48L259.92 97.2L261.36 97.2L261.36 97.92L262.8 97.92L262.8 98.64L264.24 98.64L264.24 99.36L265.68 99.36L265.68 100.08L267.12 100.08L267.12 100.8L268.56 100.8L268.56 101.52L269.28 101.52L269.28 102.24L270.72 102.24L270.72 102.96L272.16 102.96L272.16 103.68L272.88 103.68L272.88 104.4L274.32 104.4L274.32 105.12L275.04 105.12L275.04 105.84L276.48 105.84L276.48 106.56L277.2 106.56L277.2 107.28L278.64 107.28L278.64 108L279.36 108L279.36 108.72L280.8 108.72L280.8 109.44L281.52 109.44L281.52 110.16L282.24 110.16L282.24 110.88L283.68 110.88L283.68 111.6L284.4 111.6L284.4 112.32L285.12 112.32L285.12 113.04L285.84 113.04L285.84 113.76L287.28 113.76L287.28 114.48L288 114.48L288 115.2L288.72 115.2L288.72 115.92L289.44 115.92L289.44 116.64L290.16 116.64L290.16 117.36L290.88 117.36L290.88 118.08L291.6 118.08L291.6 118.8L293.04 118.8L293.04 119.52L293.76 119.52L293.76 120.24L294.48 120.24L294.48 120.96L295.2 120.96L295.2 121.68L295.92 121.68L295.92 122.4L296.64 122.4L296.64 123.12L297.36 123.12L297.36 123.84L298.08 123.84L298.08 124.56L298.8 124.56L298.8 126L299.52 126L299.52 126.72L300.24 126.72L300.24 127.44L300.96 127.44L300.96 128.16L301.68 128.16L301.68 128.88L302.4 128.88L302.4 129.6L303.12 129.6L303.12 130.32L303.84 130.32L303.84 131.76L304.56 131.76L304.56 132.48L305.28 132.48L305.28 133.2L306 133.2L306 133.92L306.72 133.92L306.72 135.36L307.44 135.36L307.44 136.08L308.16 136.08L308.16 137.52L308.88 137.52L308.88 138.24L309.6 138.24L309.6 138.96L310.32 138.96L310.32 140.4L311.04 140.4L311.04 141.12L311.76 141.12L311.76 142.56L312.48 142.56L312.48 143.28L313.2 143.28L313.2 144.72L313.92 144.72L313.92 146.16L314.64 146.16L314.64 146.88L315.36 146.88L315.36 148.32L316.08 148.32L316.08 149.76L316.8 149.76L316.8 151.2L317.52 151.2L317.52 152.64L318.24 152.64L318.24 153.36L318.96 153.36L318.96 154.8L319.68 154.8L319.68 156.96L320.4 156.96L320.4 158.4L321.12 158.4L321.12 159.84L321.84 159.84L321.84 161.28L322.56 161.28L322.56 163.44L323.28 163.44L323.28 164.88L324 164.88L324 167.04L324.72 167.04L324.72 168.48L325.44 168.48L325.44 170.64L326.16 170.64L326.16 173.52L326.88 173.52L326.88 175.68L327.6 175.68L327.6 177.84L328.32 177.84L328.32 180.72L329.04 180.72L329.04 184.32L329.76 184.32L329.76 187.92L330.48 187.92L330.48 192.24L331.2 192.24L331.2 198L331.92 198L331.92 223.2L331.2 223.2L331.2 228.96L330.48 228.96L330.48 233.28L329.76 233.28L329.76 236.88L329.04 236.88L329.04 240.48L328.32 240.48L328.32 243.36L327.6 243.36L327.6 245.52L326.88 245.52L326.88 247.68L326.16 247.68L326.16 250.56L325.44 250.56L325.44 252.72L324.72 252.72L324.72 254.16L324 254.16L324 256.32L323.28 256.32L323.28 257.76L322.56 257.76L322.56 259.92L321.84 259.92L321.84 261.36L321.12 261.36L321.12 262.8L320.4 262.8L320.4 264.24L319.68 264.24L319.68 266.4L318.96 266.4L318.96 267.84L318.24 267.84L318.24 268.56L317.52 268.56L317.52 270L316.8 270L316.8 271.44L316.08 271.44L316.08 272.88L315.36 272.88L315.36 274.32L314.64 274.32L314.64 275.04L313.92 275.04L313.92 276.48L313.2 276.48L313.2 277.92L312.48 277.92L312.48 278.64L311.76 278.64L311.76 280.08L311.04 280.08L311.04 280.8L310.32 280.8L310.32 282.24L309.6 282.24L309.6 282.96L308.88 282.96L308.88 283.68L308.16 283.68L308.16 285.12L307.44 285.12L307.44 285.84L306.72 285.84L306.72 287.28L306 287.28L306 288L305.28 288L305.28 288.72L304.56 288.72L304.56 289.44L303.84 289.44L303.84 290.88L303.12 290.88L303.12 291.6L302.4 291.6L302.4 292.32L301.68 292.32L301.68 293.04L300.96 293.04L300.96 293.76L300.24 293.76L300.24 294.48L299.52 294.48L299.52 295.2L298.8 295.2L298.8 296.64L298.08 296.64L298.08 297.36L297.36 297.36L297.36 298.08L296.64 298.08L296.64 298.8L295.92 298.8L295.92 299.52L295.2 299.52L295.2 300.24L294.48 300.24L294.48 300.96L293.76 300.96L293.76 301.68L293.04 301.68L293.04 302.4L291.6 302.4L291.6 303.12L290.88 303.12L290.88 303.84L290.16 303.84L290.16 304.56L289.44 304.56L289.44 305.28L288.72 305.28L288.72 306L288 306L288 306.72L287.28 306.72L287.28 307.44L285.84 307.44L285.84 308.16L285.12 308.16L285.12 308.88L284.4 308.88L284.4 309.6L283.68 309.6L283.68 310.32L282.24 310.32L282.24 311.04L281.52 311.04L281.52 311.76L280.8 311.76L280.8 312.48L279.36 312.48L279.36 313.2L278.64 313.2L278.64 313.92L277.2 313.92L277.2 314.64L276.48 314.64L276.48 315.36L275.04 315.36L275.04 316.08L274.32 316.08L274.32 316.8L272.88 316.8L272.88 317.52L272.16 317.52L272.16 318.24L270.72 318.24L270.72 318.96L269.28 318.96L269.28 319.68L268.56 319.68L268.56 320.4L267.12 320.4L267.12 321.12L265.68 321.12L265.68 321.84L264.24 321.84L264.24 322.56L262.8 322.56L262.8 323.28L261.36 323.28L261.36 324L259.92 324L259.92 324.72L258.48 324.72L258.48 325.44L256.32 325.44L256.32 326.16L254.88 326.16L254.88 326.88L253.44 326.88L253.44 327.6L251.28 327.6L251.28 328.32L249.12 328.32L249.12 329.04L247.68 329.04L247.68 329.76L245.52 329.76L245.52 330.48L242.64 330.48L242.64 331.2L240.48 331.2L240.48 331.92L237.6 331.92L237.6 332.64L234.72 332.64L234.72 333.36L231.12 333.36L231.12 334.08L227.52 334.08L227.52 334.8L222.48 334.8L222.48 335.52L215.28 335.52L215.28 336.24L198 336.24L198 335.52L190.8 335.52L190.8 334.8L185.76 334.8L185.76 334.08L182.16 334.08L182.16 333.36L178.56 333.36L178.56 332.64L175.68 332.64L175.68 331.92L172.8 331.92L172.8 331.2L170.64 331.2L170.64 330.48L167.76 330.48L167.76 329.76L165.6 329.76L165.6 329.04L164.16 329.04L164.16 328.32L162 328.32L162 327.6L180 327.6L180 326.88L191.52 326.88L191.52 326.16L194.4 326.16L194.4 325.44L198.72 325.44L198.72 324.72L201.6 324.72L201.6 324L204.48 324L204.48 323.28L208.8 323.28L208.8 322.56L211.68 322.56L211.68 321.84L213.84 321.84L213.84 321.12L216.72 321.12L216.72 320.4L218.88 320.4L218.88 319.68L221.04 319.68L221.04 318.96L222.48 318.96L222.48 318.24L224.64 318.24L224.64 317.52L226.8 317.52L226.8 316.8L228.96 316.8L228.96 316.08L230.4 316.08L230.4 315.36L231.84 315.36L231.84 314.64L233.28 314.64L233.28 313.92L234.72 313.92L234.72 313.2L236.16 313.2L236.16 312.48L236.88 312.48L236.88 311.76L238.32 311.76L238.32 311.04L239.76 311.04L239.76 310.32L241.2 310.32L241.2 309.6L241.92 309.6L241.92 308.88L243.36 308.88L243.36 308.16L244.8 308.16L244.8 307.44L246.24 307.44L246.24 306.72L246.96 306.72L246.96 306L247.68 306L247.68 305.28L248.4 305.28L248.4 304.56L249.84 304.56L249.84 303.84L250.56 303.84L250.56 303.12L251.28 303.12L251.28 302.4L252 302.4L252 301.68L252.72 301.68L252.72 300.96L253.44 300.96L253.44 300.24L254.16 300.24L254.16 299.52L255.6 299.52L255.6 298.08L256.32 298.08L256.32 297.36L257.04 297.36L257.04 296.64L257.76 296.64L257.76 295.92L258.48 295.92L258.48 295.2L259.2 295.2L259.2 294.48L259.92 294.48L259.92 293.76L260.64 293.76L260.64 293.04L261.36 293.04L261.36 292.32L262.08 292.32L262.08 291.6L262.8 291.6L262.8 290.88L263.52 290.88L263.52 289.44L264.24 289.44L264.24 288.72L264.96 288.72L264.96 287.28L265.68 287.28L265.68 286.56L266.4 286.56L266.4 285.84L267.12 285.84L267.12 284.4L267.84 284.4L267.84 283.68L268.56 283.68L268.56 282.24L269.28 282.24L269.28 281.52L270 281.52L270 280.8L270.72 280.8L270.72 279.36L271.44 279.36L271.44 278.64L272.16 278.64L272.16 276.48L272.88 276.48L272.88 275.04L273.6 275.04L273.6 274.32L274.32 274.32L274.32 272.88L275.04 272.88L275.04 271.44L275.76 271.44L275.76 270L276.48 270L276.48 268.56L277.2 268.56L277.2 267.12L277.92 267.12L277.92 265.68L278.64 265.68L278.64 264.24L279.36 264.24L279.36 262.08L280.08 262.08L280.08 259.92L280.8 259.92L280.8 257.04L281.52 257.04L281.52 254.16L282.24 254.16L282.24 251.28L282.96 251.28L282.96 249.12L283.68 249.12L283.68 246.24L284.4 246.24L284.4 241.92L285.12 241.92L285.12 239.76L285.84 239.76L285.84 236.88L286.56 236.88L286.56 234L287.28 234L287.28 222.48L288 222.48L288 209.52L287.28 209.52L287.28 185.76L286.56 185.76L286.56 182.16L285.84 182.16L285.84 177.84L285.12 177.84L285.12 175.68L284.4 175.68L284.4 172.8L283.68 172.8L283.68 169.92L282.96 169.92L282.96 167.04L282.24 167.04L282.24 165.6L281.52 165.6L281.52 164.88L280.8 164.88L280.8 163.44L280.08 163.44L280.08 162L279.36 162L279.36 160.56L278.64 160.56L278.64 159.84L277.92 159.84L277.92 158.4L277.2 158.4L277.2 157.68L276.48 157.68L276.48 156.96L275.76 156.96L275.76 155.52L275.04 155.52L275.04 154.8L274.32 154.8L274.32 154.08L273.6 154.08L273.6 153.36L272.88 153.36L272.88 152.64L272.16 152.64L272.16 151.92L271.44 151.92L271.44 151.2L270.72 151.2L270.72 150.48L270 150.48L270 149.76L269.28 149.76L269.28 149.04L268.56 149.04L268.56 148.32L267.84 148.32L267.84 147.6L267.12 147.6L267.12 146.88L265.68 146.88L265.68 146.16L264.96 146.16L264.96 145.44L264.24 145.44L264.24 144.72L263.52 144.72L263.52 144L262.8 144L262.8 143.28L261.36 143.28L261.36 142.56L260.64 142.56L260.64 141.84L259.2 141.84L259.2 141.12L257.76 141.12L257.76 140.4L256.32 140.4L256.32 139.68L254.88 139.68L254.88 138.96L253.44 138.96L253.44 138.24L251.28 138.24L251.28 137.52L249.84 137.52L249.84 136.8L248.4 136.8L248.4 136.08L246.24 136.08L246.24 135.36L244.8 135.36L244.8 134.64L242.64 134.64L242.64 133.92L241.2 133.92L241.2 133.2L239.76 133.2L239.76 132.48L238.32 132.48L238.32 131.76L236.16 131.76L236.16 131.04L234 131.04L234 130.32L231.84 130.32L231.84 129.6L228.96 129.6L228.96 128.88L226.8 128.88L226.8 128.16L223.2 128.16L223.2 127.44L218.88 127.44L218.88 126.72L204.48 126.72L204.48 127.44L201.6 127.44L201.6 128.16L196.56 128.16L196.56 128.88L194.4 128.88L194.4 129.6L192.96 129.6L192.96 130.32L190.8 130.32L190.8 131.04L189.36 131.04L189.36 131.76L187.92 131.76L187.92 132.48L186.48 132.48L186.48 133.2L185.04 133.2L185.04 133.92L183.6 133.92L183.6 134.64L182.88 134.64L182.88 135.36L181.44 135.36L181.44 136.08L180.72 136.08L180.72 136.8L179.28 136.8L179.28 137.52L178.56 137.52L178.56 138.24L177.84 138.24L177.84 138.96L177.12 138.96L177.12 139.68L175.68 139.68L175.68 140.4L174.96 140.4L174.96 141.12L174.24 141.12L174.24 141.84L173.52 141.84L173.52 142.56L172.8 142.56L172.8 143.28L171.36 143.28L171.36 144L170.64 144L170.64 144.72L169.92 144.72L169.92 145.44L169.2 145.44L169.2 146.16L167.76 146.16L167.76 146.88L167.04 146.88L167.04 147.6L166.32 147.6L166.32 148.32L165.6 148.32L165.6 149.04L164.88 149.04L164.88 149.76L164.16 149.76L164.16 151.2L163.44 151.2L163.44 151.92L162.72 151.92L162.72 152.64L162 152.64L162 153.36L161.28 153.36L161.28 154.08L160.56 154.08L160.56 155.52L159.84 155.52L159.84 156.24L159.12 156.24L159.12 156.96L158.4 156.96L158.4 158.4L157.68 158.4L157.68 159.84L156.96 159.84L156.96 161.28L156.24 161.28L156.24 162.72L155.52 162.72L155.52 164.16L154.8 164.16L154.8 166.32L154.08 166.32L154.08 168.48L153.36 168.48L153.36 171.36L152.64 171.36L152.64 174.24L151.92 174.24L151.92 176.4L151.2 176.4L151.2 181.44L150.48 181.44L150.48 197.28L151.2 197.28L151.2 200.88L151.92 200.88L151.92 203.76L152.64 203.76L152.64 206.64L153.36 206.64L153.36 208.8L154.08 208.8L154.08 210.96L154.8 210.96L154.8 213.12L155.52 213.12L155.52 214.56L156.24 214.56L156.24 216.72L156.96 216.72L156.96 218.16L157.68 218.16L157.68 218.88L158.4 218.88L158.4 220.32L159.12 220.32L159.12 221.76L159.84 221.76L159.84 222.48L160.56 222.48L160.56 223.92L161.28 223.92L161.28 224.64L162 224.64L162 226.08L162.72 226.08L162.72 226.8L163.44 226.8L163.44 228.24L164.16 228.24L164.16 228.96L164.88 228.96L164.88 229.68L165.6 229.68L165.6 231.12L166.32 231.12L166.32 231.84L167.04 231.84L167.04 232.56L167.76 232.56L167.76 233.28L168.48 233.28L168.48 234L169.2 234L169.2 234.72L169.92 234.72L169.92 235.44L170.64 235.44L170.64 236.16L172.08 236.16L172.08 236.88L172.8 236.88L172.8 237.6L173.52 237.6L173.52 238.32L174.96 238.32L174.96 239.04L175.68 239.04L175.68 239.76L177.12 239.76L177.12 240.48L179.28 240.48L179.28 241.2L182.16 241.2L182.16 241.92L185.04 241.92L185.04 241.2L187.92 241.2L187.92 240.48L189.36 240.48L189.36 239.76L190.8 239.76L190.8 239.04L191.52 239.04L191.52 238.32L192.24 238.32L192.24 237.6L192.96 237.6L192.96 236.88L193.68 236.88L193.68 235.44L194.4 235.44L194.4 234L195.12 234L195.12 231.84L195.84 231.84L195.84 228.24L195.12 228.24L195.12 225.36L194.4 225.36L194.4 223.92L193.68 223.92L193.68 223.2L192.96 223.2L192.96 221.76L192.24 221.76L192.24 221.04L191.52 221.04L191.52 220.32L190.08 220.32L190.08 219.6L188.64 219.6L188.64 218.88L187.2 218.88L187.2 218.16L186.48 218.16L186.48 217.44L185.04 217.44L185.04 216L184.32 216L184.32 215.28L183.6 215.28L183.6 214.56L182.88 214.56L182.88 213.12L182.16 213.12L182.16 212.4L181.44 212.4L181.44 211.68L180.72 211.68L180.72 210.24L180 210.24L180 209.52L179.28 209.52L179.28 208.08L178.56 208.08L178.56 206.64L177.84 206.64L177.84 205.2L177.12 205.2L177.12 203.76L176.4 203.76L176.4 200.88L175.68 200.88L175.68 198.72L174.96 198.72L174.96 195.84L174.24 195.84L174.24 182.16L174.96 182.16L174.96 179.28L175.68 179.28L175.68 176.4L176.4 176.4L176.4 173.52L177.12 173.52L177.12 172.08L177.84 172.08L177.84 170.64L178.56 170.64L178.56 169.92L179.28 169.92L179.28 168.48L180 168.48L180 167.76L180.72 167.76L180.72 167.04L181.44 167.04L181.44 166.32L182.16 166.32L182.16 165.6L182.88 165.6L182.88 164.88L183.6 164.88L183.6 164.16L184.32 164.16L184.32 163.44L185.04 163.44L185.04 162.72L185.76 162.72L185.76 162L186.48 162L186.48 161.28L187.92 161.28L187.92 160.56L188.64 160.56L188.64 159.84L189.36 159.84L189.36 159.12L190.08 159.12L190.08 158.4L190.8 158.4L190.8 157.68L192.24 157.68L192.24 156.96L192.96 156.96L192.96 156.24L193.68 156.24L193.68 155.52L195.12 155.52L195.12 154.8L195.84 154.8L195.84 154.08L197.28 154.08L197.28 153.36L199.44 153.36L199.44 152.64L200.16 152.64L200.16 151.92L202.32 151.92L202.32 151.2L206.64 151.2L206.64 150.48L216.72 150.48L216.72 151.2L221.04 151.2L221.04 151.92L223.92 151.92L223.92 152.64L226.8 152.64L226.8 153.36L228.24 153.36L228.24 154.08L229.68 154.08L229.68 154.8L231.84 154.8L231.84 155.52L233.28 155.52L233.28 156.24L235.44 156.24L235.44 156.96L236.88 156.96L236.88 157.68L238.32 157.68L238.32 158.4L240.48 158.4L240.48 159.12L241.92 159.12L241.92 159.84L244.08 159.84L244.08 160.56L244.8 160.56L244.8 161.28L246.96 161.28L246.96 162L247.68 162L247.68 162.72L249.12 162.72L249.12 163.44L249.84 163.44L249.84 164.16L250.56 164.16L250.56 164.88L251.28 164.88L251.28 165.6L252 165.6L252 166.32L252.72 166.32L252.72 167.04L254.16 167.04L254.16 167.76L254.88 167.76L254.88 168.48L255.6 168.48L255.6 169.2L256.32 169.2L256.32 169.92L257.04 169.92L257.04 170.64L257.76 170.64L257.76 172.08L258.48 172.08L258.48 173.52L259.2 173.52L259.2 174.96L259.92 174.96L259.92 175.68L260.64 175.68L260.64 177.12L261.36 177.12L261.36 180L262.08 180L262.08 182.88L262.8 182.88L262.8 187.2L263.52 187.2L263.52 192.24L264.24 192.24L264.24 224.64L263.52 224.64L263.52 231.84L262.8 231.84L262.8 234L262.08 234L262.08 236.88L261.36 236.88L261.36 241.2L260.64 241.2L260.64 244.08L259.92 244.08L259.92 246.96L259.2 246.96L259.2 249.12L258.48 249.12L258.48 252L257.76 252L257.76 254.16L257.04 254.16L257.04 255.6L256.32 255.6L256.32 257.76L255.6 257.76L255.6 259.2L254.88 259.2L254.88 260.64L254.16 260.64L254.16 262.08L253.44 262.08L253.44 262.8L252.72 262.8L252.72 264.24L252 264.24L252 265.68L251.28 265.68L251.28 267.12L250.56 267.12L250.56 268.56L249.84 268.56L249.84 269.28L249.12 269.28L249.12 270L248.4 270L248.4 271.44L247.68 271.44L247.68 272.16L246.96 272.16L246.96 273.6L246.24 273.6L246.24 274.32L245.52 274.32L245.52 275.04L244.8 275.04L244.8 276.48L244.08 276.48L244.08 277.2L243.36 277.2L243.36 277.92L242.64 277.92L242.64 278.64L241.92 278.64L241.92 279.36L241.2 279.36L241.2 280.08L240.48 280.08L240.48 280.8L239.76 280.8L239.76 281.52L239.04 281.52L239.04 282.24L238.32 282.24L238.32 282.96L237.6 282.96L237.6 283.68L236.88 283.68L236.88 284.4L235.44 284.4L235.44 285.12L234.72 285.12L234.72 285.84L234 285.84L234 286.56L233.28 286.56L233.28 287.28L232.56 287.28L232.56 288L231.12 288L231.12 288.72L229.68 288.72L229.68 289.44L228.24 289.44L228.24 290.16L226.8 290.16L226.8 290.88L226.08 290.88L226.08 291.6L224.64 291.6L224.64 292.32L223.2 292.32L223.2 293.04L222.48 293.04L222.48 293.76L221.04 293.76L221.04 294.48L219.6 294.48L219.6 295.2L216.72 295.2L216.72 295.92L215.28 295.92L215.28 296.64L213.84 296.64L213.84 297.36L211.68 297.36L211.68 298.08L208.8 298.08L208.8 298.8L206.64 298.8L206.64 299.52L203.76 299.52L203.76 300.24L199.44 300.24L199.44 300.96L196.56 300.96L196.56 301.68L192.96 301.68L192.96 302.4L189.36 302.4L189.36 303.12L182.16 303.12L182.16 303.84L151.92 303.84L151.92 303.12L146.88 303.12L146.88 302.4L142.56 302.4L142.56 301.68L139.68 301.68L139.68 300.96L135.36 300.96L135.36 300.24L133.2 300.24L133.2 299.52L131.04 299.52L131.04 298.8L129.6 298.8L129.6 298.08L127.44 298.08L127.44 297.36L125.28 297.36L125.28 296.64L123.84 296.64L123.84 295.92L122.4 295.92L122.4 295.2L120.24 295.2L120.24 294.48L118.8 294.48L118.8 293.76L117.36 293.76L117.36 293.04L114.48 293.04L114.48 292.32L112.32 292.32L112.32 291.6L110.16 291.6L110.16 290.88L109.44 290.88L109.44 289.44L108.72 289.44L108.72 288.72L108 288.72L108 288L107.28 288L107.28 287.28L106.56 287.28L106.56 285.84L105.84 285.84L105.84 285.12L105.12 285.12L105.12 283.68L104.4 283.68L104.4 282.96L103.68 282.96L103.68 282.24L102.96 282.24L102.96 280.8L102.24 280.8L102.24 280.08L101.52 280.08L101.52 278.64L100.8 278.64L100.8 277.92L100.08 277.92L100.08 276.48L99.36 276.48L99.36 275.04L98.64 275.04L98.64 274.32L97.92 274.32L97.92 272.88L97.2 272.88L97.2 271.44L96.48 271.44L96.48 270L95.76 270L95.76 268.56L95.04 268.56L95.04 267.84L94.32 267.84L94.32 266.4L93.6 266.4L93.6 264.24L92.88 264.24L92.88 262.8L92.16 262.8L92.16 261.36L91.44 261.36L91.44 259.92L90.72 259.92L90.72 257.76L90 257.76L90 256.32L89.28 256.32L89.28 254.16L88.56 254.16L88.56 252.72L87.84 252.72L87.84 250.56L87.12 250.56L87.12 247.68L86.4 247.68L86.4 245.52L85.68 245.52L85.68 243.36L84.96 243.36L84.96 240.48L84.24 240.48L84.24 236.88L83.52 236.88L83.52 233.28L82.8 233.28L82.8 228.96L82.08 228.96L82.08 223.2L81.36 223.2L81.36 198L82.08 198L82.08 192.24L82.8 192.24L82.8 187.92L83.52 187.92L83.52 184.32L84.24 184.32L84.24 180.72L84.96 180.72L84.96 177.84L85.68 177.84L85.68 175.68L86.4 175.68L86.4 173.52L87.12 173.52L87.12 170.64L87.84 170.64L87.84 168.48L88.56 168.48L88.56 167.04L89.28 167.04L89.28 164.88L90 164.88L90 163.44L90.72 163.44L90.72 161.28L91.44 161.28L91.44 159.84L92.16 159.84L92.16 158.4L92.88 158.4L92.88 156.96L93.6 156.96L93.6 154.8L94.32 154.8L94.32 153.36L95.04 153.36L95.04 152.64L95.76 152.64L95.76 151.2L96.48 151.2L96.48 149.76L97.2 149.76L97.2 148.32L97.92 148.32L97.92 146.88L98.64 146.88L98.64 146.16L99.36 146.16L99.36 144.72L100.08 144.72L100.08 143.28L100.8 143.28L100.8 142.56L101.52 142.56L101.52 141.12L102.24 141.12L102.24 140.4L102.96 140.4L102.96 138.96L103.68 138.96L103.68 138.24L104.4 138.24L104.4 137.52L105.12 137.52L105.12 136.08L105.84 136.08L105.84 135.36L106.56 135.36L106.56 133.92L107.28 133.92L107.28 133.2L108 133.2L108 132.48L108.72 132.48L108.72 131.76L109.44 131.76L109.44 130.32L110.16 130.32L110.16 129.6L110.88 129.6L110.88 128.88L111.6 128.88L111.6 128.16L112.32 128.16L112.32 127.44L113.04 127.44L113.04 126.72L113.76 126.72L113.76 126L114.48 126L114.48 124.56L115.2 124.56L115.2 123.84L115.92 123.84L115.92 123.12L116.64 123.12L116.64 122.4L117.36 122.4L117.36 121.68L118.08 121.68L118.08 120.96L118.8 120.96L118.8 120.24L119.52 120.24L119.52 119.52L120.24 119.52L120.24 118.8L121.68 118.8L121.68 118.08L122.4 118.08L122.4 117.36L123.12 117.36L123.12 116.64L123.84 116.64L123.84 115.92L124.56 115.92L124.56 115.2L125.28 115.2L125.28 114.48L126 114.48L126 113.76L127.44 113.76L127.44 113.04L128.16 113.04L128.16 112.32L128.88 112.32L128.88 111.6L129.6 111.6L129.6 110.88L131.04 110.88L131.04 110.16L131.76 110.16L131.76 109.44L132.48 109.44L132.48 108.72L133.92 108.72L133.92 108L134.64 108L134.64 107.28L136.08 107.28L136.08 106.56L136.8 106.56L136.8 105.84L138.24 105.84L138.24 105.12L138.96 105.12L138.96 104.4L140.4 104.4L140.4 103.68L141.12 103.68L141.12 102.96L142.56 102.96L142.56 102.24L144 102.24L144 101.52L144.72 101.52L144.72 100.8L146.16 100.8L146.16 100.08L147.6 100.08L147.6 99.36L149.04 99.36L149.04 98.64L150.48 98.64L150.48 97.92L151.92 97.92L151.92 97.2L153.36 97.2L153.36 96.48L154.8 96.48L154.8 95.76L156.96 95.76L156.96 95.04L158.4 95.04L158.4 94.32L159.84 94.32L159.84 93.6L162 93.6L162 92.88L164.16 92.88L164.16 92.16L165.6 92.16L165.6 91.44L167.76 91.44L167.76 90.72L170.64 90.72L170.64 90L172.8 90L172.8 89.28L175.68 89.28L175.68 88.56L178.56 88.56L178.56 87.84L182.16 87.84L182.16 87.12L185.76 87.12L185.76 86.4L190.8 86.4L190.8 85.68L198 85.68L198 84.96M488.88 123.84L490.32 123.84L490.32 125.28L491.04 125.28L491.04 126L491.76 126L491.76 126.72L492.48 126.72L492.48 127.44L493.2 127.44L493.2 128.16L493.92 128.16L493.92 128.88L494.64 128.88L494.64 129.6L496.08 129.6L496.08 130.32L497.52 130.32L497.52 131.04L499.68 131.04L499.68 131.76L501.84 131.76L501.84 132.48L502.56 132.48L502.56 133.92L503.28 133.92L503.28 134.64L504 134.64L504 136.08L504.72 136.08L504.72 136.8L505.44 136.8L505.44 138.24L506.16 138.24L506.16 138.96L506.88 138.96L506.88 140.4L507.6 140.4L507.6 142.56L508.32 142.56L508.32 144L509.04 144L509.04 145.44L509.76 145.44L509.76 148.32L510.48 148.32L510.48 151.2L511.2 151.2L511.2 154.08L511.92 154.08L511.92 156.96L512.64 156.96L512.64 162.72L513.36 162.72L513.36 197.28L512.64 197.28L512.64 203.76L511.92 203.76L511.92 205.92L511.2 205.92L511.2 207.36L510.48 207.36L510.48 210.24L509.76 210.24L509.76 212.4L509.04 212.4L509.04 215.28L508.32 215.28L508.32 218.16L507.6 218.16L507.6 220.32L506.88 220.32L506.88 222.48L506.16 222.48L506.16 223.92L505.44 223.92L505.44 225.36L504.72 225.36L504.72 226.8L504 226.8L504 228.96L503.28 228.96L503.28 231.84L502.56 231.84L502.56 233.28L501.84 233.28L501.84 235.44L501.12 235.44L501.12 236.88L500.4 236.88L500.4 238.32L499.68 238.32L499.68 239.76L498.96 239.76L498.96 242.64L498.24 242.64L498.24 244.08L497.52 244.08L497.52 245.52L496.8 245.52L496.8 246.96L496.08 246.96L496.08 248.4L495.36 248.4L495.36 249.12L494.64 249.12L494.64 250.56L493.92 250.56L493.92 252L493.2 252L493.2 254.88L492.48 254.88L492.48 257.04L491.76 257.04L491.76 258.48L491.04 258.48L491.04 259.92L490.32 259.92L490.32 261.36L489.6 261.36L489.6 263.52L488.88 263.52L488.88 264.96L488.16 264.96L488.16 266.4L487.44 266.4L487.44 267.84L486.72 267.84L486.72 269.28L486 269.28L486 271.44L485.28 271.44L485.28 272.88L484.56 272.88L484.56 275.04L483.84 275.04L483.84 277.2L483.12 277.2L483.12 278.64L482.4 278.64L482.4 280.08L481.68 280.08L481.68 282.24L480.96 282.24L480.96 284.4L480.24 284.4L480.24 285.84L479.52 285.84L479.52 287.28L478.8 287.28L478.8 290.16L478.08 290.16L478.08 291.6L477.36 291.6L477.36 293.04L476.64 293.04L476.64 295.2L475.92 295.2L475.92 296.64L475.2 296.64L475.2 298.08L474.48 298.08L474.48 299.52L473.76 299.52L473.76 301.68L473.04 301.68L473.04 304.56L472.32 304.56L472.32 306L471.6 306L471.6 307.44L470.88 307.44L470.88 309.6L470.16 309.6L470.16 311.76L469.44 311.76L469.44 313.2L468.72 313.2L468.72 314.64L468 314.64L468 315.36L467.28 315.36L467.28 316.08L466.56 316.08L466.56 317.52L465.84 317.52L465.84 318.24L465.12 318.24L465.12 319.68L464.4 319.68L464.4 321.12L463.68 321.12L463.68 322.56L462.96 322.56L462.96 324L462.24 324L462.24 324.72L461.52 324.72L461.52 326.16L460.8 326.16L460.8 327.6L460.08 327.6L460.08 329.04L459.36 329.04L459.36 330.48L458.64 330.48L458.64 331.2L457.92 331.2L457.92 332.64L457.2 332.64L457.2 333.36L456.48 333.36L456.48 334.08L455.76 334.08L455.76 334.8L455.04 334.8L455.04 336.24L454.32 336.24L454.32 336.96L453.6 336.96L453.6 337.68L452.88 337.68L452.88 339.12L452.16 339.12L452.16 339.84L451.44 339.84L451.44 340.56L450.72 340.56L450.72 341.28L450 341.28L450 342.72L449.28 342.72L449.28 343.44L448.56 343.44L448.56 344.16L447.84 344.16L447.84 344.88L447.12 344.88L447.12 345.6L446.4 345.6L446.4 346.32L445.68 346.32L445.68 347.04L444.96 347.04L444.96 348.48L444.24 348.48L444.24 349.2L443.52 349.2L443.52 349.92L442.8 349.92L442.8 350.64L442.08 350.64L442.08 352.08L441.36 352.08L441.36 352.8L439.92 352.8L439.92 353.52L439.2 353.52L439.2 354.24L438.48 354.24L438.48 354.96L437.76 354.96L437.76 356.4L437.04 356.4L437.04 357.12L436.32 357.12L436.32 357.84L434.88 357.84L434.88 358.56L434.16 358.56L434.16 359.28L433.44 359.28L433.44 360L432.72 360L432.72 361.44L432 361.44L432 362.16L431.28 362.16L431.28 362.88L429.84 362.88L429.84 363.6L429.12 363.6L429.12 364.32L428.4 364.32L428.4 365.04L427.68 365.04L427.68 365.76L426.96 365.76L426.96 366.48L425.52 366.48L425.52 367.2L424.8 367.2L424.8 367.92L423.36 367.92L423.36 368.64L421.92 368.64L421.92 369.36L421.2 369.36L421.2 370.08L419.04 370.08L419.04 370.8L417.6 370.8L417.6 371.52L416.16 371.52L416.16 372.24L414.72 372.24L414.72 372.96L413.28 372.96L413.28 373.68L411.84 373.68L411.84 374.4L411.12 374.4L411.12 375.12L408.96 375.12L408.96 375.84L407.52 375.84L407.52 376.56L406.08 376.56L406.08 377.28L404.64 377.28L404.64 378L403.2 378L403.2 378.72L401.76 378.72L401.76 379.44L399.6 379.44L399.6 380.16L398.16 380.16L398.16 380.88L396.72 380.88L396.72 381.6L396 381.6L396 382.32L393.84 382.32L393.84 383.04L392.4 383.04L392.4 383.76L390.24 383.76L390.24 384.48L388.8 384.48L388.8 385.2L386.64 385.2L386.64 385.92L385.2 385.92L385.2 386.64L383.04 386.64L383.04 387.36L381.6 387.36L381.6 388.08L378.72 388.08L378.72 388.8L375.12 388.8L375.12 389.52L372.96 389.52L372.96 390.24L370.08 390.24L370.08 390.96L367.92 390.96L367.92 391.68L365.76 391.68L365.76 392.4L364.32 392.4L364.32 393.12L360.72 393.12L360.72 393.84L357.84 393.84L357.84 394.56L354.96 394.56L354.96 395.28L352.8 395.28L352.8 396L351.36 396L351.36 396.72L349.92 396.72L349.92 397.44L348.48 397.44L348.48 398.16L344.88 398.16L344.88 398.88L342.72 398.88L342.72 399.6L339.12 399.6L339.12 400.32L336.96 400.32L336.96 401.04L334.08 401.04L334.08 401.76L329.76 401.76L329.76 402.48L325.44 402.48L325.44 403.2L323.28 403.2L323.28 403.92L316.8 403.92L316.8 404.64L314.64 404.64L314.64 405.36L308.16 405.36L308.16 406.08L305.28 406.08L305.28 406.8L300.96 406.8L300.96 407.52L295.92 407.52L295.92 408.24L293.76 408.24L293.76 408.96L287.28 408.96L287.28 409.68L283.68 409.68L283.68 410.4L280.08 410.4L280.08 411.12L274.32 411.12L274.32 411.84L271.44 411.84L271.44 412.56L265.68 412.56L265.68 413.28L262.8 413.28L262.8 414L259.92 414L259.92 414.72L253.44 414.72L253.44 415.44L247.68 415.44L247.68 416.16L241.92 416.16L241.92 416.88L232.56 416.88L232.56 417.6L148.32 417.6L148.32 416.88L139.68 416.88L139.68 416.16L133.2 416.16L133.2 415.44L129.6 415.44L129.6 414.72L126 414.72L126 414L117.36 414L117.36 413.28L111.6 413.28L111.6 412.56L105.84 412.56L105.84 411.84L99.36 411.84L99.36 411.12L83.52 411.12L83.52 410.4L74.16 410.4L74.16 409.68L57.6 409.68L57.6 408.96L54.72 408.96L54.72 408.24L48.96 408.24L48.96 407.52L39.6 407.52L39.6 406.8L36.72 406.8L36.72 406.08L35.28 406.08L35.28 403.92L36 403.92L36 401.76L36.72 401.76L36.72 400.32L37.44 400.32L37.44 398.16L38.16 398.16L38.16 396.72L38.88 396.72L38.88 396L39.6 396L39.6 395.28L40.32 395.28L40.32 393.84L41.04 393.84L41.04 393.12L41.76 393.12L41.76 392.4L42.48 392.4L42.48 390.96L43.2 390.96L43.2 390.24L43.92 390.24L43.92 389.52L44.64 389.52L44.64 388.08L45.36 388.08L45.36 387.36L46.08 387.36L46.08 385.92L46.8 385.92L46.8 385.2L47.52 385.2L47.52 384.48L48.96 384.48L48.96 383.76L49.68 383.76L49.68 383.04L50.4 383.04L50.4 382.32L51.12 382.32L51.12 381.6L51.84 381.6L51.84 380.88L53.28 380.88L53.28 380.16L54 380.16L54 379.44L54.72 379.44L54.72 378.72L55.44 378.72L55.44 378L56.16 378L56.16 377.28L56.88 377.28L56.88 376.56L57.6 376.56L57.6 375.84L58.32 375.84L58.32 375.12L59.04 375.12L59.04 374.4L60.48 374.4L60.48 373.68L61.2 373.68L61.2 372.96L62.64 372.96L62.64 372.24L64.08 372.24L64.08 371.52L64.8 371.52L64.8 370.8L66.24 370.8L66.24 370.08L67.68 370.08L67.68 369.36L69.84 369.36L69.84 368.64L70.56 368.64L70.56 367.92L72 367.92L72 367.2L74.16 367.2L74.16 366.48L75.6 366.48L75.6 365.76L77.04 365.76L77.04 365.04L78.48 365.04L78.48 364.32L80.64 364.32L80.64 363.6L83.52 363.6L83.52 362.88L84.96 362.88L84.96 362.16L86.4 362.16L86.4 361.44L87.84 361.44L87.84 360.72L90 360.72L90 360L92.16 360L92.16 359.28L93.6 359.28L93.6 358.56L95.76 358.56L95.76 357.84L98.64 357.84L98.64 357.12L100.08 357.12L100.08 356.4L102.24 356.4L102.24 355.68L104.4 355.68L104.4 354.96L106.56 354.96L106.56 354.24L109.44 354.24L109.44 353.52L110.88 353.52L110.88 352.8L115.2 352.8L115.2 352.08L129.6 352.08L129.6 352.8L131.04 352.8L131.04 353.52L132.48 353.52L132.48 354.24L133.92 354.24L133.92 354.96L135.36 354.96L135.36 355.68L136.8 355.68L136.8 356.4L138.24 356.4L138.24 357.12L139.68 357.12L139.68 357.84L141.12 357.84L141.12 358.56L142.56 358.56L142.56 359.28L144.72 359.28L144.72 360L146.16 360L146.16 360.72L147.6 360.72L147.6 361.44L149.76 361.44L149.76 362.16L151.92 362.16L151.92 362.88L153.36 362.88L153.36 363.6L155.52 363.6L155.52 364.32L157.68 364.32L157.68 365.04L159.84 365.04L159.84 365.76L162 365.76L162 366.48L164.88 366.48L164.88 367.2L167.04 367.2L167.04 367.92L169.92 367.92L169.92 368.64L173.52 368.64L173.52 369.36L176.4 369.36L176.4 370.08L180.72 370.08L180.72 370.8L185.04 370.8L185.04 371.52L190.8 371.52L190.8 372.24L200.16 372.24L200.16 372.96L215.28 372.96L215.28 372.24L224.64 372.24L224.64 371.52L230.4 371.52L230.4 370.8L234.72 370.8L234.72 370.08L239.04 370.08L239.04 369.36L241.92 369.36L241.92 368.64L245.52 368.64L245.52 367.92L248.4 367.92L248.4 367.2L250.56 367.2L250.56 366.48L253.44 366.48L253.44 365.76L255.6 365.76L255.6 365.04L257.76 365.04L257.76 364.32L259.92 364.32L259.92 363.6L262.08 363.6L262.08 362.88L263.52 362.88L263.52 362.16L265.68 362.16L265.68 361.44L267.84 361.44L267.84 360.72L269.28 360.72L269.28 360L270.72 360L270.72 359.28L272.88 359.28L272.88 358.56L274.32 358.56L274.32 357.84L275.76 357.84L275.76 357.12L277.2 357.12L277.2 356.4L278.64 356.4L278.64 355.68L280.08 355.68L280.08 354.96L281.52 354.96L281.52 354.24L282.96 354.24L282.96 353.52L284.4 353.52L284.4 352.8L285.84 352.8L285.84 352.08L286.56 352.08L286.56 351.36L288 351.36L288 350.64L289.44 350.64L289.44 349.92L290.16 349.92L290.16 349.2L291.6 349.2L291.6 348.48L293.04 348.48L293.04 347.76L293.76 347.76L293.76 347.04L295.2 347.04L295.2 346.32L295.92 346.32L295.92 345.6L297.36 345.6L297.36 344.88L298.08 344.88L298.08 344.16L299.52 344.16L299.52 343.44L300.24 343.44L300.24 342.72L300.96 342.72L300.96 342L302.4 342L302.4 341.28L303.12 341.28L303.12 340.56L303.84 340.56L303.84 339.84L305.28 339.84L305.28 339.12L306 339.12L306 338.4L306.72 338.4L306.72 337.68L307.44 337.68L307.44 336.96L308.88 336.96L308.88 336.24L309.6 336.24L309.6 335.52L310.32 335.52L310.32 334.8L311.04 334.8L311.04 334.08L311.76 334.08L311.76 333.36L313.2 333.36L313.2 332.64L313.92 332.64L313.92 331.92L314.64 331.92L314.64 331.2L315.36 331.2L315.36 330.48L316.08 330.48L316.08 329.76L316.8 329.76L316.8 329.04L317.52 329.04L317.52 328.32L318.24 328.32L318.24 327.6L318.96 327.6L318.96 326.88L319.68 326.88L319.68 326.16L320.4 326.16L320.4 325.44L321.12 325.44L321.12 324.72L321.84 324.72L321.84 324L322.56 324L322.56 323.28L323.28 323.28L323.28 322.56L324 322.56L324 321.84L324.72 321.84L324.72 321.12L325.44 321.12L325.44 320.4L326.16 320.4L326.16 319.68L326.88 319.68L326.88 318.24L327.6 318.24L327.6 317.52L328.32 317.52L328.32 316.8L329.04 316.8L329.04 316.08L329.76 316.08L329.76 315.36L330.48 315.36L330.48 314.64L331.2 314.64L331.2 313.2L331.92 313.2L331.92 312.48L332.64 312.48L332.64 311.76L333.36 311.76L333.36 311.04L334.08 311.04L334.08 309.6L334.8 309.6L334.8 308.88L335.52 308.88L335.52 308.16L336.24 308.16L336.24 306.72L336.96 306.72L336.96 306L337.68 306L337.68 304.56L338.4 304.56L338.4 303.84L339.12 303.84L339.12 302.4L339.84 302.4L339.84 301.68L340.56 301.68L340.56 300.24L341.28 300.24L341.28 299.52L342 299.52L342 298.08L342.72 298.08L342.72 297.36L343.44 297.36L343.44 295.92L344.16 295.92L344.16 294.48L344.88 294.48L344.88 293.76L345.6 293.76L345.6 292.32L346.32 292.32L346.32 290.88L347.04 290.88L347.04 289.44L347.76 289.44L347.76 288L348.48 288L348.48 287.28L349.2 287.28L349.2 285.84L349.92 285.84L349.92 284.4L350.64 284.4L350.64 282.96L351.36 282.96L351.36 280.8L352.08 280.8L352.08 280.08L352.8 280.08L352.8 279.36L353.52 279.36L353.52 277.92L354.24 277.92L354.24 277.2L354.96 277.2L354.96 276.48L355.68 276.48L355.68 275.04L356.4 275.04L356.4 273.6L357.12 273.6L357.12 272.16L357.84 272.16L357.84 270.72L358.56 270.72L358.56 269.28L359.28 269.28L359.28 268.56L360 268.56L360 267.12L360.72 267.12L360.72 264.96L361.44 264.96L361.44 264.24L362.16 264.24L362.16 262.8L362.88 262.8L362.88 262.08L363.6 262.08L363.6 261.36L364.32 261.36L364.32 260.64L365.04 260.64L365.04 259.92L365.76 259.92L365.76 258.48L366.48 258.48L366.48 257.76L367.2 257.76L367.2 256.32L367.92 256.32L367.92 255.6L368.64 255.6L368.64 254.16L369.36 254.16L369.36 253.44L370.08 253.44L370.08 252.72L370.8 252.72L370.8 252L371.52 252L371.52 250.56L372.24 250.56L372.24 249.84L372.96 249.84L372.96 248.4L373.68 248.4L373.68 247.68L374.4 247.68L374.4 246.96L375.12 246.96L375.12 246.24L375.84 246.24L375.84 245.52L376.56 245.52L376.56 244.8L377.28 244.8L377.28 243.36L378 243.36L378 242.64L378.72 242.64L378.72 241.2L379.44 241.2L379.44 240.48L380.16 240.48L380.16 239.76L380.88 239.76L380.88 239.04L381.6 239.04L381.6 238.32L382.32 238.32L382.32 237.6L383.04 237.6L383.04 236.88L383.76 236.88L383.76 236.16L384.48 236.16L384.48 235.44L385.2 235.44L385.2 234.72L385.92 234.72L385.92 234L386.64 234L386.64 233.28L387.36 233.28L387.36 232.56L388.08 232.56L388.08 231.84L388.8 231.84L388.8 231.12L389.52 231.12L389.52 230.4L390.24 230.4L390.24 229.68L390.96 229.68L390.96 228.24L391.68 228.24L391.68 227.52L392.4 227.52L392.4 226.8L393.12 226.8L393.12 225.36L393.84 225.36L393.84 224.64L394.56 224.64L394.56 223.92L395.28 223.92L395.28 222.48L396 222.48L396 221.76L396.72 221.76L396.72 221.04L397.44 221.04L397.44 220.32L398.16 220.32L398.16 219.6L398.88 219.6L398.88 218.88L399.6 218.88L399.6 217.44L400.32 217.44L400.32 216.72L401.04 216.72L401.04 216L401.76 216L401.76 215.28L402.48 215.28L402.48 213.84L403.2 213.84L403.2 213.12L403.92 213.12L403.92 212.4L404.64 212.4L404.64 210.96L405.36 210.96L405.36 210.24L406.08 210.24L406.08 208.8L406.8 208.8L406.8 208.08L407.52 208.08L407.52 206.64L408.24 206.64L408.24 205.92L408.96 205.92L408.96 204.48L409.68 204.48L409.68 203.04L410.4 203.04L410.4 202.32L411.12 202.32L411.12 201.6L411.84 201.6L411.84 200.88L412.56 200.88L412.56 199.44L413.28 199.44L413.28 198.72L414 198.72L414 197.28L414.72 197.28L414.72 196.56L415.44 196.56L415.44 195.84L416.16 195.84L416.16 195.12L416.88 195.12L416.88 194.4L417.6 194.4L417.6 192.96L418.32 192.96L418.32 192.24L419.04 192.24L419.04 190.8L419.76 190.8L419.76 190.08L420.48 190.08L420.48 189.36L421.2 189.36L421.2 188.64L421.92 188.64L421.92 187.92L422.64 187.92L422.64 186.48L424.08 186.48L424.08 185.76L424.8 185.76L424.8 185.04L425.52 185.04L425.52 184.32L426.24 184.32L426.24 182.88L426.96 182.88L426.96 182.16L427.68 182.16L427.68 180.72L428.4 180.72L428.4 180L429.12 180L429.12 179.28L429.84 179.28L429.84 178.56L430.56 178.56L430.56 177.84L431.28 177.84L431.28 177.12L432 177.12L432 176.4L432.72 176.4L432.72 174.96L433.44 174.96L433.44 174.24L434.16 174.24L434.16 173.52L434.88 173.52L434.88 172.8L436.32 172.8L436.32 172.08L437.04 172.08L437.04 171.36L437.76 171.36L437.76 170.64L438.48 170.64L438.48 169.2L439.2 169.2L439.2 168.48L439.92 168.48L439.92 167.76L440.64 167.76L440.64 167.04L441.36 167.04L441.36 166.32L442.08 166.32L442.08 165.6L442.8 165.6L442.8 164.88L443.52 164.88L443.52 164.16L444.24 164.16L444.24 163.44L444.96 163.44L444.96 162L445.68 162L445.68 161.28L446.4 161.28L446.4 160.56L447.12 160.56L447.12 159.12L448.56 159.12L448.56 158.4L449.28 158.4L449.28 157.68L450 157.68L450 156.96L450.72 156.96L450.72 155.52L451.44 155.52L451.44 154.8L452.16 154.8L452.16 153.36L452.88 153.36L452.88 152.64L453.6 152.64L453.6 151.92L454.32 151.92L454.32 151.2L455.04 151.2L455.04 150.48L455.76 150.48L455.76 149.76L456.48 149.76L456.48 149.04L457.2 149.04L457.2 148.32L457.92 148.32L457.92 147.6L458.64 147.6L458.64 146.88L459.36 146.88L459.36 146.16L460.08 146.16L460.08 144.72L460.8 144.72L460.8 144L461.52 144L461.52 143.28L462.24 143.28L462.24 142.56L463.68 142.56L463.68 141.84L464.4 141.84L464.4 141.12L465.12 141.12L465.12 140.4L465.84 140.4L465.84 138.96L467.28 138.96L467.28 138.24L468 138.24L468 137.52L468.72 137.52L468.72 136.8L470.16 136.8L470.16 136.08L470.88 136.08L470.88 134.64L471.6 134.64L471.6 133.92L473.04 133.92L473.04 133.2L473.76 133.2L473.76 132.48L475.2 132.48L475.2 131.76L475.92 131.76L475.92 131.04L476.64 131.04L476.64 130.32L478.08 130.32L478.08 129.6L478.8 129.6L478.8 128.88L479.52 128.88L479.52 128.16L480.96 128.16L480.96 127.44L482.4 127.44L482.4 126.72L483.84 126.72L483.84 126L486 126L486 125.28L487.44 125.28L487.44 124.56L488.88 124.56L488.88 123.84"/>
</svg>
